<svg width="24" height="24" viewBox="0 0 24 24" fill="none" xmlns="http://www.w3.org/2000/svg">
<path d="M12.0183 5.1731C8.6214 5.1731 5.84619 7.9483 5.84619 11.3452C5.84619 13.1213 6.62325 14.8308 7.93315 15.9853C8.91002 16.9622 8.82121 19.0491 8.79901 19.0713C8.79901 19.1823 8.82121 19.2712 8.91002 19.36C8.97663 19.4266 9.08763 19.471 9.17644 19.471H14.8379C14.9489 19.471 15.0377 19.4266 15.1043 19.36C15.1709 19.2934 15.2153 19.1823 15.2153 19.0713C15.2153 19.0491 15.1043 16.9622 16.0812 15.9853C16.1034 15.9631 16.1256 15.9409 16.1478 15.9187C17.4355 14.742 18.1903 13.0769 18.1903 11.3452C18.1903 7.9483 15.4151 5.1731 12.0183 5.1731ZM15.5705 15.4081C15.5483 15.4303 15.5039 15.4747 15.5039 15.4969C14.6381 16.4293 14.4826 17.9613 14.4604 18.6939H9.55387C9.53167 17.9613 9.37626 16.3627 8.44379 15.4081C7.2671 14.3868 6.57885 12.8993 6.57885 11.323C6.57885 8.32573 8.99883 5.90575 11.9961 5.90575C14.9933 5.90575 17.4133 8.32573 17.4133 11.323C17.4133 12.8993 16.7472 14.3868 15.5705 15.4081Z" fill="#333333"/>
<path d="M14.4606 19.8926H9.53184C9.0212 19.8926 8.59937 20.3144 8.59937 20.825C8.59937 21.3357 9.0212 21.7575 9.53184 21.7575H14.4384C14.9712 21.7353 15.3931 21.3357 15.3931 20.825C15.3931 20.3144 14.9712 19.8926 14.4606 19.8926ZM14.4606 20.9805H9.53184C9.44303 20.9805 9.35422 20.9139 9.35422 20.8028C9.35422 20.6918 9.42083 20.6252 9.53184 20.6252H14.4384C14.5272 20.6252 14.616 20.6918 14.616 20.8028C14.616 20.9139 14.5494 20.9805 14.4606 20.9805Z" fill="#333333"/>
<path d="M13.728 22.135H10.2645C9.75386 22.135 9.33203 22.5568 9.33203 23.0675C9.33203 23.5781 9.75386 24 10.2645 24H13.728C14.2386 24 14.6604 23.5781 14.6604 23.0675C14.6604 22.5346 14.2386 22.135 13.728 22.135ZM13.728 23.2229H10.2645C10.1757 23.2229 10.0869 23.1563 10.0869 23.0453C10.0869 22.9343 10.1535 22.8677 10.2645 22.8677H13.728C13.8168 22.8677 13.9056 22.9343 13.9056 23.0453C13.9056 23.1563 13.8168 23.2229 13.728 23.2229Z" fill="#333333"/>
<path d="M11.9961 3.33025C12.2181 3.33025 12.3735 3.15264 12.3735 2.95282V0.377428C12.3735 0.177613 12.1959 0 11.9961 0C11.7963 0 11.6187 0.177613 11.6187 0.377428V2.95282C11.6187 3.15264 11.7963 3.33025 11.9961 3.33025Z" fill="#333333"/>
<path d="M18.2793 1.90931C18.1017 1.7761 17.8796 1.84271 17.7686 1.99812L16.3477 4.12948C16.2145 4.30709 16.2589 4.55131 16.4365 4.66232C16.5031 4.70672 16.5697 4.72893 16.6363 4.72893C16.7696 4.72893 16.8806 4.66232 16.9472 4.55131L18.3681 2.41995C18.5013 2.26454 18.4569 2.02032 18.2793 1.90931Z" fill="#333333"/>
<path d="M7.48929 4.64011C7.55589 4.64011 7.6225 4.61791 7.6891 4.57351C7.86672 4.4625 7.91112 4.21828 7.80011 4.04067L6.42361 1.88711C6.3126 1.70949 6.06838 1.66509 5.89077 1.7761C5.71315 1.88711 5.66875 2.13132 5.77976 2.30894L7.15626 4.4625C7.24507 4.59571 7.35608 4.64011 7.48929 4.64011Z" fill="#333333"/>
<path d="M4.80282 6.99341L2.56045 5.77232C2.38284 5.68351 2.13862 5.75012 2.04981 5.92773C1.93881 6.10534 2.00541 6.34956 2.20523 6.43837L4.44759 7.65946C4.5142 7.68166 4.5586 7.70386 4.62521 7.70386C4.75842 7.70386 4.89163 7.63726 4.95823 7.50405C5.04704 7.32644 4.98043 7.08222 4.80282 6.99341Z" fill="#333333"/>
<path d="M21.9647 5.92773C21.8759 5.75012 21.6316 5.68351 21.454 5.77232L19.1895 6.99341C19.0118 7.08222 18.9452 7.32644 19.034 7.50405C19.1006 7.63726 19.2339 7.70386 19.3671 7.70386C19.4337 7.70386 19.5003 7.68166 19.5447 7.65946L21.8092 6.43837C21.9869 6.34956 22.0535 6.10534 21.9647 5.92773Z" fill="#333333"/>
</svg>
