<svg width="16" height="17" viewBox="0 0 16 17" fill="none" xmlns="http://www.w3.org/2000/svg">
<path d="M7.55621 13.1673C7.12665 13.1673 6.77843 12.8191 6.77843 12.3895C6.77843 11.96 7.12665 11.6118 7.55621 11.6118H9.11176C9.54132 11.6118 9.88954 11.96 9.88954 12.3895C9.88954 12.8191 9.54132 13.1673 9.11176 13.1673H7.55621ZM4.44509 9.27843C4.01554 9.27843 3.66732 8.93021 3.66732 8.50065C3.66732 8.0711 4.01554 7.72287 4.4451 7.72287H12.2229C12.6524 7.72287 13.0007 8.0711 13.0007 8.50065C13.0007 8.93021 12.6524 9.27843 12.2229 9.27843H4.44509ZM2.11176 5.38954C1.68221 5.38954 1.33398 5.04132 1.33398 4.61176C1.33398 4.18221 1.68221 3.83398 2.11176 3.83398H14.5562C14.9858 3.83398 15.334 4.18221 15.334 4.61176C15.334 5.04132 14.9858 5.38954 14.5562 5.38954H2.11176Z" fill="white"/>
</svg>
