<svg width="24" height="24" viewBox="0 0 24 24" fill="none" xmlns="http://www.w3.org/2000/svg">
<mask id="path-1-outside-1_2493_64264" maskUnits="userSpaceOnUse" x="1" y="2" width="21" height="20" fill="black">
<rect fill="white" x="1" y="2" width="21" height="20"/>
<path d="M5.49879 3.0091C5.45696 3.0167 5.32765 3.04333 5.21356 3.06614C4.93214 3.11938 4.36549 3.40081 4.11449 3.60617C3.71136 3.94084 3.41473 4.3896 3.23218 4.94484L3.14091 5.21105L3.1295 8.55012L3.11809 11.893L2.93555 12.1136C2.54764 12.5813 2.28142 13.0947 2.08747 13.7679L2 14.0721V16.9814V19.8908L2.11029 20.1189C2.502 20.9176 3.48318 21.2332 4.26661 20.8149C4.81044 20.5259 5.09947 19.9858 5.09947 19.2595V18.997H11.7167H18.334V19.2595C18.334 19.9858 18.6231 20.5259 19.1669 20.8149C19.9503 21.2332 20.9315 20.9176 21.3232 20.1189L21.4335 19.8908V17.0005C21.4335 14.1406 21.4335 14.1063 21.3498 13.7945C21.1673 13.1176 20.8288 12.4748 20.4143 12.0147L20.2393 11.8207L20.2279 8.5349C20.2127 4.86117 20.2317 5.09316 19.9351 4.48848C19.608 3.82675 19.0452 3.35137 18.277 3.09276L18.0108 3.00529L11.7928 3.00149C8.37388 2.99769 5.54062 3.00149 5.49879 3.0091ZM18.1211 3.8914C18.4291 4.00549 18.6687 4.16902 18.8931 4.40481C19.1479 4.67483 19.2696 4.8954 19.3608 5.24908C19.4331 5.53431 19.4369 5.67122 19.4369 8.36377V11.1856L19.0756 11.0107L18.7181 10.8395L18.7143 10.0523C18.7143 9.32974 18.7067 9.24227 18.6231 8.97606C18.509 8.61477 18.3492 8.36757 18.0602 8.10136C17.7864 7.84655 17.4631 7.67542 17.1209 7.60316C16.7406 7.5233 13.2456 7.5271 12.8995 7.60696C12.5572 7.69063 12.1807 7.89599 11.9335 8.14699L11.7167 8.36377L11.5 8.14699C11.3821 8.0291 11.1729 7.87318 11.0322 7.80092C10.572 7.55752 10.4998 7.54992 8.44234 7.54992C7.271 7.54992 6.5142 7.56513 6.36968 7.59175C6.02741 7.6564 5.64331 7.85036 5.37709 8.09375C5.08426 8.36757 4.92453 8.61477 4.81044 8.97606C4.72677 9.24227 4.71917 9.32974 4.71537 10.0523V10.8395L4.31605 11.0335L3.91673 11.2275L3.92814 8.2763L3.93955 5.32514L4.02702 5.10077C4.26661 4.46566 4.85227 3.94845 5.46076 3.83055C5.57865 3.80774 7.99358 3.79633 11.7738 3.80013L17.8967 3.80393L18.1211 3.8914ZM10.5454 8.45124C10.8154 8.57674 11.0816 8.84295 11.2033 9.11677C11.3022 9.33354 11.3098 9.39819 11.3288 9.97245L11.3479 10.5923H8.60967C7.10367 10.5923 5.79162 10.6038 5.69274 10.6152L5.5102 10.6418L5.52541 9.94203C5.53682 9.29931 5.54443 9.23086 5.62429 9.07874C5.73458 8.86957 5.94375 8.64139 6.11868 8.5311C6.40011 8.35996 6.49138 8.35236 8.48417 8.35996C10.3286 8.36757 10.3705 8.36757 10.5454 8.45124ZM17.2007 8.47405C17.4707 8.60716 17.7331 8.89239 17.8358 9.17001C17.9043 9.34875 17.9157 9.46665 17.9157 10.0105V10.6418L17.7408 10.6152C17.6419 10.6038 16.3298 10.5923 14.8238 10.5923H12.0856L12.1047 9.97245C12.1237 9.39819 12.1313 9.32974 12.2264 9.12437C12.3366 8.88478 12.5306 8.6604 12.736 8.5311C13.0212 8.35616 13.0706 8.35236 15.0824 8.35996L16.9839 8.36757L17.2007 8.47405ZM18.1058 11.4937C19.0756 11.7751 19.8134 12.3684 20.2698 13.224C20.5778 13.7983 20.6919 14.3992 20.6919 15.4488V15.9166H18.7143H16.7368L16.6151 16.0269C16.5086 16.122 16.4896 16.1638 16.4896 16.3121C16.4896 16.449 16.5124 16.5061 16.596 16.5897L16.6987 16.6962L18.6953 16.7076L20.6919 16.719V17.4568V18.1984H11.7167H2.74159V17.4568V16.7152H7.95175C13.6183 16.7152 19.3216 16.7266 19.4205 16.5061C19.4776 16.3844 19.4776 16.2018 19.4281 16.1029C19.3216 15.909 13.5688 15.9166 7.95175 15.9166H2.74159V15.4488C2.74159 14.3992 2.85568 13.7983 3.16373 13.224C3.68855 12.2353 4.60888 11.5925 5.74599 11.4138C5.79923 11.4062 8.53741 11.4024 11.8308 11.4062L17.8206 11.41L18.1058 11.4937ZM4.30083 19.2328C4.30083 19.5333 4.24379 19.7386 4.12209 19.9022C3.86349 20.2482 3.41093 20.3015 3.05344 20.0353C2.86709 19.8946 2.77962 19.6892 2.753 19.3165L2.73018 18.997H3.51741H4.30083V19.2328ZM20.6805 19.3165C20.6539 19.6892 20.5664 19.8946 20.3801 20.0353C20.0226 20.3015 19.57 20.2482 19.3114 19.9022C19.1897 19.7386 19.1327 19.5333 19.1327 19.2328V18.997H19.9161H20.7033L20.6805 19.3165Z"/>
</mask>
<path d="M5.49879 3.0091C5.45696 3.0167 5.32765 3.04333 5.21356 3.06614C4.93214 3.11938 4.36549 3.40081 4.11449 3.60617C3.71136 3.94084 3.41473 4.3896 3.23218 4.94484L3.14091 5.21105L3.1295 8.55012L3.11809 11.893L2.93555 12.1136C2.54764 12.5813 2.28142 13.0947 2.08747 13.7679L2 14.0721V16.9814V19.8908L2.11029 20.1189C2.502 20.9176 3.48318 21.2332 4.26661 20.8149C4.81044 20.5259 5.09947 19.9858 5.09947 19.2595V18.997H11.7167H18.334V19.2595C18.334 19.9858 18.6231 20.5259 19.1669 20.8149C19.9503 21.2332 20.9315 20.9176 21.3232 20.1189L21.4335 19.8908V17.0005C21.4335 14.1406 21.4335 14.1063 21.3498 13.7945C21.1673 13.1176 20.8288 12.4748 20.4143 12.0147L20.2393 11.8207L20.2279 8.5349C20.2127 4.86117 20.2317 5.09316 19.9351 4.48848C19.608 3.82675 19.0452 3.35137 18.277 3.09276L18.0108 3.00529L11.7928 3.00149C8.37388 2.99769 5.54062 3.00149 5.49879 3.0091ZM18.1211 3.8914C18.4291 4.00549 18.6687 4.16902 18.8931 4.40481C19.1479 4.67483 19.2696 4.8954 19.3608 5.24908C19.4331 5.53431 19.4369 5.67122 19.4369 8.36377V11.1856L19.0756 11.0107L18.7181 10.8395L18.7143 10.0523C18.7143 9.32974 18.7067 9.24227 18.6231 8.97606C18.509 8.61477 18.3492 8.36757 18.0602 8.10136C17.7864 7.84655 17.4631 7.67542 17.1209 7.60316C16.7406 7.5233 13.2456 7.5271 12.8995 7.60696C12.5572 7.69063 12.1807 7.89599 11.9335 8.14699L11.7167 8.36377L11.5 8.14699C11.3821 8.0291 11.1729 7.87318 11.0322 7.80092C10.572 7.55752 10.4998 7.54992 8.44234 7.54992C7.271 7.54992 6.5142 7.56513 6.36968 7.59175C6.02741 7.6564 5.64331 7.85036 5.37709 8.09375C5.08426 8.36757 4.92453 8.61477 4.81044 8.97606C4.72677 9.24227 4.71917 9.32974 4.71537 10.0523V10.8395L4.31605 11.0335L3.91673 11.2275L3.92814 8.2763L3.93955 5.32514L4.02702 5.10077C4.26661 4.46566 4.85227 3.94845 5.46076 3.83055C5.57865 3.80774 7.99358 3.79633 11.7738 3.80013L17.8967 3.80393L18.1211 3.8914ZM10.5454 8.45124C10.8154 8.57674 11.0816 8.84295 11.2033 9.11677C11.3022 9.33354 11.3098 9.39819 11.3288 9.97245L11.3479 10.5923H8.60967C7.10367 10.5923 5.79162 10.6038 5.69274 10.6152L5.5102 10.6418L5.52541 9.94203C5.53682 9.29931 5.54443 9.23086 5.62429 9.07874C5.73458 8.86957 5.94375 8.64139 6.11868 8.5311C6.40011 8.35996 6.49138 8.35236 8.48417 8.35996C10.3286 8.36757 10.3705 8.36757 10.5454 8.45124ZM17.2007 8.47405C17.4707 8.60716 17.7331 8.89239 17.8358 9.17001C17.9043 9.34875 17.9157 9.46665 17.9157 10.0105V10.6418L17.7408 10.6152C17.6419 10.6038 16.3298 10.5923 14.8238 10.5923H12.0856L12.1047 9.97245C12.1237 9.39819 12.1313 9.32974 12.2264 9.12437C12.3366 8.88478 12.5306 8.6604 12.736 8.5311C13.0212 8.35616 13.0706 8.35236 15.0824 8.35996L16.9839 8.36757L17.2007 8.47405ZM18.1058 11.4937C19.0756 11.7751 19.8134 12.3684 20.2698 13.224C20.5778 13.7983 20.6919 14.3992 20.6919 15.4488V15.9166H18.7143H16.7368L16.6151 16.0269C16.5086 16.122 16.4896 16.1638 16.4896 16.3121C16.4896 16.449 16.5124 16.5061 16.596 16.5897L16.6987 16.6962L18.6953 16.7076L20.6919 16.719V17.4568V18.1984H11.7167H2.74159V17.4568V16.7152H7.95175C13.6183 16.7152 19.3216 16.7266 19.4205 16.5061C19.4776 16.3844 19.4776 16.2018 19.4281 16.1029C19.3216 15.909 13.5688 15.9166 7.95175 15.9166H2.74159V15.4488C2.74159 14.3992 2.85568 13.7983 3.16373 13.224C3.68855 12.2353 4.60888 11.5925 5.74599 11.4138C5.79923 11.4062 8.53741 11.4024 11.8308 11.4062L17.8206 11.41L18.1058 11.4937ZM4.30083 19.2328C4.30083 19.5333 4.24379 19.7386 4.12209 19.9022C3.86349 20.2482 3.41093 20.3015 3.05344 20.0353C2.86709 19.8946 2.77962 19.6892 2.753 19.3165L2.73018 18.997H3.51741H4.30083V19.2328ZM20.6805 19.3165C20.6539 19.6892 20.5664 19.8946 20.3801 20.0353C20.0226 20.3015 19.57 20.2482 19.3114 19.9022C19.1897 19.7386 19.1327 19.5333 19.1327 19.2328V18.997H19.9161H20.7033L20.6805 19.3165Z" fill="#333333"/>
<path d="M5.49879 3.0091C5.45696 3.0167 5.32765 3.04333 5.21356 3.06614C4.93214 3.11938 4.36549 3.40081 4.11449 3.60617C3.71136 3.94084 3.41473 4.3896 3.23218 4.94484L3.14091 5.21105L3.1295 8.55012L3.11809 11.893L2.93555 12.1136C2.54764 12.5813 2.28142 13.0947 2.08747 13.7679L2 14.0721V16.9814V19.8908L2.11029 20.1189C2.502 20.9176 3.48318 21.2332 4.26661 20.8149C4.81044 20.5259 5.09947 19.9858 5.09947 19.2595V18.997H11.7167H18.334V19.2595C18.334 19.9858 18.6231 20.5259 19.1669 20.8149C19.9503 21.2332 20.9315 20.9176 21.3232 20.1189L21.4335 19.8908V17.0005C21.4335 14.1406 21.4335 14.1063 21.3498 13.7945C21.1673 13.1176 20.8288 12.4748 20.4143 12.0147L20.2393 11.8207L20.2279 8.5349C20.2127 4.86117 20.2317 5.09316 19.9351 4.48848C19.608 3.82675 19.0452 3.35137 18.277 3.09276L18.0108 3.00529L11.7928 3.00149C8.37388 2.99769 5.54062 3.00149 5.49879 3.0091ZM18.1211 3.8914C18.4291 4.00549 18.6687 4.16902 18.8931 4.40481C19.1479 4.67483 19.2696 4.8954 19.3608 5.24908C19.4331 5.53431 19.4369 5.67122 19.4369 8.36377V11.1856L19.0756 11.0107L18.7181 10.8395L18.7143 10.0523C18.7143 9.32974 18.7067 9.24227 18.6231 8.97606C18.509 8.61477 18.3492 8.36757 18.0602 8.10136C17.7864 7.84655 17.4631 7.67542 17.1209 7.60316C16.7406 7.5233 13.2456 7.5271 12.8995 7.60696C12.5572 7.69063 12.1807 7.89599 11.9335 8.14699L11.7167 8.36377L11.5 8.14699C11.3821 8.0291 11.1729 7.87318 11.0322 7.80092C10.572 7.55752 10.4998 7.54992 8.44234 7.54992C7.271 7.54992 6.5142 7.56513 6.36968 7.59175C6.02741 7.6564 5.64331 7.85036 5.37709 8.09375C5.08426 8.36757 4.92453 8.61477 4.81044 8.97606C4.72677 9.24227 4.71917 9.32974 4.71537 10.0523V10.8395L4.31605 11.0335L3.91673 11.2275L3.92814 8.2763L3.93955 5.32514L4.02702 5.10077C4.26661 4.46566 4.85227 3.94845 5.46076 3.83055C5.57865 3.80774 7.99358 3.79633 11.7738 3.80013L17.8967 3.80393L18.1211 3.8914ZM10.5454 8.45124C10.8154 8.57674 11.0816 8.84295 11.2033 9.11677C11.3022 9.33354 11.3098 9.39819 11.3288 9.97245L11.3479 10.5923H8.60967C7.10367 10.5923 5.79162 10.6038 5.69274 10.6152L5.5102 10.6418L5.52541 9.94203C5.53682 9.29931 5.54443 9.23086 5.62429 9.07874C5.73458 8.86957 5.94375 8.64139 6.11868 8.5311C6.40011 8.35996 6.49138 8.35236 8.48417 8.35996C10.3286 8.36757 10.3705 8.36757 10.5454 8.45124ZM17.2007 8.47405C17.4707 8.60716 17.7331 8.89239 17.8358 9.17001C17.9043 9.34875 17.9157 9.46665 17.9157 10.0105V10.6418L17.7408 10.6152C17.6419 10.6038 16.3298 10.5923 14.8238 10.5923H12.0856L12.1047 9.97245C12.1237 9.39819 12.1313 9.32974 12.2264 9.12437C12.3366 8.88478 12.5306 8.6604 12.736 8.5311C13.0212 8.35616 13.0706 8.35236 15.0824 8.35996L16.9839 8.36757L17.2007 8.47405ZM18.1058 11.4937C19.0756 11.7751 19.8134 12.3684 20.2698 13.224C20.5778 13.7983 20.6919 14.3992 20.6919 15.4488V15.9166H18.7143H16.7368L16.6151 16.0269C16.5086 16.122 16.4896 16.1638 16.4896 16.3121C16.4896 16.449 16.5124 16.5061 16.596 16.5897L16.6987 16.6962L18.6953 16.7076L20.6919 16.719V17.4568V18.1984H11.7167H2.74159V17.4568V16.7152H7.95175C13.6183 16.7152 19.3216 16.7266 19.4205 16.5061C19.4776 16.3844 19.4776 16.2018 19.4281 16.1029C19.3216 15.909 13.5688 15.9166 7.95175 15.9166H2.74159V15.4488C2.74159 14.3992 2.85568 13.7983 3.16373 13.224C3.68855 12.2353 4.60888 11.5925 5.74599 11.4138C5.79923 11.4062 8.53741 11.4024 11.8308 11.4062L17.8206 11.41L18.1058 11.4937ZM4.30083 19.2328C4.30083 19.5333 4.24379 19.7386 4.12209 19.9022C3.86349 20.2482 3.41093 20.3015 3.05344 20.0353C2.86709 19.8946 2.77962 19.6892 2.753 19.3165L2.73018 18.997H3.51741H4.30083V19.2328ZM20.6805 19.3165C20.6539 19.6892 20.5664 19.8946 20.3801 20.0353C20.0226 20.3015 19.57 20.2482 19.3114 19.9022C19.1897 19.7386 19.1327 19.5333 19.1327 19.2328V18.997H19.9161H20.7033L20.6805 19.3165Z" stroke="#333333" stroke-width="0.4" mask="url(#path-1-outside-1_2493_64264)"/>
</svg>
