<svg width="65" height="30" viewBox="0 0 65 30" fill="none" xmlns="http://www.w3.org/2000/svg">
<path d="M7.75669 0.16803C7.68052 0.271431 6.703 2.31362 5.58584 4.70479L3.56732 9.07353L2.98334 12.0593C2.65327 13.7137 2.3105 15.4457 2.19625 15.9239L2.00582 16.8028H1.25681C0.203121 16.8028 0 16.9321 0 17.6171C0 18.496 0.875961 24.5838 1.0283 24.7777C1.14256 24.907 1.65036 24.9457 3.16108 24.9457H5.14151L5.58584 25.9539C6.39832 27.8022 8.17563 29.2886 10.1942 29.8056C11.2351 30.09 13.1013 29.9866 14.1423 29.6118C15.9577 28.9526 17.6716 27.2464 18.2301 25.5532L18.4333 24.9457H32.3852C45.5626 24.9457 46.3497 24.9587 46.4132 25.1655C46.9083 26.7294 48.3175 28.4356 49.7139 29.1852C52.418 30.6199 55.706 30.1288 57.8261 27.9573C58.5751 27.2077 59.5399 25.6049 59.5399 25.1267C59.5399 24.9845 60.0223 24.9457 62.1297 24.9457C64.2244 24.9457 64.7449 24.907 64.8592 24.7648C64.9734 24.6226 64.9988 23.5757 64.9734 20.7192C64.9226 16.9192 64.9226 16.8545 64.5799 15.911C63.9959 14.2824 63.3992 13.3389 62.1424 12.0722C61.1649 11.064 60.7967 10.7926 59.7811 10.2885C58.1816 9.50006 57.5341 9.37081 53.3828 8.98305C51.4278 8.8021 49.6505 8.62115 49.4346 8.5953C49.1427 8.5436 48.0255 7.65175 45.3722 5.33813C43.3537 3.59322 41.4748 1.99049 41.1955 1.77076C40.4338 1.20205 39.0374 0.555786 37.9075 0.258507C36.9427 0.0129261 36.5111 1.90735e-06 26.9517 1.90735e-06H17.0114V0.71089V1.42178L27.1421 1.44763L37.2601 1.48641L38.136 1.79661C39.5325 2.3007 40.2815 2.85648 44.1408 6.20412C46.1466 7.94903 47.962 9.50006 48.1651 9.65517C48.5206 9.91367 48.9903 9.9783 52.6338 10.3402C54.8808 10.5599 57.0517 10.8184 57.4579 10.9218C58.8798 11.2967 60.0223 11.9817 61.1903 13.1708C62.3963 14.3987 63.0692 15.5749 63.3992 17.0226L63.577 17.8369H62.9168C61.5077 17.8369 60.5555 18.7158 60.5555 20.0212C60.5555 21.3913 61.3553 22.1022 62.8914 22.1022H63.7293V22.8131V23.524H61.7616H59.7938V22.6968C59.7938 20.4219 58.2323 17.8886 56.163 16.8287C55.2998 16.3892 54.4492 16.1178 54.3223 16.26C54.2715 16.3117 54.1953 16.6219 54.1445 16.945L54.0557 17.5525L54.5508 17.7076C55.3759 17.992 55.998 18.3539 56.6328 18.9614C57.9404 20.2022 58.4608 21.5335 58.372 23.3947C58.3339 24.3512 58.2577 24.6614 57.8896 25.4111C57.331 26.5614 56.4169 27.492 55.2871 28.0607C54.4365 28.4743 54.3349 28.5002 52.9893 28.5002C51.6309 28.5002 51.5674 28.4873 50.628 28.009C47.8858 26.626 46.7433 23.3301 48.0763 20.6287C48.7618 19.2199 50.044 18.0824 51.3389 17.7076C51.9864 17.5266 51.9864 17.5396 51.7832 16.7253C51.6436 16.1566 51.6182 16.1436 51.2374 16.2212C51.0215 16.2729 50.4249 16.5185 49.9044 16.7641C47.6954 17.8369 46.0958 20.4219 46.0831 22.9682V23.524H32.3725H18.6618V22.7743C18.6618 19.7886 16.3767 16.9321 13.4314 16.2212C9.74982 15.3423 6.01747 17.6559 5.12881 21.3654C4.97647 22.0117 4.97647 21.96 4.96378 20.1634C4.95108 18.5348 4.913 18.2375 4.69718 17.8627C4.49406 17.5266 3.94817 17.0743 3.54193 16.9062C3.49115 16.8804 3.49115 16.6736 3.51654 16.4409L3.58001 16.0273H4.74796C5.48428 16.0273 5.96669 15.9756 6.06825 15.8722C6.1825 15.7559 6.22059 14.9674 6.22059 13.1062C6.22059 10.198 6.25868 10.3402 5.31924 10.3402C4.88761 10.3402 4.82413 10.3014 4.82413 10.0559C4.82413 9.90075 5.6874 7.89733 6.75378 5.59664L8.68344 1.42178H11.6414H14.5993V0.71089V1.90735e-06H11.2478C8.60727 1.90735e-06 7.87095 0.0387764 7.75669 0.16803ZM4.95108 13.1838V14.7348H4.43058C3.92278 14.7348 3.91009 14.7219 3.97356 14.3729C4.01165 14.179 4.1386 13.481 4.26555 12.8219C4.45597 11.8525 4.53214 11.6327 4.72257 11.6327C4.92569 11.6327 4.95108 11.7749 4.95108 13.1838ZM14.1423 18.0049C15.2849 18.5865 16.237 19.5818 16.7956 20.7709C17.1764 21.5852 17.2018 21.7532 17.2018 23.007C17.2018 24.2607 17.1764 24.4287 16.7956 25.243C16.237 26.4451 15.2849 27.4274 14.1042 28.022C13.1902 28.4743 13.1013 28.5002 11.8826 28.5002C10.8416 28.4873 10.4607 28.4356 9.86408 28.19C6.13172 26.6777 5.17959 21.792 8.06138 19.0131C8.74691 18.3409 9.71174 17.7852 10.4988 17.5783C10.7654 17.5137 11.489 17.4749 12.0984 17.5008C13.0759 17.5396 13.3298 17.6042 14.1423 18.0049ZM3.31342 18.4702C3.6054 18.7158 3.6181 18.7804 3.65618 21.1199L3.69427 23.524H2.93256C2.39937 23.524 2.15816 23.4723 2.15816 23.3559C2.15816 23.2784 1.99313 22.0763 1.79001 20.7063L1.43454 18.2246H2.23433C2.81831 18.2246 3.0976 18.2892 3.31342 18.4702ZM63.7293 19.9695V20.6804H62.993C62.1678 20.6804 61.952 20.5382 61.952 20.0212C61.952 19.5301 62.3709 19.2586 63.1199 19.2586H63.7293V19.9695Z" fill="#8FCBB4"/>
<path d="M10.4085 19.479C9.63412 19.7634 8.60582 20.8232 8.33922 21.6375C8.07262 22.4389 8.05993 23.5634 8.32653 24.3389C8.59312 25.1403 9.431 26.0838 10.2181 26.4457C11.1194 26.8723 12.5032 26.8723 13.3919 26.4457C14.1663 26.0709 14.8772 25.3342 15.22 24.5586C15.6008 23.7056 15.5881 22.2579 15.1819 21.3919C14.8264 20.5906 13.8997 19.7375 13.1126 19.4661C12.3763 19.2076 11.1575 19.2205 10.4085 19.479ZM12.6555 20.8232C13.0872 20.9913 13.6712 21.5341 13.9124 21.9994C14.1282 22.413 14.1409 23.5634 13.9504 23.9512C13.7346 24.3648 13.1887 24.9464 12.7952 25.1532C12.6048 25.2566 12.1604 25.3342 11.805 25.3342C10.4847 25.3342 9.51986 24.3389 9.51986 22.9947C9.51986 21.4049 11.1829 20.2545 12.6555 20.8232Z" fill="#8FCBB4"/>
<path d="M22.6971 2.32722C22.3924 2.50818 22.4051 3.19322 22.7606 6.73474C22.9383 8.49257 23.116 9.61707 23.2176 9.74632C23.3699 9.92727 24.4109 9.95312 34.1989 9.95312C42.438 9.95312 45.0531 9.91435 45.1674 9.79802C45.2563 9.70755 45.3197 9.46197 45.3197 9.24224C45.3197 8.90618 45.0151 8.57012 43.0727 6.72181C39.9116 3.6973 39.2261 3.23199 37.0679 2.5728C36.1412 2.28845 35.9381 2.27552 29.5144 2.23675C25.0203 2.2109 22.8368 2.23675 22.6971 2.32722ZM36.6236 3.92996C38.3375 4.44697 39.2896 5.09323 41.5112 7.23882L42.8442 8.51842L33.6149 8.53135H24.3983L24.3221 8.04019C24.284 7.78168 24.1951 6.88984 24.119 6.07555C24.0428 5.26126 23.9539 4.36941 23.9158 4.09798L23.8397 3.60682L29.8571 3.65852C35.1383 3.6973 35.9508 3.73608 36.6236 3.92996Z" fill="#8FCBB4"/>
<path d="M11.3749 2.6097C10.9814 3.23011 8.63281 8.94307 8.63281 9.27913C8.63281 9.48593 8.69629 9.70566 8.78515 9.79614C9.00097 10.0159 21.3406 10.0159 21.5564 9.79614C21.7722 9.57641 21.7341 8.61994 21.4041 5.46618C21.239 3.79882 21.0613 2.6614 20.9597 2.53215C20.8074 2.35119 20.2361 2.32534 16.1737 2.32534H11.5527L11.3749 2.6097ZM19.8045 3.70834C19.8045 3.77297 19.9187 4.88454 20.0584 6.20292C20.198 7.5213 20.3123 8.60702 20.3123 8.61994C20.3123 8.64579 18.0653 8.65872 15.3104 8.65872H10.3086L11.1972 6.5519C11.6796 5.40155 12.162 4.26413 12.2509 4.03148L12.4286 3.61787H16.1102C18.1414 3.61787 19.8045 3.65664 19.8045 3.70834Z" fill="#8FCBB4"/>
<path d="M55.8974 12.0185C55.1611 12.3934 54.8438 12.9621 54.8438 13.8539C54.8438 14.6941 55.1738 15.2886 55.8594 15.6505C56.5195 16.0124 58.3857 15.9995 59.0331 15.6247C59.998 15.0689 60.3534 13.673 59.7694 12.794C59.2236 11.9927 58.8808 11.8246 57.5986 11.7859C56.6084 11.7471 56.3545 11.7859 55.8974 12.0185ZM58.4238 13.4015C58.7031 13.66 58.7157 13.9961 58.4492 14.2675C58.2079 14.526 56.6211 14.5519 56.3925 14.3192C56.164 14.0866 56.2021 13.4791 56.4687 13.324C56.8369 13.1042 58.1572 13.1559 58.4238 13.4015Z" fill="#8FCBB4"/>
<path d="M25.7715 13.0569V13.7031H28.247H30.7226V13.0569V12.4106H28.247H25.7715V13.0569Z" fill="#8FCBB4"/>
<path d="M51.5413 19.479C50.7669 19.7634 49.7386 20.8232 49.472 21.6375C49.2054 22.4389 49.1927 23.5634 49.4593 24.3389C49.7259 25.1403 50.5638 26.0838 51.3509 26.4457C52.2523 26.8723 53.636 26.8723 54.5247 26.4457C55.2991 26.0709 56.01 25.3342 56.3528 24.5586C56.7336 23.7056 56.7209 22.2579 56.3147 21.3919C55.9592 20.5906 55.0325 19.7375 54.2454 19.4661C53.5091 19.2076 52.2903 19.2205 51.5413 19.479ZM53.7884 20.8232C54.22 20.9913 54.804 21.5341 55.0452 21.9994C55.261 22.413 55.2737 23.5634 55.0833 23.9512C54.8674 24.3648 54.3216 24.9464 53.928 25.1532C53.7376 25.2566 53.2933 25.3342 52.9378 25.3342C51.6175 25.3342 50.6527 24.3389 50.6527 22.9947C50.6527 21.4049 52.3157 20.2545 53.7884 20.8232Z" fill="#8FCBB4"/>
</svg>
