<svg width="18" height="18" viewBox="0 0 18 18" fill="none" xmlns="http://www.w3.org/2000/svg">
<path d="M8.69614 2.28785C8.6174 2.32577 8.11578 2.80989 7.14753 3.78106C5.61641 5.32092 5.64849 5.28301 5.64849 5.57173C5.64849 5.77005 5.71265 5.91296 5.86722 6.06752C6.02179 6.2221 6.16469 6.28626 6.36301 6.28626C6.63715 6.28626 6.6634 6.26584 7.50916 5.42883L8.30243 4.6414V8.54648C8.30243 12.2912 8.30534 12.4603 8.35784 12.5711C8.47449 12.8249 8.70781 12.9648 9.0082 12.9648C9.22401 12.9648 9.38442 12.8978 9.51857 12.7578C9.71397 12.5507 9.70231 12.8453 9.70231 8.54064V4.6414L10.4985 5.42883C11.3413 6.26584 11.3676 6.28626 11.6417 6.28626C11.84 6.28626 11.9829 6.2221 12.1375 6.06752C12.2921 5.91296 12.3562 5.77005 12.3562 5.57173C12.3562 5.28301 12.3883 5.32092 10.8572 3.78106C9.88896 2.80989 9.38733 2.32577 9.30859 2.28785C9.23276 2.25286 9.12777 2.23244 9.00237 2.23244C8.87696 2.23244 8.77197 2.25286 8.69614 2.28785Z" fill="#333333"/>
<path d="M2.62827 8.35397C2.47953 8.42105 2.30455 8.61354 2.26372 8.75644C2.24039 8.83518 2.23455 9.74219 2.24039 11.9003L2.24913 14.9334L2.33371 15.1084C2.44453 15.333 2.66618 15.5546 2.89075 15.6654L3.06573 15.75H9.00063H14.9355L15.1105 15.6654C15.3351 15.5546 15.5567 15.333 15.6676 15.1084L15.7521 14.9334L15.7609 11.9003C15.7667 9.74219 15.7609 8.83518 15.7375 8.75644C15.6967 8.61354 15.5217 8.42105 15.373 8.35397C15.2272 8.2869 14.9297 8.28106 14.781 8.34523C14.6381 8.40355 14.4893 8.54937 14.4222 8.69228C14.3698 8.8031 14.3668 8.94309 14.3668 11.5854V14.3647H9.00063H3.63443V11.5854C3.63443 8.94309 3.63151 8.8031 3.57902 8.69228C3.51194 8.54937 3.3632 8.40355 3.2203 8.34523C3.07156 8.28106 2.77409 8.2869 2.62827 8.35397Z" fill="#333333"/>
</svg>
