<svg width="24" height="24" viewBox="0 0 24 24" fill="none" xmlns="http://www.w3.org/2000/svg">
<mask id="path-1-inside-1_2493_72104" fill="white">
<path fill-rule="evenodd" clip-rule="evenodd" d="M11.625 1.50195C8.72775 1.50195 6.375 3.8547 6.375 6.75195C6.375 9.64995 8.72775 12.002 11.625 12.002C14.5223 12.002 16.875 9.64995 16.875 6.75195C16.875 3.8547 14.5223 1.50195 11.625 1.50195ZM11.625 3.00195C13.695 3.00195 15.375 4.6827 15.375 6.75195C15.375 8.82195 13.695 10.502 11.625 10.502C9.555 10.502 7.875 8.82195 7.875 6.75195C7.875 4.6827 9.555 3.00195 11.625 3.00195Z"/>
</mask>
<path fill-rule="evenodd" clip-rule="evenodd" d="M11.625 1.50195C8.72775 1.50195 6.375 3.8547 6.375 6.75195C6.375 9.64995 8.72775 12.002 11.625 12.002C14.5223 12.002 16.875 9.64995 16.875 6.75195C16.875 3.8547 14.5223 1.50195 11.625 1.50195ZM11.625 3.00195C13.695 3.00195 15.375 4.6827 15.375 6.75195C15.375 8.82195 13.695 10.502 11.625 10.502C9.555 10.502 7.875 8.82195 7.875 6.75195C7.875 4.6827 9.555 3.00195 11.625 3.00195Z" fill="#333333"/>
<path d="M11.625 -14.498C-0.108806 -14.498 -9.625 -4.98185 -9.625 6.75195H22.375C22.375 12.6913 17.5643 17.502 11.625 17.502V-14.498ZM-9.625 6.75195C-9.625 18.488 -0.10732 28.002 11.625 28.002V-3.99805C17.5628 -3.99805 22.375 0.811912 22.375 6.75195H-9.625ZM11.625 28.002C23.3573 28.002 32.875 18.488 32.875 6.75195H0.874999C0.874999 0.811915 5.68718 -3.99805 11.625 -3.99805V28.002ZM32.875 6.75195C32.875 -4.98185 23.3588 -14.498 11.625 -14.498V17.502C5.68569 17.502 0.874999 12.6913 0.874999 6.75195H32.875ZM11.625 19.002C4.85636 19.002 -0.625001 13.5172 -0.625001 6.75195H31.375C31.375 -4.15176 22.5336 -12.998 11.625 -12.998V19.002ZM-0.625001 6.75195C-0.625001 -0.0145988 4.85844 -5.49805 11.625 -5.49805V26.502C22.5316 26.502 31.375 17.6585 31.375 6.75195H-0.625001ZM11.625 -5.49805C18.3916 -5.49805 23.875 -0.0146029 23.875 6.75195H-8.125C-8.125 17.6585 0.718444 26.502 11.625 26.502V-5.49805ZM23.875 6.75195C23.875 13.5172 18.3936 19.002 11.625 19.002V-12.998C0.71636 -12.998 -8.125 -4.15177 -8.125 6.75195H23.875Z" fill="#333333" mask="url(#path-1-inside-1_2493_72104)"/>
<path fill-rule="evenodd" clip-rule="evenodd" d="M2.625 21.002H11.9992C12.4132 21.002 12.7492 21.338 12.7492 21.752C12.7492 22.166 12.4132 22.502 11.9992 22.502H1.875C1.461 22.502 1.125 22.166 1.125 21.752C1.125 21.752 1.125 21.134 1.125 20.252C1.125 16.5245 4.14675 13.502 7.875 13.502H11.9992C12.4132 13.502 12.7492 13.838 12.7492 14.252C12.7492 14.666 12.4132 15.002 11.9992 15.002H7.875C4.9755 15.002 2.625 17.3525 2.625 20.252V21.002Z" fill="#333333"/>
<path fill-rule="evenodd" clip-rule="evenodd" d="M18.0032 13.502C15.3129 13.502 13.1289 15.686 13.1289 18.3762C13.1289 21.0665 15.3129 23.2505 18.0032 23.2505C20.6934 23.2505 22.8774 21.0665 22.8774 18.3762C22.8774 15.686 20.6934 13.502 18.0032 13.502ZM18.0032 15.002C19.8654 15.002 21.3774 16.514 21.3774 18.3762C21.3774 20.2385 19.8654 21.7505 18.0032 21.7505C16.1409 21.7505 14.6289 20.2385 14.6289 18.3762C14.6289 16.514 16.1409 15.002 18.0032 15.002Z" fill="#333333"/>
<path fill-rule="evenodd" clip-rule="evenodd" d="M20.3827 14.9254L14.5514 20.7567C14.2589 21.0492 14.2589 21.5247 14.5514 21.8172C14.8439 22.1104 15.3194 22.1104 15.6119 21.8172L21.4432 15.9859C21.7364 15.6934 21.7364 15.2179 21.4432 14.9254C21.1507 14.6329 20.6752 14.6329 20.3827 14.9254Z" fill="#333333"/>
</svg>
