<svg width="51" height="38" viewBox="0 0 51 38" fill="none" xmlns="http://www.w3.org/2000/svg">
<g opacity="0.8">
<path d="M1.59912 0.302734C0.925293 0.634766 0.583496 0.996094 0.251465 1.70898L0.0170898 2.19727V15.625V29.0527L0.251465 29.541C0.583496 30.2539 0.925293 30.6152 1.59912 30.9473L2.19482 31.25H4.04053H5.87646V31.7188C5.87646 32.6074 6.28662 33.75 6.97021 34.7363L7.25342 35.1562H3.89404H0.534668L0.270996 35.4102C-0.090332 35.7812 -0.090332 36.4844 0.270996 36.8555L0.534668 37.1094H25.0171H49.4995L49.7632 36.8555C50.1245 36.4844 50.1245 35.7812 49.7632 35.4102C49.5093 35.1562 49.4897 35.1562 48.0933 35.1562H46.687L46.9702 34.7363C47.6538 33.75 48.064 32.5879 48.064 31.6602V31.1719L48.5913 30.8691C49.1675 30.5469 49.5093 30.166 49.812 29.4922C49.9976 29.082 50.0171 28.8574 50.0171 25.5762V22.0898L47.2729 16.6016C44.3237 10.6934 44.1675 10.4297 43.23 10L42.7417 9.76562H38.2788H33.8061V5.97656V2.17773L33.5034 1.58203C33.1714 0.908203 32.8101 0.566406 32.0972 0.234375L31.6089 0H16.9019H2.19482L1.59912 0.302734ZM30.9644 2.01172C31.1304 2.05078 31.3745 2.1875 31.5112 2.32422L31.7554 2.56836V15.9277V29.2969H24.5581H17.3511L16.9702 28.5352C16.2476 27.1289 14.7729 25.9375 13.2397 25.5371C12.5073 25.3516 10.9644 25.3516 10.2319 25.5371C8.68896 25.9375 7.1167 27.2168 6.4624 28.584L6.13037 29.2969H4.60693C2.33154 29.2969 2.0874 29.1699 1.98975 27.9785L1.94092 27.3438H3.6499H5.35889L5.62256 27.0898L5.87646 26.8262V24.4141V22.002L5.62256 21.7383L5.35889 21.4844H3.65967H1.97021L1.98975 12.0801C2.01904 3.30078 2.02881 2.65625 2.19482 2.41211C2.28271 2.27539 2.50732 2.10938 2.68311 2.06055C3.03467 1.96289 30.4565 1.91406 30.9644 2.01172ZM42.4976 11.9629C42.6147 12.0703 42.8882 12.5 43.0933 12.9102L43.4741 13.6719H39.8706H36.2769L36.0327 13.916C35.896 14.0527 35.7593 14.3262 35.7202 14.5312C35.6421 15 35.6421 22.1094 35.7202 22.5781C35.7593 22.7832 35.896 23.0566 36.0327 23.1934L36.2769 23.4375H42.1167H47.9663V26.0449C47.9565 28.1738 47.937 28.7012 47.8198 28.8477C47.6831 29.0332 47.6733 29.0332 47.6147 28.8477C47.439 28.3789 46.7358 27.4023 46.2183 26.9336C45.564 26.3281 44.5386 25.752 43.7085 25.5371C42.9761 25.3516 41.4331 25.3516 40.7007 25.5371C39.1675 25.9375 37.5854 27.2168 36.9311 28.584L36.5894 29.2969H35.2026H33.8061V20.5078V11.709L38.0444 11.7383C42.1265 11.7676 42.2925 11.7773 42.4976 11.9629ZM45.9155 18.5547L47.3804 21.4844H42.5464H37.7124V18.5547V15.625H41.0815H44.4507L45.9155 18.5547ZM3.82568 24.4141V25.3906H2.89795H1.97021V24.4141V23.4375H2.89795H3.82568V24.4141ZM13.2983 27.7441C14.0894 28.1152 14.7925 28.7988 15.1733 29.5703C15.4761 30.1758 15.4956 30.2832 15.4956 31.25C15.4956 32.1582 15.4663 32.334 15.2319 32.8418C14.8901 33.5645 14.0503 34.4043 13.3276 34.7461C12.8198 34.9805 12.644 35.0098 11.7358 35.0098C10.8276 35.0098 10.6519 34.9805 10.144 34.7461C9.42139 34.4043 8.58154 33.5645 8.23975 32.8418C8.00537 32.334 7.97607 32.1582 7.97607 31.25C7.97607 30.3418 8.00537 30.1562 8.22998 29.6777C8.6792 28.7207 9.49951 27.9688 10.4956 27.6172C11.2476 27.3535 12.5757 27.4121 13.2983 27.7441ZM43.7671 27.7441C44.5581 28.1152 45.2612 28.7988 45.6421 29.5703C45.9448 30.1758 45.9644 30.2832 45.9644 31.25C45.9644 32.1582 45.9351 32.334 45.7007 32.8418C45.3589 33.5547 44.5679 34.3555 43.8159 34.7266C43.2788 34.9805 43.1421 35.0098 42.2046 35.0098C41.2964 35.0098 41.1206 34.9805 40.6128 34.7461C39.8901 34.4043 39.0503 33.5645 38.7085 32.8418C38.4741 32.334 38.4448 32.1582 38.4448 31.25C38.4448 30.3418 38.4741 30.1562 38.6987 29.6777C39.1479 28.7207 39.9683 27.9688 40.9644 27.6172C41.7163 27.3535 43.0444 27.4121 43.7671 27.7441ZM36.3647 31.9531C36.4624 32.9492 36.7847 33.7891 37.439 34.7363L37.7222 35.1562H26.9702H16.2183L16.5015 34.7363C17.1753 33.7598 17.5952 32.5879 17.5952 31.6992V31.25L26.9507 31.2695L36.2964 31.2988L36.3647 31.9531Z" fill="#8FCBB4"/>
<path d="M10.0371 6.11328C9.83203 6.31836 9.7832 6.46484 9.7832 6.83594C9.7832 7.48047 10.1152 7.8125 10.7598 7.8125C11.4043 7.8125 11.7363 7.48047 11.7363 6.83594C11.7363 6.46484 11.6875 6.31836 11.4824 6.11328C11.2773 5.9082 11.1309 5.85938 10.7598 5.85938C10.3887 5.85938 10.2422 5.9082 10.0371 6.11328Z" fill="#A4D4C2"/>
<path d="M13.9434 6.11328C13.7383 6.31836 13.6895 6.46484 13.6895 6.83594C13.6895 7.20703 13.7383 7.35352 13.9434 7.55859L14.207 7.8125H20.8184H27.4297L27.6934 7.55859C27.8984 7.35352 27.9473 7.20703 27.9473 6.83594C27.9473 6.46484 27.8984 6.31836 27.6934 6.11328L27.4297 5.85938H20.8184H14.207L13.9434 6.11328Z" fill="#A4D4C2"/>
<path d="M17.8496 10.0195C17.6445 10.2246 17.5957 10.3711 17.5957 10.7422C17.5957 11.1133 17.6445 11.2598 17.8496 11.4648L18.1133 11.7188H22.7715H27.4297L27.6934 11.4648C28.0547 11.0938 28.0547 10.3906 27.6934 10.0195L27.4297 9.76562H22.7715H18.1133L17.8496 10.0195Z" fill="#A4D4C2"/>
<path d="M10.6914 29.5508C10.0859 29.9121 9.7832 30.4785 9.7832 31.25C9.7832 32.4512 10.5352 33.2031 11.7363 33.2031C12.9375 33.2031 13.6895 32.4512 13.6895 31.25C13.6895 30.0488 12.9375 29.2969 11.7266 29.2969C11.2285 29.2969 11.0137 29.3457 10.6914 29.5508Z" fill="#A4D4C2"/>
<path d="M41.1589 29.5508C39.9089 30.293 39.9089 32.2266 41.1687 32.959C41.491 33.1543 41.7156 33.2031 42.2039 33.2031C43.405 33.2031 44.157 32.4512 44.157 31.25C44.157 30.0488 43.405 29.2969 42.1941 29.2969C41.696 29.2969 41.4812 29.3457 41.1589 29.5508Z" fill="#A4D4C2"/>
</g>
</svg>
