<svg width="24" height="24" viewBox="0 0 24 24" fill="none" xmlns="http://www.w3.org/2000/svg">
<mask id="path-1-inside-1_2493_72110" fill="white">
<path fill-rule="evenodd" clip-rule="evenodd" d="M11.625 1.50195C8.72775 1.50195 6.375 3.8547 6.375 6.75195C6.375 9.64995 8.72775 12.002 11.625 12.002C14.5223 12.002 16.875 9.64995 16.875 6.75195C16.875 3.8547 14.5223 1.50195 11.625 1.50195ZM11.625 3.00195C13.695 3.00195 15.375 4.6827 15.375 6.75195C15.375 8.82195 13.695 10.502 11.625 10.502C9.555 10.502 7.875 8.82195 7.875 6.75195C7.875 4.6827 9.555 3.00195 11.625 3.00195Z"/>
</mask>
<path fill-rule="evenodd" clip-rule="evenodd" d="M11.625 1.50195C8.72775 1.50195 6.375 3.8547 6.375 6.75195C6.375 9.64995 8.72775 12.002 11.625 12.002C14.5223 12.002 16.875 9.64995 16.875 6.75195C16.875 3.8547 14.5223 1.50195 11.625 1.50195ZM11.625 3.00195C13.695 3.00195 15.375 4.6827 15.375 6.75195C15.375 8.82195 13.695 10.502 11.625 10.502C9.555 10.502 7.875 8.82195 7.875 6.75195C7.875 4.6827 9.555 3.00195 11.625 3.00195Z" fill="#333333"/>
<path d="M11.625 -14.498C-0.108806 -14.498 -9.625 -4.98185 -9.625 6.75195H22.375C22.375 12.6913 17.5643 17.502 11.625 17.502V-14.498ZM-9.625 6.75195C-9.625 18.488 -0.10732 28.002 11.625 28.002V-3.99805C17.5628 -3.99805 22.375 0.811912 22.375 6.75195H-9.625ZM11.625 28.002C23.3573 28.002 32.875 18.488 32.875 6.75195H0.874999C0.874999 0.811915 5.68718 -3.99805 11.625 -3.99805V28.002ZM32.875 6.75195C32.875 -4.98185 23.3588 -14.498 11.625 -14.498V17.502C5.68569 17.502 0.874999 12.6913 0.874999 6.75195H32.875ZM11.625 19.002C4.85636 19.002 -0.625001 13.5172 -0.625001 6.75195H31.375C31.375 -4.15176 22.5336 -12.998 11.625 -12.998V19.002ZM-0.625001 6.75195C-0.625001 -0.0145988 4.85844 -5.49805 11.625 -5.49805V26.502C22.5316 26.502 31.375 17.6585 31.375 6.75195H-0.625001ZM11.625 -5.49805C18.3916 -5.49805 23.875 -0.0146029 23.875 6.75195H-8.125C-8.125 17.6585 0.718444 26.502 11.625 26.502V-5.49805ZM23.875 6.75195C23.875 13.5172 18.3936 19.002 11.625 19.002V-12.998C0.71636 -12.998 -8.125 -4.15177 -8.125 6.75195H23.875Z" fill="#333333" mask="url(#path-1-inside-1_2493_72110)"/>
<path fill-rule="evenodd" clip-rule="evenodd" d="M2.625 21.002H11.9992C12.4132 21.002 12.7492 21.338 12.7492 21.752C12.7492 22.166 12.4132 22.502 11.9992 22.502H1.875C1.461 22.502 1.125 22.166 1.125 21.752C1.125 21.752 1.125 21.134 1.125 20.252C1.125 16.5245 4.14675 13.502 7.875 13.502H11.9992C12.4132 13.502 12.7492 13.838 12.7492 14.252C12.7492 14.666 12.4132 15.002 11.9992 15.002H7.875C4.9755 15.002 2.625 17.3525 2.625 20.252V21.002Z" fill="#333333"/>
<path d="M17.5 20.3V18.5M17.5 16.7H17.5045M13 16.9352V20.0648C13 20.1748 13 20.2299 13.0124 20.2817C13.0235 20.3276 13.0416 20.3715 13.0663 20.4117C13.0941 20.4571 13.1331 20.4961 13.2109 20.5739L15.4261 22.7891C15.5039 22.8669 15.5429 22.9059 15.5883 22.9337C15.6285 22.9584 15.6724 22.9765 15.7183 22.9876C15.7701 23 15.8252 23 15.9352 23H19.0648C19.1748 23 19.2299 23 19.2817 22.9876C19.3276 22.9765 19.3715 22.9584 19.4117 22.9337C19.4571 22.9059 19.4961 22.8669 19.5739 22.7891L21.7891 20.5739C21.8669 20.4961 21.9059 20.4571 21.9337 20.4117C21.9584 20.3715 21.9765 20.3276 21.9876 20.2817C22 20.2299 22 20.1748 22 20.0648V16.9352C22 16.8252 22 16.7701 21.9876 16.7183C21.9765 16.6724 21.9584 16.6285 21.9337 16.5883C21.9059 16.5429 21.8669 16.5039 21.7891 16.4261L19.5739 14.2109C19.4961 14.1331 19.4571 14.0941 19.4117 14.0663C19.3715 14.0416 19.3276 14.0235 19.2817 14.0124C19.2299 14 19.1748 14 19.0648 14H15.9352C15.8252 14 15.7701 14 15.7183 14.0124C15.6724 14.0235 15.6285 14.0416 15.5883 14.0663C15.5429 14.0941 15.5039 14.1331 15.4261 14.2109L13.2109 16.4261C13.1331 16.5039 13.0941 16.5429 13.0663 16.5883C13.0416 16.6285 13.0235 16.6724 13.0124 16.7183C13 16.7701 13 16.8252 13 16.9352Z" stroke="#333333" stroke-width="1.4" stroke-linecap="round" stroke-linejoin="round"/>
</svg>
