<svg width="16" height="16" viewBox="0 0 16 16" fill="none" xmlns="http://www.w3.org/2000/svg">
<path d="M7.53887 12.7987L7.53779 12.7977C5.80638 11.2277 4.42974 9.97574 3.47718 8.81035C2.53287 7.65505 2.08398 6.67677 2.08398 5.66667C2.08398 4.02177 3.36064 2.75 5.00065 2.75C5.93392 2.75 6.84208 3.18834 7.43152 3.87513L8.00065 4.53824L8.56978 3.87513C9.15922 3.18834 10.0674 2.75 11.0007 2.75C12.6407 2.75 13.9173 4.02177 13.9173 5.66667C13.9173 6.67677 13.4684 7.65505 12.5241 8.81035C11.5716 9.97574 10.1949 11.2277 8.46351 12.7977L8.46243 12.7987L8.00065 13.2191L7.53887 12.7987Z" stroke="#737373" stroke-width="1.5"/>
</svg>
