<svg width="22" height="22" viewBox="0 0 22 22" fill="none" xmlns="http://www.w3.org/2000/svg">
<g clip-path="url(#clip0_2493_71871)">
<path d="M17.8421 7.09438L8.20177 2.28989C1.71074 -0.929065 -0.941795 1.70827 2.30372 8.15414L3.73816 10.9986L2.30369 13.843C-0.941826 20.2889 1.7187 22.9342 8.20172 19.7073L17.8421 14.9187C22.1615 12.7594 22.1695 9.24566 17.8421 7.09438ZM11.7706 11.636L8.68916 11.6519C8.44875 11.6519 8.2404 11.5563 8.08814 11.4049C7.93588 11.2535 7.83972 11.0464 7.83972 10.8073C7.83972 10.3452 8.22437 9.96277 8.68916 9.96277L11.7706 9.94681C12.2354 9.94681 12.62 10.3293 12.62 10.7914C12.62 11.2535 12.2354 11.636 11.7706 11.636Z" fill="#333333"/>
</g>
<defs>
<clipPath id="clip0_2493_71871">
<rect width="22" height="22" fill="white"/>
</clipPath>
</defs>
</svg>
