<svg width="382" height="114" viewBox="0 0 382 114" fill="none" xmlns="http://www.w3.org/2000/svg">
<rect width="382" height="114" rx="4" fill="white"/>
<mask id="mask0_2493_64409" style="mask-type:alpha" maskUnits="userSpaceOnUse" x="0" y="0" width="382" height="114">
<rect width="382" height="114" rx="4" fill="white"/>
</mask>
<g mask="url(#mask0_2493_64409)">
<rect x="469.336" y="17.0352" width="320.61" height="218.032" transform="rotate(120.427 469.336 17.0352)" fill="#E1F2EE"/>
</g>
<path d="M243.777 26.8162C243.719 26.4734 243.426 26.2227 243.082 26.2227H227.225C226.768 26.2227 226.398 26.5975 226.398 27.0591C226.398 27.5215 226.768 27.8959 227.225 27.8959H231.084C231.541 27.8959 231.911 28.2708 231.911 28.7328C231.911 29.1948 231.541 29.5697 231.084 29.5697H225.925C225.468 29.5697 225.098 29.9445 225.098 30.4065C225.098 30.8685 225.468 31.2428 225.925 31.2428H232.957C233.361 31.2428 233.688 31.5746 233.688 31.983C233.688 32.3913 233.361 32.7226 232.957 32.7226H229.221C228.764 32.7226 228.394 33.0975 228.394 33.5595C228.394 34.0214 228.764 34.3963 229.221 34.3963H231.975C232.378 34.3963 232.706 34.7276 232.706 35.1359C232.706 35.5442 232.378 35.8755 231.975 35.8755H228.173C227.716 35.8755 227.346 36.2504 227.346 36.7124C227.346 37.1744 227.716 37.5492 228.173 37.5492H233.398L233.728 39.4355H235.62C235.509 39.7091 235.446 40.0079 235.446 40.3225C235.446 41.6134 236.48 42.6597 237.755 42.6597C239.031 42.6597 240.065 41.6134 240.065 40.3225C240.065 40.0079 240.001 39.7091 239.89 39.4355H245.897L243.777 26.8162ZM238.749 40.3224C238.749 40.8782 238.305 41.3283 237.755 41.3283C237.206 41.3283 236.761 40.8782 236.761 40.3224C236.761 39.9357 236.979 39.604 237.295 39.4354H238.215C238.531 39.604 238.749 39.9357 238.749 40.3224Z" fill="#333333"/>
<path d="M255.818 37.9692L254.869 33.2332L251.405 27.8398H245.098L247.051 39.4348H249.358C249.248 39.7084 249.184 40.0072 249.184 40.3218C249.184 41.6127 250.218 42.659 251.493 42.659C252.769 42.659 253.803 41.6127 253.803 40.3218C253.803 40.0072 253.739 39.7084 253.628 39.4348H254.634C254.996 39.4348 255.34 39.2702 255.569 38.986C255.798 38.7022 255.89 38.3287 255.818 37.9692ZM248.668 29.9976H250.248L252.299 33.1905H249.206L248.668 29.9976ZM252.488 40.3218C252.488 40.8775 252.043 41.3276 251.493 41.3276C250.945 41.3276 250.499 40.8775 250.499 40.3218C250.499 39.9351 250.718 39.6033 251.033 39.4348H251.954C252.27 39.6033 252.488 39.935 252.488 40.3218Z" fill="#333333"/>
<path d="M229.134 57.185C230.392 57.185 231.491 57.4287 232.432 57.916C233.384 58.392 234.115 59.0833 234.625 59.99C235.146 60.8853 235.407 61.9337 235.407 63.135C235.407 64.3363 235.146 65.379 234.625 66.263C234.115 67.147 233.384 67.827 232.432 68.303C231.491 68.7677 230.392 69 229.134 69H225.275V57.185H229.134ZM229.134 67.419C230.517 67.419 231.576 67.045 232.313 66.297C233.05 65.549 233.418 64.495 233.418 63.135C233.418 61.7637 233.05 60.6927 232.313 59.922C231.576 59.1513 230.517 58.766 229.134 58.766H227.213V67.419H229.134ZM241.391 69.153C240.507 69.153 239.708 68.9547 238.994 68.558C238.28 68.15 237.719 67.5833 237.311 66.858C236.903 66.1213 236.699 65.2713 236.699 64.308C236.699 63.356 236.908 62.5117 237.328 61.775C237.747 61.0383 238.319 60.4717 239.045 60.075C239.77 59.6783 240.58 59.48 241.476 59.48C242.371 59.48 243.181 59.6783 243.907 60.075C244.632 60.4717 245.204 61.0383 245.624 61.775C246.043 62.5117 246.253 63.356 246.253 64.308C246.253 65.26 246.037 66.1043 245.607 66.841C245.176 67.5777 244.587 68.15 243.839 68.558C243.102 68.9547 242.286 69.153 241.391 69.153ZM241.391 67.47C241.889 67.47 242.354 67.351 242.785 67.113C243.227 66.875 243.584 66.518 243.856 66.042C244.128 65.566 244.264 64.988 244.264 64.308C244.264 63.628 244.133 63.0557 243.873 62.591C243.612 62.115 243.266 61.758 242.836 61.52C242.405 61.282 241.94 61.163 241.442 61.163C240.943 61.163 240.478 61.282 240.048 61.52C239.628 61.758 239.294 62.115 239.045 62.591C238.795 63.0557 238.671 63.628 238.671 64.308C238.671 65.3167 238.926 66.0987 239.436 66.654C239.957 67.198 240.609 67.47 241.391 67.47ZM252.232 69.153C251.348 69.153 250.549 68.9547 249.835 68.558C249.121 68.15 248.56 67.5833 248.152 66.858C247.744 66.1213 247.54 65.2713 247.54 64.308C247.54 63.356 247.749 62.5117 248.169 61.775C248.588 61.0383 249.16 60.4717 249.886 60.075C250.611 59.6783 251.421 59.48 252.317 59.48C253.212 59.48 254.022 59.6783 254.748 60.075C255.473 60.4717 256.045 61.0383 256.465 61.775C256.884 62.5117 257.094 63.356 257.094 64.308C257.094 65.26 256.878 66.1043 256.448 66.841C256.017 67.5777 255.428 68.15 254.68 68.558C253.943 68.9547 253.127 69.153 252.232 69.153ZM252.232 67.47C252.73 67.47 253.195 67.351 253.626 67.113C254.068 66.875 254.425 66.518 254.697 66.042C254.969 65.566 255.105 64.988 255.105 64.308C255.105 63.628 254.974 63.0557 254.714 62.591C254.453 62.115 254.107 61.758 253.677 61.52C253.246 61.282 252.781 61.163 252.283 61.163C251.784 61.163 251.319 61.282 250.889 61.52C250.469 61.758 250.135 62.115 249.886 62.591C249.636 63.0557 249.512 63.628 249.512 64.308C249.512 65.3167 249.767 66.0987 250.277 66.654C250.798 67.198 251.45 67.47 252.232 67.47ZM260.947 60.993C261.231 60.517 261.605 60.1487 262.069 59.888C262.545 59.616 263.106 59.48 263.752 59.48V61.486H263.259C262.5 61.486 261.922 61.6787 261.525 62.064C261.14 62.4493 260.947 63.118 260.947 64.07V69H259.009V59.633H260.947V60.993ZM272.211 61.214V66.399C272.211 66.7503 272.29 67.0053 272.449 67.164C272.619 67.3113 272.902 67.385 273.299 67.385H274.489V69H272.959C272.086 69 271.417 68.796 270.953 68.388C270.488 67.98 270.256 67.317 270.256 66.399V61.214H269.151V59.633H270.256V57.304H272.211V59.633H274.489V61.214H272.211ZM280.338 69.153C279.454 69.153 278.655 68.9547 277.941 68.558C277.227 68.15 276.666 67.5833 276.258 66.858C275.85 66.1213 275.646 65.2713 275.646 64.308C275.646 63.356 275.856 62.5117 276.275 61.775C276.694 61.0383 277.267 60.4717 277.992 60.075C278.717 59.6783 279.528 59.48 280.423 59.48C281.318 59.48 282.129 59.6783 282.854 60.075C283.579 60.4717 284.152 61.0383 284.571 61.775C284.99 62.5117 285.2 63.356 285.2 64.308C285.2 65.26 284.985 66.1043 284.554 66.841C284.123 67.5777 283.534 68.15 282.786 68.558C282.049 68.9547 281.233 69.153 280.338 69.153ZM280.338 67.47C280.837 67.47 281.301 67.351 281.732 67.113C282.174 66.875 282.531 66.518 282.803 66.042C283.075 65.566 283.211 64.988 283.211 64.308C283.211 63.628 283.081 63.0557 282.82 62.591C282.559 62.115 282.214 61.758 281.783 61.52C281.352 61.282 280.888 61.163 280.389 61.163C279.89 61.163 279.426 61.282 278.995 61.52C278.576 61.758 278.241 62.115 277.992 62.591C277.743 63.0557 277.618 63.628 277.618 64.308C277.618 65.3167 277.873 66.0987 278.383 66.654C278.904 67.198 279.556 67.47 280.338 67.47ZM290.886 64.274C290.886 63.3333 291.079 62.5003 291.464 61.775C291.861 61.0497 292.393 60.4887 293.062 60.092C293.742 59.684 294.496 59.48 295.323 59.48C295.935 59.48 296.536 59.616 297.125 59.888C297.726 60.1487 298.202 60.5 298.553 60.942V56.42H300.508V69H298.553V67.589C298.236 68.0423 297.794 68.4163 297.227 68.711C296.672 69.0057 296.031 69.153 295.306 69.153C294.49 69.153 293.742 68.949 293.062 68.541C292.393 68.1217 291.861 67.5437 291.464 66.807C291.079 66.059 290.886 65.2147 290.886 64.274ZM298.553 64.308C298.553 63.662 298.417 63.101 298.145 62.625C297.884 62.149 297.539 61.7863 297.108 61.537C296.677 61.2877 296.213 61.163 295.714 61.163C295.215 61.163 294.751 61.2877 294.32 61.537C293.889 61.775 293.538 62.132 293.266 62.608C293.005 63.0727 292.875 63.628 292.875 64.274C292.875 64.92 293.005 65.4867 293.266 65.974C293.538 66.4613 293.889 66.8353 294.32 67.096C294.762 67.3453 295.227 67.47 295.714 67.47C296.213 67.47 296.677 67.3453 297.108 67.096C297.539 66.8467 297.884 66.484 298.145 66.008C298.417 65.5207 298.553 64.954 298.553 64.308ZM307.116 69.153C306.232 69.153 305.433 68.9547 304.719 68.558C304.005 68.15 303.444 67.5833 303.036 66.858C302.628 66.1213 302.424 65.2713 302.424 64.308C302.424 63.356 302.634 62.5117 303.053 61.775C303.473 61.0383 304.045 60.4717 304.77 60.075C305.496 59.6783 306.306 59.48 307.201 59.48C308.097 59.48 308.907 59.6783 309.632 60.075C310.358 60.4717 310.93 61.0383 311.349 61.775C311.769 62.5117 311.978 63.356 311.978 64.308C311.978 65.26 311.763 66.1043 311.332 66.841C310.902 67.5777 310.312 68.15 309.564 68.558C308.828 68.9547 308.012 69.153 307.116 69.153ZM307.116 67.47C307.615 67.47 308.08 67.351 308.51 67.113C308.952 66.875 309.309 66.518 309.581 66.042C309.853 65.566 309.989 64.988 309.989 64.308C309.989 63.628 309.859 63.0557 309.598 62.591C309.338 62.115 308.992 61.758 308.561 61.52C308.131 61.282 307.666 61.163 307.167 61.163C306.669 61.163 306.204 61.282 305.773 61.52C305.354 61.758 305.02 62.115 304.77 62.591C304.521 63.0557 304.396 63.628 304.396 64.308C304.396 65.3167 304.651 66.0987 305.161 66.654C305.683 67.198 306.334 67.47 307.116 67.47ZM317.957 69.153C317.073 69.153 316.274 68.9547 315.56 68.558C314.846 68.15 314.285 67.5833 313.877 66.858C313.469 66.1213 313.265 65.2713 313.265 64.308C313.265 63.356 313.475 62.5117 313.894 61.775C314.313 61.0383 314.886 60.4717 315.611 60.075C316.336 59.6783 317.147 59.48 318.042 59.48C318.937 59.48 319.748 59.6783 320.473 60.075C321.198 60.4717 321.771 61.0383 322.19 61.775C322.609 62.5117 322.819 63.356 322.819 64.308C322.819 65.26 322.604 66.1043 322.173 66.841C321.742 67.5777 321.153 68.15 320.405 68.558C319.668 68.9547 318.852 69.153 317.957 69.153ZM317.957 67.47C318.456 67.47 318.92 67.351 319.351 67.113C319.793 66.875 320.15 66.518 320.422 66.042C320.694 65.566 320.83 64.988 320.83 64.308C320.83 63.628 320.7 63.0557 320.439 62.591C320.178 62.115 319.833 61.758 319.402 61.52C318.971 61.282 318.507 61.163 318.008 61.163C317.509 61.163 317.045 61.282 316.614 61.52C316.195 61.758 315.86 62.115 315.611 62.591C315.362 63.0557 315.237 63.628 315.237 64.308C315.237 65.3167 315.492 66.0987 316.002 66.654C316.523 67.198 317.175 67.47 317.957 67.47ZM326.673 60.993C326.956 60.517 327.33 60.1487 327.795 59.888C328.271 59.616 328.832 59.48 329.478 59.48V61.486H328.985C328.226 61.486 327.648 61.6787 327.251 62.064C326.866 62.4493 326.673 63.118 326.673 64.07V69H324.735V59.633H326.673V60.993Z" fill="#333333"/>
<path d="M227.528 78.636C228.44 78.636 229.228 78.808 229.892 79.152C230.564 79.488 231.076 79.972 231.428 80.604C231.788 81.236 231.968 81.98 231.968 82.836C231.968 83.692 231.788 84.436 231.428 85.068C231.076 85.692 230.564 86.172 229.892 86.508C229.228 86.836 228.44 87 227.528 87H224.924V78.636H227.528ZM227.528 86.1C228.608 86.1 229.432 85.816 230 85.248C230.568 84.672 230.852 83.868 230.852 82.836C230.852 81.796 230.564 80.984 229.988 80.4C229.42 79.816 228.6 79.524 227.528 79.524H226.016V86.1H227.528ZM239.408 83.46C239.408 83.668 239.396 83.888 239.372 84.12H234.116C234.156 84.768 234.376 85.276 234.776 85.644C235.184 86.004 235.676 86.184 236.252 86.184C236.724 86.184 237.116 86.076 237.428 85.86C237.748 85.636 237.972 85.34 238.1 84.972H239.276C239.1 85.604 238.748 86.12 238.22 86.52C237.692 86.912 237.036 87.108 236.252 87.108C235.628 87.108 235.068 86.968 234.572 86.688C234.084 86.408 233.7 86.012 233.42 85.5C233.14 84.98 233 84.38 233 83.7C233 83.02 233.136 82.424 233.408 81.912C233.68 81.4 234.06 81.008 234.548 80.736C235.044 80.456 235.612 80.316 236.252 80.316C236.876 80.316 237.428 80.452 237.908 80.724C238.388 80.996 238.756 81.372 239.012 81.852C239.276 82.324 239.408 82.86 239.408 83.46ZM238.28 83.232C238.28 82.816 238.188 82.46 238.004 82.164C237.82 81.86 237.568 81.632 237.248 81.48C236.936 81.32 236.588 81.24 236.204 81.24C235.652 81.24 235.18 81.416 234.788 81.768C234.404 82.12 234.184 82.608 234.128 83.232H238.28ZM241.942 78.12V87H240.85V78.12H241.942ZM244.367 79.356C244.159 79.356 243.983 79.284 243.839 79.14C243.695 78.996 243.623 78.82 243.623 78.612C243.623 78.404 243.695 78.228 243.839 78.084C243.983 77.94 244.159 77.868 244.367 77.868C244.567 77.868 244.735 77.94 244.871 78.084C245.015 78.228 245.087 78.404 245.087 78.612C245.087 78.82 245.015 78.996 244.871 79.14C244.735 79.284 244.567 79.356 244.367 79.356ZM244.895 80.424V87H243.803V80.424H244.895ZM249.204 85.992L251.244 80.424H252.408L249.828 87H248.556L245.976 80.424H247.152L249.204 85.992ZM259.483 83.46C259.483 83.668 259.471 83.888 259.447 84.12H254.191C254.231 84.768 254.451 85.276 254.851 85.644C255.259 86.004 255.751 86.184 256.327 86.184C256.799 86.184 257.191 86.076 257.503 85.86C257.823 85.636 258.047 85.34 258.175 84.972H259.351C259.175 85.604 258.823 86.12 258.295 86.52C257.767 86.912 257.111 87.108 256.327 87.108C255.703 87.108 255.143 86.968 254.647 86.688C254.159 86.408 253.775 86.012 253.495 85.5C253.215 84.98 253.075 84.38 253.075 83.7C253.075 83.02 253.211 82.424 253.483 81.912C253.755 81.4 254.135 81.008 254.623 80.736C255.119 80.456 255.687 80.316 256.327 80.316C256.951 80.316 257.503 80.452 257.983 80.724C258.463 80.996 258.831 81.372 259.087 81.852C259.351 82.324 259.483 82.86 259.483 83.46ZM258.355 83.232C258.355 82.816 258.263 82.46 258.079 82.164C257.895 81.86 257.643 81.632 257.323 81.48C257.011 81.32 256.663 81.24 256.279 81.24C255.727 81.24 255.255 81.416 254.863 81.768C254.479 82.12 254.259 82.608 254.203 83.232H258.355ZM262.016 81.492C262.208 81.116 262.48 80.824 262.832 80.616C263.192 80.408 263.628 80.304 264.14 80.304V81.432H263.852C262.628 81.432 262.016 82.096 262.016 83.424V87H260.924V80.424H262.016V81.492ZM271.065 80.424L267.105 90.096H265.977L267.273 86.928L264.621 80.424H265.833L267.897 85.752L269.937 80.424H271.065Z" fill="#333333"/>
<path d="M23.044 58.118C23.116 57.002 23.542 56.132 24.322 55.508C25.114 54.884 26.122 54.572 27.346 54.572C28.186 54.572 28.912 54.722 29.524 55.022C30.136 55.322 30.598 55.73 30.91 56.246C31.222 56.762 31.378 57.344 31.378 57.992C31.378 58.736 31.18 59.372 30.784 59.9C30.388 60.428 29.914 60.782 29.362 60.962V61.034C30.07 61.25 30.622 61.646 31.018 62.222C31.414 62.786 31.612 63.512 31.612 64.4C31.612 65.108 31.45 65.738 31.126 66.29C30.802 66.842 30.322 67.28 29.686 67.604C29.05 67.916 28.288 68.072 27.4 68.072C26.104 68.072 25.036 67.742 24.196 67.082C23.368 66.41 22.924 65.45 22.864 64.202H24.844C24.892 64.838 25.138 65.36 25.582 65.768C26.026 66.164 26.626 66.362 27.382 66.362C28.114 66.362 28.678 66.164 29.074 65.768C29.47 65.36 29.668 64.838 29.668 64.202C29.668 63.362 29.398 62.768 28.858 62.42C28.33 62.06 27.514 61.88 26.41 61.88H25.942V60.188H26.428C27.4 60.176 28.138 60.014 28.642 59.702C29.158 59.39 29.416 58.898 29.416 58.226C29.416 57.65 29.23 57.194 28.858 56.858C28.486 56.51 27.958 56.336 27.274 56.336C26.602 56.336 26.08 56.51 25.708 56.858C25.336 57.194 25.114 57.614 25.042 58.118H23.044ZM38.2855 62.978L41.4895 68H39.1675L37.0255 64.634L35.0095 68H32.8675L36.0715 63.122L32.8675 58.082H35.1895L37.3315 61.448L39.3475 58.082H41.4895L38.2855 62.978ZM49.7477 59.54C50.0957 59.084 50.5697 58.7 51.1697 58.388C51.7697 58.076 52.4477 57.92 53.2037 57.92C54.0677 57.92 54.8537 58.136 55.5617 58.568C56.2817 58.988 56.8457 59.582 57.2537 60.35C57.6617 61.118 57.8657 62 57.8657 62.996C57.8657 63.992 57.6617 64.886 57.2537 65.678C56.8457 66.458 56.2817 67.07 55.5617 67.514C54.8537 67.946 54.0677 68.162 53.2037 68.162C52.4477 68.162 51.7757 68.012 51.1877 67.712C50.5997 67.4 50.1197 67.016 49.7477 66.56V72.716H47.6957V58.082H49.7477V59.54ZM55.7777 62.996C55.7777 62.312 55.6337 61.724 55.3457 61.232C55.0697 60.728 54.6977 60.35 54.2297 60.098C53.7737 59.834 53.2817 59.702 52.7537 59.702C52.2377 59.702 51.7457 59.834 51.2777 60.098C50.8217 60.362 50.4497 60.746 50.1617 61.25C49.8857 61.754 49.7477 62.348 49.7477 63.032C49.7477 63.716 49.8857 64.316 50.1617 64.832C50.4497 65.336 50.8217 65.72 51.2777 65.984C51.7457 66.248 52.2377 66.38 52.7537 66.38C53.2817 66.38 53.7737 66.248 54.2297 65.984C54.6977 65.708 55.0697 65.312 55.3457 64.796C55.6337 64.28 55.7777 63.68 55.7777 62.996ZM59.2109 62.996C59.2109 62 59.4149 61.118 59.8229 60.35C60.2429 59.582 60.8069 58.988 61.5149 58.568C62.2349 58.136 63.0269 57.92 63.8909 57.92C64.6709 57.92 65.3489 58.076 65.9249 58.388C66.5129 58.688 66.9809 59.066 67.3289 59.522V58.082H69.3989V68H67.3289V66.524C66.9809 66.992 66.5069 67.382 65.9069 67.694C65.3069 68.006 64.6229 68.162 63.8549 68.162C63.0029 68.162 62.2229 67.946 61.5149 67.514C60.8069 67.07 60.2429 66.458 59.8229 65.678C59.4149 64.886 59.2109 63.992 59.2109 62.996ZM67.3289 63.032C67.3289 62.348 67.1849 61.754 66.8969 61.25C66.6209 60.746 66.2549 60.362 65.7989 60.098C65.3429 59.834 64.8509 59.702 64.3229 59.702C63.7949 59.702 63.3029 59.834 62.8469 60.098C62.3909 60.35 62.0189 60.728 61.7309 61.232C61.4549 61.724 61.3169 62.312 61.3169 62.996C61.3169 63.68 61.4549 64.28 61.7309 64.796C62.0189 65.312 62.3909 65.708 62.8469 65.984C63.3149 66.248 63.8069 66.38 64.3229 66.38C64.8509 66.38 65.3429 66.248 65.7989 65.984C66.2549 65.72 66.6209 65.336 66.8969 64.832C67.1849 64.316 67.3289 63.716 67.3289 63.032ZM81.0221 58.082L74.9381 72.662H72.8141L74.8301 67.838L70.9241 58.082H73.2101L76.0001 65.642L78.8981 58.082H81.0221ZM94.5767 57.92C95.3567 57.92 96.0527 58.082 96.6647 58.406C97.2887 58.73 97.7747 59.21 98.1227 59.846C98.4827 60.482 98.6627 61.25 98.6627 62.15V68H96.6287V62.456C96.6287 61.568 96.4067 60.89 95.9627 60.422C95.5187 59.942 94.9127 59.702 94.1447 59.702C93.3767 59.702 92.7647 59.942 92.3087 60.422C91.8647 60.89 91.6427 61.568 91.6427 62.456V68H89.6087V62.456C89.6087 61.568 89.3867 60.89 88.9427 60.422C88.4987 59.942 87.8927 59.702 87.1247 59.702C86.3567 59.702 85.7447 59.942 85.2887 60.422C84.8447 60.89 84.6227 61.568 84.6227 62.456V68H82.5707V58.082H84.6227V59.216C84.9587 58.808 85.3847 58.49 85.9007 58.262C86.4167 58.034 86.9687 57.92 87.5567 57.92C88.3487 57.92 89.0567 58.088 89.6807 58.424C90.3047 58.76 90.7847 59.246 91.1207 59.882C91.4207 59.282 91.8887 58.808 92.5247 58.46C93.1607 58.1 93.8447 57.92 94.5767 57.92ZM110.364 62.798C110.364 63.17 110.34 63.506 110.292 63.806H102.714C102.774 64.598 103.068 65.234 103.596 65.714C104.124 66.194 104.772 66.434 105.54 66.434C106.644 66.434 107.424 65.972 107.88 65.048H110.094C109.794 65.96 109.248 66.71 108.456 67.298C107.676 67.874 106.704 68.162 105.54 68.162C104.592 68.162 103.74 67.952 102.984 67.532C102.24 67.1 101.652 66.5 101.22 65.732C100.8 64.952 100.59 64.052 100.59 63.032C100.59 62.012 100.794 61.118 101.202 60.35C101.622 59.57 102.204 58.97 102.948 58.55C103.704 58.13 104.568 57.92 105.54 57.92C106.476 57.92 107.31 58.124 108.042 58.532C108.774 58.94 109.344 59.516 109.752 60.26C110.16 60.992 110.364 61.838 110.364 62.798ZM108.222 62.15C108.21 61.394 107.94 60.788 107.412 60.332C106.884 59.876 106.23 59.648 105.45 59.648C104.742 59.648 104.136 59.876 103.632 60.332C103.128 60.776 102.828 61.382 102.732 62.15H108.222ZM117.387 57.92C118.167 57.92 118.863 58.082 119.475 58.406C120.099 58.73 120.585 59.21 120.933 59.846C121.281 60.482 121.455 61.25 121.455 62.15V68H119.421V62.456C119.421 61.568 119.199 60.89 118.755 60.422C118.311 59.942 117.705 59.702 116.937 59.702C116.169 59.702 115.557 59.942 115.101 60.422C114.657 60.89 114.435 61.568 114.435 62.456V68H112.383V58.082H114.435V59.216C114.771 58.808 115.197 58.49 115.713 58.262C116.241 58.034 116.799 57.92 117.387 57.92ZM126.467 59.756V65.246C126.467 65.618 126.551 65.888 126.719 66.056C126.899 66.212 127.199 66.29 127.619 66.29H128.879V68H127.259C126.335 68 125.627 67.784 125.135 67.352C124.643 66.92 124.397 66.218 124.397 65.246V59.756H123.227V58.082H124.397V55.616H126.467V58.082H128.879V59.756H126.467ZM148.766 58.082L145.688 68H143.528L141.53 60.674L139.532 68H137.372L134.276 58.082H136.364L138.434 66.056L140.54 58.082H142.682L144.698 66.02L146.75 58.082H148.766ZM151.343 56.768C150.971 56.768 150.659 56.642 150.407 56.39C150.155 56.138 150.029 55.826 150.029 55.454C150.029 55.082 150.155 54.77 150.407 54.518C150.659 54.266 150.971 54.14 151.343 54.14C151.703 54.14 152.009 54.266 152.261 54.518C152.513 54.77 152.639 55.082 152.639 55.454C152.639 55.826 152.513 56.138 152.261 56.39C152.009 56.642 151.703 56.768 151.343 56.768ZM152.351 58.082V68H150.299V58.082H152.351ZM157.439 59.756V65.246C157.439 65.618 157.523 65.888 157.691 66.056C157.871 66.212 158.171 66.29 158.591 66.29H159.851V68H158.231C157.307 68 156.599 67.784 156.107 67.352C155.615 66.92 155.369 66.218 155.369 65.246V59.756H154.199V58.082H155.369V55.616H157.439V58.082H159.851V59.756H157.439ZM166.873 57.92C167.629 57.92 168.301 58.082 168.889 58.406C169.489 58.73 169.957 59.21 170.293 59.846C170.641 60.482 170.815 61.25 170.815 62.15V68H168.781V62.456C168.781 61.568 168.559 60.89 168.115 60.422C167.671 59.942 167.065 59.702 166.297 59.702C165.529 59.702 164.917 59.942 164.461 60.422C164.017 60.89 163.795 61.568 163.795 62.456V68H161.743V54.68H163.795V59.234C164.143 58.814 164.581 58.49 165.109 58.262C165.649 58.034 166.237 57.92 166.873 57.92Z" fill="#333333"/>
<path d="M41.36 86.235C40.73 86.235 40.165 86.13 39.665 85.92C39.165 85.7 38.77 85.4 38.48 85.02C38.19 84.63 38.03 84.185 38 83.685H39.41C39.45 84.095 39.64 84.43 39.98 84.69C40.33 84.95 40.785 85.08 41.345 85.08C41.865 85.08 42.275 84.965 42.575 84.735C42.875 84.505 43.025 84.215 43.025 83.865C43.025 83.505 42.865 83.24 42.545 83.07C42.225 82.89 41.73 82.715 41.06 82.545C40.45 82.385 39.95 82.225 39.56 82.065C39.18 81.895 38.85 81.65 38.57 81.33C38.3 81 38.165 80.57 38.165 80.04C38.165 79.62 38.29 79.235 38.54 78.885C38.79 78.535 39.145 78.26 39.605 78.06C40.065 77.85 40.59 77.745 41.18 77.745C42.09 77.745 42.825 77.975 43.385 78.435C43.945 78.895 44.245 79.525 44.285 80.325H42.92C42.89 79.895 42.715 79.55 42.395 79.29C42.085 79.03 41.665 78.9 41.135 78.9C40.645 78.9 40.255 79.005 39.965 79.215C39.675 79.425 39.53 79.7 39.53 80.04C39.53 80.31 39.615 80.535 39.785 80.715C39.965 80.885 40.185 81.025 40.445 81.135C40.715 81.235 41.085 81.35 41.555 81.48C42.145 81.64 42.625 81.8 42.995 81.96C43.365 82.11 43.68 82.34 43.94 82.65C44.21 82.96 44.35 83.365 44.36 83.865C44.36 84.315 44.235 84.72 43.985 85.08C43.735 85.44 43.38 85.725 42.92 85.935C42.47 86.135 41.95 86.235 41.36 86.235Z" fill="#333333"/>
<path d="M45.7769 81.975C45.7769 81.125 45.9469 80.385 46.2869 79.755C46.6269 79.115 47.0969 78.62 47.6969 78.27C48.3069 77.92 49.0019 77.745 49.7819 77.745C50.7919 77.745 51.6219 77.99 52.2719 78.48C52.9319 78.97 53.3669 79.65 53.5769 80.52H52.1069C51.9669 80.02 51.6919 79.625 51.2819 79.335C50.8819 79.045 50.3819 78.9 49.7819 78.9C49.0019 78.9 48.3719 79.17 47.8919 79.71C47.4119 80.24 47.1719 80.995 47.1719 81.975C47.1719 82.965 47.4119 83.73 47.8919 84.27C48.3719 84.81 49.0019 85.08 49.7819 85.08C50.3819 85.08 50.8819 84.94 51.2819 84.66C51.6819 84.38 51.9569 83.98 52.1069 83.46H53.5769C53.3569 84.3 52.9169 84.975 52.2569 85.485C51.5969 85.985 50.7719 86.235 49.7819 86.235C49.0019 86.235 48.3069 86.06 47.6969 85.71C47.0969 85.36 46.6269 84.865 46.2869 84.225C45.9469 83.585 45.7769 82.835 45.7769 81.975Z" fill="#333333"/>
<path d="M54.8882 81.96C54.8882 81.12 55.0582 80.385 55.3982 79.755C55.7382 79.115 56.2032 78.62 56.7932 78.27C57.3932 77.92 58.0582 77.745 58.7882 77.745C59.5082 77.745 60.1332 77.9 60.6632 78.21C61.1932 78.52 61.5882 78.91 61.8482 79.38V77.88H63.2282V86.1H61.8482V84.57C61.5782 85.05 61.1732 85.45 60.6332 85.77C60.1032 86.08 59.4832 86.235 58.7732 86.235C58.0432 86.235 57.3832 86.055 56.7932 85.695C56.2032 85.335 55.7382 84.83 55.3982 84.18C55.0582 83.53 54.8882 82.79 54.8882 81.96ZM61.8482 81.975C61.8482 81.355 61.7232 80.815 61.4732 80.355C61.2232 79.895 60.8832 79.545 60.4532 79.305C60.0332 79.055 59.5682 78.93 59.0582 78.93C58.5482 78.93 58.0832 79.05 57.6632 79.29C57.2432 79.53 56.9082 79.88 56.6582 80.34C56.4082 80.8 56.2832 81.34 56.2832 81.96C56.2832 82.59 56.4082 83.14 56.6582 83.61C56.9082 84.07 57.2432 84.425 57.6632 84.675C58.0832 84.915 58.5482 85.035 59.0582 85.035C59.5682 85.035 60.0332 84.915 60.4532 84.675C60.8832 84.425 61.2232 84.07 61.4732 83.61C61.7232 83.14 61.8482 82.595 61.8482 81.975Z" fill="#333333"/>
<path d="M66.9 75V86.1H65.535V75H66.9Z" fill="#333333"/>
<path d="M68.7164 81.96C68.7164 81.12 68.8864 80.385 69.2264 79.755C69.5664 79.115 70.0314 78.62 70.6214 78.27C71.2214 77.92 71.8864 77.745 72.6164 77.745C73.3364 77.745 73.9614 77.9 74.4914 78.21C75.0214 78.52 75.4164 78.91 75.6764 79.38V77.88H77.0564V86.1H75.6764V84.57C75.4064 85.05 75.0014 85.45 74.4614 85.77C73.9314 86.08 73.3114 86.235 72.6014 86.235C71.8714 86.235 71.2114 86.055 70.6214 85.695C70.0314 85.335 69.5664 84.83 69.2264 84.18C68.8864 83.53 68.7164 82.79 68.7164 81.96ZM75.6764 81.975C75.6764 81.355 75.5514 80.815 75.3014 80.355C75.0514 79.895 74.7114 79.545 74.2814 79.305C73.8614 79.055 73.3964 78.93 72.8864 78.93C72.3764 78.93 71.9114 79.05 71.4914 79.29C71.0714 79.53 70.7364 79.88 70.4864 80.34C70.2364 80.8 70.1114 81.34 70.1114 81.96C70.1114 82.59 70.2364 83.14 70.4864 83.61C70.7364 84.07 71.0714 84.425 71.4914 84.675C71.9114 84.915 72.3764 85.035 72.8864 85.035C73.3964 85.035 73.8614 84.915 74.2814 84.675C74.7114 84.425 75.0514 84.07 75.3014 83.61C75.5514 83.14 75.6764 82.595 75.6764 81.975Z" fill="#333333"/>
<path d="M80.7281 79.395C80.9981 78.925 81.3981 78.535 81.9281 78.225C82.4681 77.905 83.0931 77.745 83.8031 77.745C84.5331 77.745 85.1931 77.92 85.7831 78.27C86.3831 78.62 86.8531 79.115 87.1931 79.755C87.5331 80.385 87.7031 81.12 87.7031 81.96C87.7031 82.79 87.5331 83.53 87.1931 84.18C86.8531 84.83 86.3831 85.335 85.7831 85.695C85.1931 86.055 84.5331 86.235 83.8031 86.235C83.1031 86.235 82.4831 86.08 81.9431 85.77C81.4131 85.45 81.0081 85.055 80.7281 84.585V90H79.3631V77.88H80.7281V79.395ZM86.3081 81.96C86.3081 81.34 86.1831 80.8 85.9331 80.34C85.6831 79.88 85.3431 79.53 84.9131 79.29C84.4931 79.05 84.0281 78.93 83.5181 78.93C83.0181 78.93 82.5531 79.055 82.1231 79.305C81.7031 79.545 81.3631 79.9 81.1031 80.37C80.8531 80.83 80.7281 81.365 80.7281 81.975C80.7281 82.595 80.8531 83.14 81.1031 83.61C81.3631 84.07 81.7031 84.425 82.1231 84.675C82.5531 84.915 83.0181 85.035 83.5181 85.035C84.0281 85.035 84.4931 84.915 84.9131 84.675C85.3431 84.425 85.6831 84.07 85.9331 83.61C86.1831 83.14 86.3081 82.59 86.3081 81.96Z" fill="#333333"/>
<path d="M88.9898 81.96C88.9898 81.12 89.1598 80.385 89.4998 79.755C89.8398 79.115 90.3048 78.62 90.8948 78.27C91.4948 77.92 92.1598 77.745 92.8898 77.745C93.6098 77.745 94.2348 77.9 94.7648 78.21C95.2948 78.52 95.6898 78.91 95.9498 79.38V77.88H97.3298V86.1H95.9498V84.57C95.6798 85.05 95.2748 85.45 94.7348 85.77C94.2048 86.08 93.5848 86.235 92.8748 86.235C92.1448 86.235 91.4848 86.055 90.8948 85.695C90.3048 85.335 89.8398 84.83 89.4998 84.18C89.1598 83.53 88.9898 82.79 88.9898 81.96ZM95.9498 81.975C95.9498 81.355 95.8248 80.815 95.5748 80.355C95.3248 79.895 94.9848 79.545 94.5548 79.305C94.1348 79.055 93.6698 78.93 93.1598 78.93C92.6498 78.93 92.1848 79.05 91.7648 79.29C91.3448 79.53 91.0098 79.88 90.7598 80.34C90.5098 80.8 90.3848 81.34 90.3848 81.96C90.3848 82.59 90.5098 83.14 90.7598 83.61C91.0098 84.07 91.3448 84.425 91.7648 84.675C92.1848 84.915 92.6498 85.035 93.1598 85.035C93.6698 85.035 94.1348 84.915 94.5548 84.675C94.9848 84.425 95.3248 84.07 95.5748 83.61C95.8248 83.14 95.9498 82.595 95.9498 81.975Z" fill="#333333"/>
<path d="M106.717 77.88L101.767 89.97H100.357L101.977 86.01L98.6615 77.88H100.177L102.757 84.54L105.307 77.88H106.717Z" fill="#333333"/>
<path d="M33.3007 80.866C33.3086 80.8579 33.3083 80.8449 33.2999 80.8372L29.8982 77.728C29.8901 77.7207 29.8777 77.7211 29.8702 77.729L27.8187 79.8715C27.8112 79.8793 27.7989 79.8798 27.7908 79.8725L25.5635 77.8424C25.5554 77.8351 25.543 77.8356 25.5355 77.8434L22.3579 81.1716C22.3501 81.1797 22.3506 81.1926 22.3589 81.2001L27.8101 86.1684C27.811 86.1693 27.8121 86.17 27.8132 86.1707L27.9911 86.2781C27.999 86.2829 28.0092 86.2816 28.0157 86.2749L33.3007 80.866Z" fill="#333333"/>
<g clip-path="url(#clip0_2493_64409)">
<path d="M31.2032 20L36.9077 21.5032V26.1189L40.9567 27.0906V31.7067L45.0059 32.6784V38.1801L36.7967 44L36.4972 43.9282L22.9941 40.5534V25.8203L31.2032 20ZM37.1647 42.0754L43.6483 37.4789V34.2832L37.1647 38.9144V42.0754ZM36.5487 38.103L42.8972 33.5685L40.1592 32.9113L33.8107 37.4463L36.5487 38.103ZM33.1155 36.6912L39.5992 32.06V28.6954L33.1155 33.3266V36.6912ZM32.4996 32.5153L38.8482 27.9803L36.1106 27.3236L29.7615 31.8589L32.4996 32.5153ZM29.0665 31.1038L35.5501 26.4725V23.1076L29.0665 27.7393V31.1038ZM28.4505 26.9283L34.7995 22.3933L31.4855 21.4636L25.1015 25.9904L28.4505 26.9283Z" fill="#333333"/>
</g>
<defs>
<clipPath id="clip0_2493_64409">
<rect width="24" height="24" fill="white" transform="matrix(-1 0 0 1 46 20)"/>
</clipPath>
</defs>
</svg>
