<svg width="17" height="17" viewBox="0 0 17 17" fill="none" xmlns="http://www.w3.org/2000/svg">
<path d="M8.52771 6.78777V14.5M8.52771 6.78777L11.0176 9.35851M8.52771 6.78777L6.03785 9.35851M13.0924 11.0723C14.3531 11.0723 15.1673 10.0175 15.1673 8.71582C15.1673 8.20049 15.0036 7.69938 14.7014 7.28924C14.3992 6.8791 13.9751 6.58255 13.4941 6.445C13.4201 5.48394 13.0344 4.57673 12.3992 3.87005C11.764 3.16338 10.9165 2.69854 9.99382 2.55069C9.0711 2.40284 8.12706 2.58062 7.31431 3.05529C6.50157 3.52997 5.86763 4.27378 5.51499 5.16648C4.77253 4.95399 3.97873 5.05472 3.30821 5.44651C2.63768 5.8383 2.14536 6.48907 1.93956 7.25564C1.73375 8.02222 1.8313 8.84181 2.21077 9.53412C2.59024 10.2264 3.22052 10.7347 3.96298 10.9472" stroke="#333333" stroke-width="1.4" stroke-linecap="round" stroke-linejoin="round"/>
</svg>
