<svg width="14" height="14" viewBox="0 0 14 14" fill="none" xmlns="http://www.w3.org/2000/svg">
<path d="M12.957 6.15112C12.9649 6.14303 12.9645 6.13001 12.9562 6.12238L9.55441 3.01318C9.54639 3.00585 9.53398 3.00627 9.52647 3.01411L7.475 5.15667C7.46749 5.16451 7.4551 5.16493 7.44708 5.15762L5.21971 3.12761C5.21168 3.12029 5.19928 3.12072 5.19177 3.12858L2.01414 6.45671C2.00638 6.46483 2.00683 6.47774 2.01513 6.48531L7.46633 11.4535C7.4673 11.4544 7.46835 11.4552 7.46946 11.4559L7.64731 11.5632C7.65525 11.568 7.66546 11.5667 7.67195 11.5601L12.957 6.15112Z" fill="#333333"/>
</svg>
