<svg width="16" height="17" viewBox="0 0 16 17" fill="none" xmlns="http://www.w3.org/2000/svg">
<path d="M13 9.125H10.875V6.875H12C12.2321 6.875 12.4546 6.78281 12.6187 6.61872C12.7828 6.45462 12.875 6.23206 12.875 6V3C12.875 2.76794 12.7828 2.54538 12.6187 2.38128C12.4546 2.21719 12.2321 2.125 12 2.125H4C3.76794 2.125 3.54538 2.21719 3.38128 2.38128C3.21719 2.54538 3.125 2.76794 3.125 3V6C3.125 6.23206 3.21719 6.45462 3.38128 6.61872C3.54538 6.78281 3.76794 6.875 4 6.875H5.125V9.125H3C2.76794 9.125 2.54538 9.21719 2.38128 9.38128C2.21719 9.54538 2.125 9.76794 2.125 10V11C2.125 11.2321 2.21719 11.4546 2.38128 11.6187C2.54538 11.7828 2.76794 11.875 3 11.875H3.625V14.5C3.625 14.5995 3.66451 14.6948 3.73484 14.7652C3.80516 14.8355 3.90054 14.875 4 14.875C4.09946 14.875 4.19484 14.8355 4.26516 14.7652C4.33549 14.6948 4.375 14.5995 4.375 14.5V11.875H11.625V14.5C11.625 14.5995 11.6645 14.6948 11.7348 14.7652C11.8052 14.8355 11.9005 14.875 12 14.875C12.0995 14.875 12.1948 14.8355 12.2652 14.7652C12.3355 14.6948 12.375 14.5995 12.375 14.5V11.875H13C13.2321 11.875 13.4546 11.7828 13.6187 11.6187C13.7828 11.4546 13.875 11.2321 13.875 11V10C13.875 9.76794 13.7828 9.54538 13.6187 9.38128C13.4546 9.21719 13.2321 9.125 13 9.125ZM3.875 6V3C3.875 2.96685 3.88817 2.93505 3.91161 2.91161C3.93505 2.88817 3.96685 2.875 4 2.875H12C12.0332 2.875 12.0649 2.88817 12.0884 2.91161C12.1118 2.93505 12.125 2.96685 12.125 3V6C12.125 6.03315 12.1118 6.06495 12.0884 6.08839C12.0649 6.11183 12.0332 6.125 12 6.125H4C3.96685 6.125 3.93505 6.11183 3.91161 6.08839C3.88817 6.06495 3.875 6.03315 3.875 6ZM5.875 6.875H10.125V9.125H5.875V6.875ZM13.125 11C13.125 11.0332 13.1118 11.0649 13.0884 11.0884C13.0649 11.1118 13.0332 11.125 13 11.125H3C2.96685 11.125 2.93505 11.1118 2.91161 11.0884C2.88817 11.0649 2.875 11.0332 2.875 11V10C2.875 9.96685 2.88817 9.93505 2.91161 9.91161C2.93505 9.88817 2.96685 9.875 3 9.875H13C13.0332 9.875 13.0649 9.88817 13.0884 9.91161C13.1118 9.93505 13.125 9.96685 13.125 10V11Z" fill="#333333" stroke="#333333" stroke-width="0.5"/>
</svg>
