<svg width="24" height="24" viewBox="0 0 24 24" fill="none" xmlns="http://www.w3.org/2000/svg">
<g clip-path="url(#clip0_2493_63970)">
<path d="M8.37559 13.4377C8.5917 13.1548 8.7203 12.8014 8.7203 12.4178C8.7203 11.4887 7.96716 10.7356 7.03806 10.7356C6.90973 10.7356 6.78493 10.7504 6.66482 10.7777C6.76874 10.5759 6.82776 10.3473 6.82776 10.1048C6.82776 9.29183 6.16875 8.63281 5.35582 8.63281C4.54289 8.63281 3.88388 9.29183 3.88388 10.1048C3.88388 10.3418 3.94022 10.5655 4.03976 10.7639C3.94044 10.7457 3.83827 10.7356 3.73368 10.7356C2.80458 10.7356 2.05144 11.4887 2.05144 12.4178C2.05144 12.8014 2.18004 13.1547 2.39611 13.4377C1.57576 13.7839 1 14.5957 1 15.542C1 16.8029 2.02215 17.825 3.28304 17.825C4.22801 17.825 5.03883 17.2509 5.38583 16.4325C5.73286 17.2509 6.54369 17.825 7.48861 17.825C8.7495 17.825 9.77165 16.8029 9.77165 15.542C9.77165 14.5957 9.19589 13.7839 8.37559 13.4377Z" stroke="#333333" stroke-width="1.2" stroke-miterlimit="10" stroke-linecap="round" stroke-linejoin="round"/>
<path d="M21.2076 16.7134H12.6697C12.1758 16.7134 11.7754 16.313 11.7754 15.8191V14.9138C11.7754 14.4199 12.1758 14.0195 12.6697 14.0195H21.2076C21.7015 14.0195 22.1019 14.4199 22.1019 14.9138V15.8191C22.1019 16.313 21.7015 16.7134 21.2076 16.7134Z" stroke="#333333" stroke-width="1.2" stroke-miterlimit="10" stroke-linecap="round" stroke-linejoin="round"/>
<path d="M21.2076 14.0201H12.6697C12.1758 14.0201 11.7754 13.6197 11.7754 13.1257V12.2205C11.7754 11.7266 12.1758 11.3262 12.6697 11.3262H21.2076C21.7015 11.3262 22.1019 11.7266 22.1019 12.2205V13.1257C22.1019 13.6196 21.7015 14.0201 21.2076 14.0201Z" stroke="#333333" stroke-width="1.2" stroke-miterlimit="10" stroke-linecap="round" stroke-linejoin="round"/>
<path d="M14.4697 16.7148H12.6738V18.5108H14.4697V16.7148Z" stroke="#333333" stroke-width="1.2" stroke-miterlimit="10" stroke-linecap="round" stroke-linejoin="round"/>
<path d="M21.2041 16.7148H19.4082V18.5108H21.2041V16.7148Z" stroke="#333333" stroke-width="1.2" stroke-miterlimit="10" stroke-linecap="round" stroke-linejoin="round"/>
<path d="M22.1014 20.3057H11.7749C11.279 20.3057 10.877 19.9037 10.877 19.4077C10.877 18.9118 11.279 18.5098 11.7749 18.5098H22.1015C22.5974 18.5098 22.9994 18.9118 22.9994 19.4077C22.9994 19.9037 22.5974 20.3057 22.1014 20.3057Z" stroke="#333333" stroke-width="1.2" stroke-miterlimit="10" stroke-linecap="round" stroke-linejoin="round"/>
<path d="M13.5713 20.3066H11.7754V23.0005H13.5713V20.3066Z" stroke="#333333" stroke-width="1.2" stroke-miterlimit="10" stroke-linecap="round" stroke-linejoin="round"/>
<path d="M22.1025 20.3066H20.3066V23.0005H22.1025V20.3066Z" stroke="#333333" stroke-width="1.2" stroke-miterlimit="10" stroke-linecap="round" stroke-linejoin="round"/>
<path d="M5.38672 13.0371V23.0008" stroke="#333333" stroke-width="1.2" stroke-miterlimit="10" stroke-linecap="round" stroke-linejoin="round"/>
<path d="M5.38512 15.0594L3.69336 14.3828" stroke="#333333" stroke-width="1.2" stroke-miterlimit="10" stroke-linecap="round" stroke-linejoin="round"/>
<path d="M5.38672 15.0594L7.07848 14.3828" stroke="#333333" stroke-width="1.2" stroke-miterlimit="10" stroke-linecap="round" stroke-linejoin="round"/>
<path d="M1 23H23" stroke="#333333" stroke-width="1.2" stroke-miterlimit="10" stroke-linecap="round" stroke-linejoin="round"/>
<path d="M20.3611 5.99342C20.8871 5.46742 20.8871 4.61461 20.3611 4.08861C19.8351 3.56261 18.9823 3.56261 18.4563 4.08861C17.9303 4.61461 17.9303 5.46742 18.4563 5.99342C18.9823 6.51942 19.8351 6.51942 20.3611 5.99342Z" stroke="#333333" stroke-width="1.2" stroke-miterlimit="10" stroke-linecap="round" stroke-linejoin="round"/>
<path d="M19.4082 1V1.89798" stroke="#333333" stroke-width="1.2" stroke-miterlimit="10" stroke-linecap="round" stroke-linejoin="round"/>
<path d="M15.9082 3.01953L16.6858 3.46852" stroke="#333333" stroke-width="1.2" stroke-miterlimit="10" stroke-linecap="round" stroke-linejoin="round"/>
<path d="M15.9082 7.06032L16.6858 6.61133" stroke="#333333" stroke-width="1.2" stroke-miterlimit="10" stroke-linecap="round" stroke-linejoin="round"/>
<path d="M19.4082 9.08157V8.18359" stroke="#333333" stroke-width="1.2" stroke-miterlimit="10" stroke-linecap="round" stroke-linejoin="round"/>
<path d="M22.9085 7.06032L22.1309 6.61133" stroke="#333333" stroke-width="1.2" stroke-miterlimit="10" stroke-linecap="round" stroke-linejoin="round"/>
<path d="M22.9085 3.01953L22.1309 3.46852" stroke="#333333" stroke-width="1.2" stroke-miterlimit="10" stroke-linecap="round" stroke-linejoin="round"/>
</g>
<defs>
<clipPath id="clip0_2493_63970">
<rect width="24" height="24" fill="white"/>
</clipPath>
</defs>
</svg>
