<svg width="22" height="22" viewBox="0 0 22 22" fill="none" xmlns="http://www.w3.org/2000/svg">
<g clip-path="url(#clip0_2618_26632)">
<path fill-rule="evenodd" clip-rule="evenodd" d="M1.28235 2.75219C0.916016 3.47117 0.916016 4.41237 0.916016 6.29477V15.7059C0.916016 17.5883 0.916016 18.5295 1.28235 19.2485C1.6046 19.8809 2.11878 20.3951 2.75121 20.7173C3.4702 21.0837 4.41139 21.0837 6.29379 21.0837H15.7049C17.5873 21.0837 18.5285 21.0837 19.2475 20.7173C19.8799 20.3951 20.3941 19.8809 20.7163 19.2485C21.0827 18.5295 21.0827 17.5883 21.0827 15.7059V6.29477C21.0827 4.41237 21.0827 3.47117 20.7163 2.75219C20.3941 2.11976 19.8799 1.60557 19.2475 1.28333C18.5285 0.916992 17.5873 0.916992 15.7049 0.916992H6.29379C4.41139 0.916992 3.4702 0.916992 2.75121 1.28333C2.11878 1.60557 1.6046 2.11976 1.28235 2.75219ZM17.3083 8.3464C17.6988 7.95588 17.6988 7.32271 17.3083 6.93219C16.9178 6.54167 16.2846 6.54167 15.8941 6.93219L9.87898 12.9473L7.22497 10.2933C6.83445 9.90278 6.20128 9.90278 5.81076 10.2933C5.42024 10.6838 5.42024 11.317 5.81076 11.7075L8.53809 14.4348L8.55552 14.4523C8.65082 14.5476 8.76013 14.657 8.86359 14.7448C8.98234 14.8457 9.15735 14.9753 9.39685 15.0531C9.71021 15.1549 10.0477 15.1549 10.3611 15.0531C10.6006 14.9753 10.7756 14.8457 10.8944 14.7448C10.9978 14.657 11.1071 14.5477 11.2024 14.4523L11.2024 14.4523L11.2199 14.4348L17.3083 8.3464ZM9.59652 13.2231L9.59445 13.2247C9.59445 13.2247 9.59456 13.2246 9.59478 13.2245C9.59511 13.2242 9.59569 13.2238 9.59652 13.2231ZM10.1614 13.2231L10.1635 13.2247C10.1635 13.2247 10.1628 13.2242 10.1614 13.2231Z" fill="#8FCBB4"/>
</g>
<defs>
<clipPath id="clip0_2618_26632">
<rect width="22" height="22" fill="white"/>
</clipPath>
</defs>
</svg>
