<svg width="16" height="17" viewBox="0 0 16 17" fill="none" xmlns="http://www.w3.org/2000/svg">
<g clip-path="url(#clip0_2493_64483)">
<path d="M2.85798 9.07171H1.71512C1.41202 9.07171 1.12133 9.19212 0.907001 9.40644C0.692673 9.62077 0.572266 9.91146 0.572266 10.2146V15.9289H4.00084M2.85798 9.07171C3.16108 9.07171 3.45177 9.19212 3.6661 9.40644C3.88043 9.62077 4.00084 9.91146 4.00084 10.2146V15.9289M2.85798 9.07171V6.78599C2.85798 5.87668 3.2192 5.00461 3.86219 4.36163C4.50517 3.71865 5.37724 3.35742 6.28655 3.35742H9.71512C10.6244 3.35742 11.4965 3.71865 12.1395 4.36163C12.7825 5.00461 13.1437 5.87668 13.1437 6.78599V9.07171M4.00084 15.9289H12.0008M13.1437 9.07171H14.2866C14.5897 9.07171 14.8803 9.19212 15.0947 9.40644C15.309 9.62077 15.4294 9.91146 15.4294 10.2146V15.9289H12.0008M13.1437 9.07171C12.8406 9.07171 12.5499 9.19212 12.3356 9.40644C12.1212 9.62077 12.0008 9.91146 12.0008 10.2146V15.9289M4.00084 11.3574H12.0008" stroke="#333333" stroke-width="1.14286" stroke-linecap="round" stroke-linejoin="round"/>
</g>
<defs>
<clipPath id="clip0_2493_64483">
<rect width="16" height="16" fill="white" transform="translate(0 0.5)"/>
</clipPath>
</defs>
</svg>
