<svg width="24" height="24" viewBox="0 0 24 24" fill="none" xmlns="http://www.w3.org/2000/svg">
<path d="M3.90234 14.2572C3.90234 10.0174 7.49766 8.13772 11.3508 1.86115C11.6883 1.39475 12.3633 1.39475 12.7195 1.89631C16.5773 8.19397 20.1492 10.0244 20.1492 14.2572C20.1492 18.7432 16.5117 22.3807 12.0258 22.3807C7.53984 22.3807 3.90234 18.7432 3.90234 14.2572Z" fill="#8FCBB4"/>
<path d="M11.3242 4.11357C9.77969 6.10107 6.30625 10.9737 6.22656 11.1026C5.55625 12.1925 5.25391 13.137 5.25391 14.2573C5.25391 17.9956 8.28437 21.0261 12.0227 21.0261C15.7609 21.0261 18.7914 17.9956 18.7914 14.2573C18.7914 13.137 18.4914 12.1972 17.8234 11.1144C17.7648 11.0206 14.275 6.11514 12.7328 4.11592C12.3602 3.62842 11.7039 3.62842 11.3242 4.11357Z" fill="#F6F7F9"/>
<path d="M12.0243 19.3703C12.0243 19.7078 11.5251 19.6938 11.2977 19.6656C8.85789 19.3539 6.92664 17.4156 6.61961 14.9758C6.59851 14.807 6.57742 14.2656 6.91492 14.2656C7.25242 14.2656 7.30867 15.0297 7.30867 15.0297C7.62508 17.0594 9.2282 18.6625 11.2579 18.9789C11.2602 18.9742 12.0243 19.0305 12.0243 19.3703Z" fill="#8FCBB4"/>
</svg>
