<svg width="24" height="24" viewBox="0 0 24 24" fill="none" xmlns="http://www.w3.org/2000/svg">
<path d="M12.6644 16.9084L12.6644 16.9084C12.7443 16.9029 12.8137 16.9632 12.8193 17.0433C12.8193 17.0433 12.8193 17.0433 12.8193 17.0433L12.8626 17.6667L12.8626 17.6667C12.8681 17.7467 12.8078 17.8161 12.7277 17.8217L12.7625 18.3223L12.7279 17.8216C12.6475 17.8272 12.5784 17.7668 12.5728 17.6868C12.5728 17.6868 12.5728 17.6868 12.5728 17.6868L12.5295 17.0634L12.5295 17.0634C12.524 16.9834 12.5843 16.914 12.6644 16.9084ZM12.6296 16.4078L12.6296 16.4078L12.6296 16.4078Z" fill="#333333" stroke="#333333" stroke-width="1.00363"/>
<path d="M16.3857 15.4153C16.2414 15.0884 15.8594 14.9403 15.5325 15.0845C15.2055 15.2288 15.0575 15.6107 15.2017 15.9377L15.439 16.4755C15.5832 16.8024 15.9651 16.9506 16.2921 16.8063C16.6191 16.6621 16.7672 16.2801 16.6229 15.9532L16.3857 15.4153Z" fill="#333333"/>
<path d="M19.3829 13.8548C19.1363 13.5962 18.7267 13.5864 18.4681 13.8331C18.2095 14.0797 18.1998 14.4893 18.4464 14.7479L18.8777 15.2001C19.1242 15.4587 19.5338 15.4685 19.7925 15.2218C20.0511 14.9752 20.0608 14.5656 19.8142 14.307L19.3829 13.8548Z" fill="#333333"/>
<path d="M12.5471 20.3523C12.1902 20.3698 11.915 20.6733 11.9324 21.0302L11.964 21.6753C11.9814 22.0323 12.2849 22.3075 12.6418 22.29C12.9987 22.2726 13.2739 21.9691 13.2565 21.6122L13.225 20.967C13.2076 20.6101 12.9039 20.3352 12.5471 20.3523Z" fill="#333333"/>
<path d="M16.3067 19.4438C16.2051 19.1012 15.845 18.9057 15.5024 19.0073C15.1597 19.1089 14.9643 19.469 15.0659 19.8116L15.2387 20.3945C15.3404 20.7375 15.7008 20.9324 16.043 20.8309C16.3856 20.7294 16.581 20.3693 16.4794 20.0266L16.3067 19.4438Z" fill="#333333"/>
<path d="M19.3477 17.9223C19.1631 17.6163 18.7654 17.5179 18.4594 17.7025C18.1534 17.8871 18.055 18.2848 18.2396 18.5908L18.5536 19.1113C18.7381 19.4173 19.1358 19.5158 19.4419 19.3311C19.7479 19.1466 19.8463 18.7488 19.6617 18.4429L19.3477 17.9223Z" fill="#333333"/>
<path d="M22.8152 16.8875L22.36 16.4293C22.1081 16.1758 21.6985 16.1744 21.4449 16.4263C21.1914 16.6782 21.1901 17.0879 21.442 17.3414L21.8972 17.7996C22.1488 18.0529 22.5586 18.0547 22.8123 17.8025C23.0658 17.5507 23.0671 17.141 22.8152 16.8875Z" fill="#333333"/>
<path d="M19.5623 9.59554L19.3664 9.15554C19.0426 8.42812 18.2741 8.03493 17.5225 8.15265L17.4017 7.88114C16.6978 6.30034 15.0391 5.42983 13.3821 5.69487L12.957 4.72907C11.9599 2.46377 9.71622 1 7.24105 1C3.79755 1 0.996094 3.8015 0.996094 7.24496V22.3529C0.996094 22.7102 1.2858 22.9999 1.64315 22.9999H4.23138C4.58872 22.9999 4.87843 22.7102 4.87843 22.3529V7.24496C4.87843 5.94222 5.93831 4.88234 7.24105 4.88234C8.17752 4.88234 9.02637 5.43605 9.4036 6.29314L9.86012 7.32998C8.67359 8.40586 8.28764 10.1362 8.957 11.6404L9.07796 11.9118C8.49854 12.3818 8.26064 13.2106 8.59081 13.9523L8.7867 14.3923C9.21488 15.3542 10.3423 15.7937 11.3122 15.3619L18.5927 12.121C19.5563 11.6921 19.9913 10.5592 19.5623 9.59554ZM16.2194 8.4075L16.3161 8.62457L10.236 11.3311L10.1393 11.114C9.58775 9.8746 10.1309 8.41937 11.3898 7.85802L12.9619 7.15773C14.2389 6.59285 15.6726 7.17943 16.2194 8.4075ZM7.24105 3.58823C5.22474 3.58823 3.58432 5.22864 3.58432 7.24496V21.7058H2.29021V7.24496C2.29021 4.51507 4.51116 2.29411 7.24105 2.29411C9.20336 2.29411 10.9821 3.45454 11.7726 5.25043L12.1481 6.10351L10.9659 6.63012L10.588 5.77178C10.0042 4.44532 8.69046 3.58823 7.24105 3.58823ZM18.0664 10.9388L10.7859 14.1797C10.4734 14.3188 10.108 14.1786 9.96896 13.8661L9.77307 13.426C9.67605 13.2082 9.77389 12.9533 9.99182 12.8563C10.5492 12.6082 17.4498 9.5364 17.6145 9.46307C17.8319 9.36635 18.0874 9.46445 18.1842 9.68182L18.3801 10.1218C18.5188 10.4335 18.3781 10.8001 18.0664 10.9388Z" fill="#333333"/>
</svg>
