<svg width="18" height="18" viewBox="0 0 18 18" fill="none" xmlns="http://www.w3.org/2000/svg">
<path d="M15.9649 6.89471L10.7481 1.67785C10.511 1.44072 10.1553 1.44072 9.91813 1.67785L8.02108 3.57489C7.72467 3.8713 7.84324 4.227 8.02108 4.40485L8.43606 4.81982L6.65758 6.5983C5.76835 6.42045 3.33776 6.00548 2.03354 7.30969C1.79641 7.54682 1.79641 7.90252 2.03354 8.13965L5.41265 11.5188L1.67785 15.2536C1.44072 15.4907 1.44072 15.8464 1.67785 16.0835C1.91498 16.3206 2.32996 16.2614 2.5078 16.0835L6.24261 12.3487L9.62171 15.7278C9.97741 16.0242 10.3331 15.9057 10.4517 15.7278C11.7559 14.4236 11.3409 11.993 11.1631 11.1038L12.9415 9.3253L13.3565 9.74028C13.5936 9.97741 13.9493 9.97741 14.1865 9.74028L16.0835 7.84324C16.2021 7.48754 16.2021 7.13184 15.9649 6.89471ZM13.6529 8.37678L13.238 7.9618C13.0008 7.72467 12.6451 7.72467 12.408 7.9618L9.97741 10.4517C9.79956 10.6295 9.74028 10.8074 9.79956 11.0445C9.97741 11.6966 10.2738 13.2972 9.79956 14.3643L3.27848 7.84324C4.28628 7.36898 5.94619 7.66539 6.5983 7.84324C6.77615 7.90252 7.01328 7.84324 7.19113 7.66539L9.62171 5.2348C9.97741 4.87911 9.79956 4.58269 9.62171 4.40485L9.20674 3.98987L10.3331 2.92278L14.72 7.30969L13.6529 8.37678Z" fill="#333333"/>
</svg>
