<svg width="24" height="24" viewBox="0 0 24 24" fill="none" xmlns="http://www.w3.org/2000/svg">
<mask id="path-1-outside-1_2493_64258" maskUnits="userSpaceOnUse" x="1" y="1" width="22" height="22" fill="black">
<rect fill="white" x="1" y="1" width="22" height="22"/>
<path d="M11.0183 2.05888C9.92227 2.22141 8.80124 2.62981 7.86773 3.20492C6.83004 3.85087 5.85487 4.82605 5.20892 5.86373C4.47128 7.05562 4.00453 8.59756 4.00036 9.83946C4.00036 10.0437 3.99203 10.2062 3.98369 10.2062C3.97119 10.2062 3.83783 10.177 3.67947 10.1395C3.32107 10.0562 3.03769 10.0895 2.71263 10.252C2.42508 10.3979 2.23754 10.5938 2.09585 10.898L2 11.1147L2.00833 15.0029L2.02084 18.8953L2.11669 19.0745C2.3459 19.5037 2.75847 19.7663 3.28357 19.8163L3.58362 19.8454V20.8123C3.58362 21.7291 3.58779 21.7875 3.67114 21.8916L3.75449 22H5.80486H7.85523L9.02211 20.9165L10.189 19.8371L11.7976 19.8329H13.4062L14.0689 20.4456C14.4356 20.7873 14.9607 21.2749 15.2399 21.5291L15.7483 22H17.7945C19.7824 22 19.8407 21.9958 19.9199 21.9167C19.9991 21.8375 20.0033 21.7791 20.0033 20.8373V19.8454L20.5075 19.8204C20.9618 19.7996 21.0368 19.7871 21.2785 19.6662C21.5452 19.5371 21.7494 19.3328 21.9036 19.0411C21.9786 18.9036 21.9828 18.7161 21.9953 14.9987L22.0036 11.1022L21.8786 10.8438C21.6536 10.3896 21.216 10.1103 20.7076 10.1062L20.4283 10.102L20.3992 9.68526C20.2908 8.0808 19.7324 6.55553 18.7906 5.28863C18.4822 4.87189 17.8112 4.16759 17.3945 3.82586C16.2651 2.9007 14.844 2.27975 13.3729 2.06304C12.827 1.97969 11.5642 1.97969 11.0183 2.05888ZM12.8353 2.7215C13.052 2.734 13.4521 2.79234 13.7188 2.84652C17.0569 3.55081 19.4865 6.38466 19.6949 9.82695L19.7241 10.2812L19.5615 10.327C19.474 10.3479 19.1281 10.4354 18.7989 10.5187C17.9279 10.7355 17.6945 10.8813 17.4611 11.3397L17.3361 11.5939V13.3401V15.0821H12.0018H6.66751V13.3401V11.5939L6.54249 11.3397C6.31745 10.8896 6.06324 10.7313 5.25059 10.5229C4.9547 10.4479 4.70049 10.3812 4.69216 10.3687C4.68382 10.3604 4.69216 10.0895 4.71299 9.76444C4.91303 6.36382 7.39681 3.50914 10.7516 2.82985C11.1642 2.7465 12.0435 2.66732 12.3144 2.69232C12.3852 2.69649 12.6186 2.71316 12.8353 2.7215ZM4.48795 11.0688C5.50897 11.3231 5.61316 11.3564 5.75485 11.4856C5.87154 11.5939 5.92155 11.6815 5.95489 11.8357C5.98406 11.9648 6.00073 12.6608 6.00073 13.6401V15.2363L5.8382 15.3446C5.64233 15.4738 5.49647 15.6613 5.36728 15.9406C5.2756 16.1406 5.27143 16.1864 5.25893 17.6325L5.24642 19.1245H4.25458C3.31274 19.1245 3.25856 19.1203 3.08353 19.0286C2.86682 18.9203 2.75847 18.7827 2.70846 18.5577C2.65429 18.3243 2.65845 11.5689 2.71263 11.3314C2.77514 11.0522 3.05853 10.798 3.3044 10.7896C3.34191 10.7896 3.87534 10.9147 4.48795 11.0688ZM20.8909 10.848C21.0868 10.9313 21.241 11.1189 21.291 11.3314C21.3452 11.5689 21.3493 18.3243 21.2952 18.5577C21.2452 18.7827 21.1368 18.9203 20.9201 19.0328C20.7451 19.1203 20.6909 19.1245 19.7491 19.1245H18.7572L18.7447 17.6325C18.7322 16.1864 18.728 16.1406 18.6364 15.9406C18.5072 15.6613 18.3613 15.4738 18.1654 15.3446L18.0029 15.2363V13.6401C18.0029 12.6816 18.0196 11.9607 18.0487 11.8398C18.0779 11.6981 18.1321 11.5939 18.2363 11.4939C18.3696 11.3647 18.4613 11.3356 19.474 11.0772C20.0741 10.923 20.6075 10.7938 20.6617 10.7938C20.7117 10.7896 20.8159 10.8146 20.8909 10.848ZM17.5487 15.8364C17.7529 15.8989 17.9571 16.1114 18.0071 16.3156C18.0237 16.4073 18.0446 17.0741 18.0446 17.7992V19.1245H12.0018H5.95905V17.7992C5.95905 17.0741 5.97572 16.4073 5.99656 16.3198C6.0424 16.1198 6.17576 15.9697 6.39663 15.8697C6.55499 15.7947 6.80087 15.7905 11.9768 15.7905C15.9109 15.7905 17.432 15.803 17.5487 15.8364ZM8.83041 20.1163C8.65954 20.2747 8.29698 20.6122 8.02193 20.8665L7.52184 21.3332H5.90904H4.29208V20.5831V19.8329H6.71336H9.13463L8.83041 20.1163ZM19.3365 20.5831V21.3332H17.7112H16.0859L15.2941 20.5997C14.8607 20.1955 14.5023 19.8579 14.5023 19.8496C14.5023 19.8413 15.59 19.8329 16.9194 19.8329H19.3365V20.5831Z"/>
</mask>
<path d="M11.0183 2.05888C9.92227 2.22141 8.80124 2.62981 7.86773 3.20492C6.83004 3.85087 5.85487 4.82605 5.20892 5.86373C4.47128 7.05562 4.00453 8.59756 4.00036 9.83946C4.00036 10.0437 3.99203 10.2062 3.98369 10.2062C3.97119 10.2062 3.83783 10.177 3.67947 10.1395C3.32107 10.0562 3.03769 10.0895 2.71263 10.252C2.42508 10.3979 2.23754 10.5938 2.09585 10.898L2 11.1147L2.00833 15.0029L2.02084 18.8953L2.11669 19.0745C2.3459 19.5037 2.75847 19.7663 3.28357 19.8163L3.58362 19.8454V20.8123C3.58362 21.7291 3.58779 21.7875 3.67114 21.8916L3.75449 22H5.80486H7.85523L9.02211 20.9165L10.189 19.8371L11.7976 19.8329H13.4062L14.0689 20.4456C14.4356 20.7873 14.9607 21.2749 15.2399 21.5291L15.7483 22H17.7945C19.7824 22 19.8407 21.9958 19.9199 21.9167C19.9991 21.8375 20.0033 21.7791 20.0033 20.8373V19.8454L20.5075 19.8204C20.9618 19.7996 21.0368 19.7871 21.2785 19.6662C21.5452 19.5371 21.7494 19.3328 21.9036 19.0411C21.9786 18.9036 21.9828 18.7161 21.9953 14.9987L22.0036 11.1022L21.8786 10.8438C21.6536 10.3896 21.216 10.1103 20.7076 10.1062L20.4283 10.102L20.3992 9.68526C20.2908 8.0808 19.7324 6.55553 18.7906 5.28863C18.4822 4.87189 17.8112 4.16759 17.3945 3.82586C16.2651 2.9007 14.844 2.27975 13.3729 2.06304C12.827 1.97969 11.5642 1.97969 11.0183 2.05888ZM12.8353 2.7215C13.052 2.734 13.4521 2.79234 13.7188 2.84652C17.0569 3.55081 19.4865 6.38466 19.6949 9.82695L19.7241 10.2812L19.5615 10.327C19.474 10.3479 19.1281 10.4354 18.7989 10.5187C17.9279 10.7355 17.6945 10.8813 17.4611 11.3397L17.3361 11.5939V13.3401V15.0821H12.0018H6.66751V13.3401V11.5939L6.54249 11.3397C6.31745 10.8896 6.06324 10.7313 5.25059 10.5229C4.9547 10.4479 4.70049 10.3812 4.69216 10.3687C4.68382 10.3604 4.69216 10.0895 4.71299 9.76444C4.91303 6.36382 7.39681 3.50914 10.7516 2.82985C11.1642 2.7465 12.0435 2.66732 12.3144 2.69232C12.3852 2.69649 12.6186 2.71316 12.8353 2.7215ZM4.48795 11.0688C5.50897 11.3231 5.61316 11.3564 5.75485 11.4856C5.87154 11.5939 5.92155 11.6815 5.95489 11.8357C5.98406 11.9648 6.00073 12.6608 6.00073 13.6401V15.2363L5.8382 15.3446C5.64233 15.4738 5.49647 15.6613 5.36728 15.9406C5.2756 16.1406 5.27143 16.1864 5.25893 17.6325L5.24642 19.1245H4.25458C3.31274 19.1245 3.25856 19.1203 3.08353 19.0286C2.86682 18.9203 2.75847 18.7827 2.70846 18.5577C2.65429 18.3243 2.65845 11.5689 2.71263 11.3314C2.77514 11.0522 3.05853 10.798 3.3044 10.7896C3.34191 10.7896 3.87534 10.9147 4.48795 11.0688ZM20.8909 10.848C21.0868 10.9313 21.241 11.1189 21.291 11.3314C21.3452 11.5689 21.3493 18.3243 21.2952 18.5577C21.2452 18.7827 21.1368 18.9203 20.9201 19.0328C20.7451 19.1203 20.6909 19.1245 19.7491 19.1245H18.7572L18.7447 17.6325C18.7322 16.1864 18.728 16.1406 18.6364 15.9406C18.5072 15.6613 18.3613 15.4738 18.1654 15.3446L18.0029 15.2363V13.6401C18.0029 12.6816 18.0196 11.9607 18.0487 11.8398C18.0779 11.6981 18.1321 11.5939 18.2363 11.4939C18.3696 11.3647 18.4613 11.3356 19.474 11.0772C20.0741 10.923 20.6075 10.7938 20.6617 10.7938C20.7117 10.7896 20.8159 10.8146 20.8909 10.848ZM17.5487 15.8364C17.7529 15.8989 17.9571 16.1114 18.0071 16.3156C18.0237 16.4073 18.0446 17.0741 18.0446 17.7992V19.1245H12.0018H5.95905V17.7992C5.95905 17.0741 5.97572 16.4073 5.99656 16.3198C6.0424 16.1198 6.17576 15.9697 6.39663 15.8697C6.55499 15.7947 6.80087 15.7905 11.9768 15.7905C15.9109 15.7905 17.432 15.803 17.5487 15.8364ZM8.83041 20.1163C8.65954 20.2747 8.29698 20.6122 8.02193 20.8665L7.52184 21.3332H5.90904H4.29208V20.5831V19.8329H6.71336H9.13463L8.83041 20.1163ZM19.3365 20.5831V21.3332H17.7112H16.0859L15.2941 20.5997C14.8607 20.1955 14.5023 19.8579 14.5023 19.8496C14.5023 19.8413 15.59 19.8329 16.9194 19.8329H19.3365V20.5831Z" fill="#333333"/>
<path d="M11.0183 2.05888C9.92227 2.22141 8.80124 2.62981 7.86773 3.20492C6.83004 3.85087 5.85487 4.82605 5.20892 5.86373C4.47128 7.05562 4.00453 8.59756 4.00036 9.83946C4.00036 10.0437 3.99203 10.2062 3.98369 10.2062C3.97119 10.2062 3.83783 10.177 3.67947 10.1395C3.32107 10.0562 3.03769 10.0895 2.71263 10.252C2.42508 10.3979 2.23754 10.5938 2.09585 10.898L2 11.1147L2.00833 15.0029L2.02084 18.8953L2.11669 19.0745C2.3459 19.5037 2.75847 19.7663 3.28357 19.8163L3.58362 19.8454V20.8123C3.58362 21.7291 3.58779 21.7875 3.67114 21.8916L3.75449 22H5.80486H7.85523L9.02211 20.9165L10.189 19.8371L11.7976 19.8329H13.4062L14.0689 20.4456C14.4356 20.7873 14.9607 21.2749 15.2399 21.5291L15.7483 22H17.7945C19.7824 22 19.8407 21.9958 19.9199 21.9167C19.9991 21.8375 20.0033 21.7791 20.0033 20.8373V19.8454L20.5075 19.8204C20.9618 19.7996 21.0368 19.7871 21.2785 19.6662C21.5452 19.5371 21.7494 19.3328 21.9036 19.0411C21.9786 18.9036 21.9828 18.7161 21.9953 14.9987L22.0036 11.1022L21.8786 10.8438C21.6536 10.3896 21.216 10.1103 20.7076 10.1062L20.4283 10.102L20.3992 9.68526C20.2908 8.0808 19.7324 6.55553 18.7906 5.28863C18.4822 4.87189 17.8112 4.16759 17.3945 3.82586C16.2651 2.9007 14.844 2.27975 13.3729 2.06304C12.827 1.97969 11.5642 1.97969 11.0183 2.05888ZM12.8353 2.7215C13.052 2.734 13.4521 2.79234 13.7188 2.84652C17.0569 3.55081 19.4865 6.38466 19.6949 9.82695L19.7241 10.2812L19.5615 10.327C19.474 10.3479 19.1281 10.4354 18.7989 10.5187C17.9279 10.7355 17.6945 10.8813 17.4611 11.3397L17.3361 11.5939V13.3401V15.0821H12.0018H6.66751V13.3401V11.5939L6.54249 11.3397C6.31745 10.8896 6.06324 10.7313 5.25059 10.5229C4.9547 10.4479 4.70049 10.3812 4.69216 10.3687C4.68382 10.3604 4.69216 10.0895 4.71299 9.76444C4.91303 6.36382 7.39681 3.50914 10.7516 2.82985C11.1642 2.7465 12.0435 2.66732 12.3144 2.69232C12.3852 2.69649 12.6186 2.71316 12.8353 2.7215ZM4.48795 11.0688C5.50897 11.3231 5.61316 11.3564 5.75485 11.4856C5.87154 11.5939 5.92155 11.6815 5.95489 11.8357C5.98406 11.9648 6.00073 12.6608 6.00073 13.6401V15.2363L5.8382 15.3446C5.64233 15.4738 5.49647 15.6613 5.36728 15.9406C5.2756 16.1406 5.27143 16.1864 5.25893 17.6325L5.24642 19.1245H4.25458C3.31274 19.1245 3.25856 19.1203 3.08353 19.0286C2.86682 18.9203 2.75847 18.7827 2.70846 18.5577C2.65429 18.3243 2.65845 11.5689 2.71263 11.3314C2.77514 11.0522 3.05853 10.798 3.3044 10.7896C3.34191 10.7896 3.87534 10.9147 4.48795 11.0688ZM20.8909 10.848C21.0868 10.9313 21.241 11.1189 21.291 11.3314C21.3452 11.5689 21.3493 18.3243 21.2952 18.5577C21.2452 18.7827 21.1368 18.9203 20.9201 19.0328C20.7451 19.1203 20.6909 19.1245 19.7491 19.1245H18.7572L18.7447 17.6325C18.7322 16.1864 18.728 16.1406 18.6364 15.9406C18.5072 15.6613 18.3613 15.4738 18.1654 15.3446L18.0029 15.2363V13.6401C18.0029 12.6816 18.0196 11.9607 18.0487 11.8398C18.0779 11.6981 18.1321 11.5939 18.2363 11.4939C18.3696 11.3647 18.4613 11.3356 19.474 11.0772C20.0741 10.923 20.6075 10.7938 20.6617 10.7938C20.7117 10.7896 20.8159 10.8146 20.8909 10.848ZM17.5487 15.8364C17.7529 15.8989 17.9571 16.1114 18.0071 16.3156C18.0237 16.4073 18.0446 17.0741 18.0446 17.7992V19.1245H12.0018H5.95905V17.7992C5.95905 17.0741 5.97572 16.4073 5.99656 16.3198C6.0424 16.1198 6.17576 15.9697 6.39663 15.8697C6.55499 15.7947 6.80087 15.7905 11.9768 15.7905C15.9109 15.7905 17.432 15.803 17.5487 15.8364ZM8.83041 20.1163C8.65954 20.2747 8.29698 20.6122 8.02193 20.8665L7.52184 21.3332H5.90904H4.29208V20.5831V19.8329H6.71336H9.13463L8.83041 20.1163ZM19.3365 20.5831V21.3332H17.7112H16.0859L15.2941 20.5997C14.8607 20.1955 14.5023 19.8579 14.5023 19.8496C14.5023 19.8413 15.59 19.8329 16.9194 19.8329H19.3365V20.5831Z" stroke="#333333" stroke-width="0.4" mask="url(#path-1-outside-1_2493_64258)"/>
<path d="M8.94562 6.29282L8.94596 6.29273C9.23443 6.21489 9.56446 6.25648 9.83945 6.40074L9.83945 6.40074L9.84046 6.40128C10.6575 6.84195 10.6028 8.05526 9.76013 8.44698L9.75995 8.44707C9.33636 8.64292 8.86469 8.57419 8.51408 8.26456L8.51407 8.26455C8.38199 8.14788 8.28502 8.02953 8.22227 7.88923C8.15958 7.74907 8.13437 7.59446 8.13437 7.4103C8.13437 6.87789 8.45629 6.4267 8.94562 6.29282ZM9.10673 7.2502L9.10674 7.25021L9.10558 7.25125C9.0403 7.31001 9.02644 7.4042 9.06386 7.4944C9.10123 7.58449 9.18103 7.64786 9.27623 7.64786C9.46962 7.64786 9.57926 7.40748 9.44411 7.25688C9.37372 7.18108 9.32146 7.15917 9.2819 7.15811C9.24156 7.15704 9.18577 7.17681 9.10673 7.2502Z" fill="#333333" stroke="#333333" stroke-width="0.2"/>
<path d="M15.2813 8.48756L15.2813 8.48755C16.0507 8.75003 16.8351 8.2155 16.8305 7.41299M15.2813 8.48756L16.7305 7.41356M15.2813 8.48756L15.2802 8.48717C15.1646 8.44622 15.0383 8.36409 14.93 8.27067C14.822 8.17743 14.7222 8.06457 14.6663 7.95522M15.2813 8.48756L15.3136 8.39291C15.1136 8.32206 14.851 8.09702 14.7552 7.90949M16.8305 7.41299L16.7305 7.41356M16.8305 7.41299C16.8305 7.41318 16.8305 7.41337 16.8305 7.41356H16.7305M16.8305 7.41299C16.8305 7.28046 16.8046 7.09812 16.7708 7.00129L16.7705 7.0006C16.573 6.44926 15.9397 6.13277 15.3662 6.29199M16.7305 7.41356C16.7305 7.28854 16.7055 7.11768 16.6764 7.03433C16.4972 6.53424 15.9179 6.24252 15.3928 6.38838M15.3662 6.29199C15.3662 6.29197 15.3663 6.29196 15.3663 6.29195L15.3928 6.38838M15.3662 6.29199C15.3661 6.292 15.3661 6.29201 15.366 6.29203L15.3928 6.38838M15.3662 6.29199C14.6643 6.48475 14.3262 7.29742 14.6663 7.95522M15.3928 6.38838C14.7552 6.56341 14.4426 7.30521 14.7552 7.90949M14.7552 7.90949L14.6661 7.955C14.6662 7.95507 14.6662 7.95515 14.6663 7.95522M14.7552 7.90949L14.6664 7.95543C14.6663 7.95536 14.6663 7.95529 14.6663 7.95522M15.6284 7.63768C15.6958 7.65366 15.7764 7.63654 15.847 7.56803C15.8993 7.51377 15.9213 7.45941 15.9232 7.4111C15.9251 7.36306 15.9078 7.30939 15.8598 7.25488C15.8004 7.18834 15.7493 7.16206 15.7092 7.1562C15.6715 7.15071 15.6267 7.16071 15.5718 7.20421C15.5068 7.25626 15.4736 7.3009 15.4588 7.34032C15.445 7.37714 15.4434 7.41955 15.4624 7.47683C15.4957 7.56952 15.5608 7.62162 15.6284 7.63768Z" fill="#333333" stroke="#333333" stroke-width="0.2"/>
<path d="M9.07283 9.64808C10.1917 9.46631 10.8798 10.7851 10.0762 11.5887L10.0055 11.518L10.0766 11.5883C9.6307 12.0388 8.9348 12.0539 8.48186 11.6193L8.48176 11.6192C8.36383 11.5057 8.2758 11.3866 8.21787 11.2502C8.15996 11.114 8.13437 10.9657 8.13437 10.797C8.13437 10.1979 8.49932 9.73987 9.07283 9.64808ZM9.07283 9.64808C9.07277 9.64809 9.07271 9.6481 9.07265 9.64811L9.0887 9.74681L9.0729 9.64807C9.07288 9.64807 9.07285 9.64808 9.07283 9.64808ZM9.4479 10.6341L9.44744 10.6335C9.39416 10.5652 9.34007 10.5401 9.2922 10.538C9.2428 10.5358 9.17907 10.5574 9.10666 10.6245L9.10667 10.6245L9.10558 10.6255C9.0403 10.6842 9.02644 10.7784 9.06386 10.8686C9.10123 10.9587 9.18103 11.0221 9.27623 11.0221C9.46351 11.0221 9.57621 10.796 9.4479 10.6341Z" fill="#333333" stroke="#333333" stroke-width="0.2"/>
<path d="M15.4896 9.64854L15.4896 9.64854L15.4905 9.64838C15.9865 9.56648 16.5001 9.81999 16.7289 10.2547L16.7289 10.2547L16.7295 10.2559C16.7908 10.3762 16.8223 10.5467 16.8289 10.711C16.8354 10.8758 16.8175 11.0511 16.7672 11.1829C16.4122 12.12 15.0987 12.1979 14.6586 11.304L14.6586 11.304L14.6582 11.3031C14.4321 10.8328 14.5334 10.2503 14.907 9.91818L14.907 9.91817L14.9076 9.91766C14.9958 9.84042 15.0778 9.78319 15.1718 9.74003C15.2653 9.6971 15.3662 9.67019 15.4896 9.64854ZM15.8661 10.6344L15.8658 10.634C15.8494 10.6131 15.8254 10.5904 15.8001 10.5725C15.7876 10.5636 15.7761 10.5568 15.7664 10.5522C15.7616 10.5499 15.7577 10.5483 15.7547 10.5473L15.7512 10.5463C15.7504 10.5461 15.75 10.546 15.75 10.546L15.75 10.5461L15.7458 10.5453C15.6273 10.5218 15.5285 10.5837 15.4806 10.6764C15.4328 10.7688 15.4425 10.8769 15.5294 10.9498L15.5294 10.9498L15.5307 10.9509C15.7578 11.1481 16.0471 10.8621 15.8661 10.6344Z" fill="#333333" stroke="#333333" stroke-width="0.2"/>
</svg>
