<svg width="24" height="24" viewBox="0 0 24 24" fill="none" xmlns="http://www.w3.org/2000/svg">
<mask id="path-1-outside-1_2493_64288" maskUnits="userSpaceOnUse" x="2" y="2" width="20" height="20" fill="black">
<rect fill="white" x="2" y="2" width="20" height="20"/>
<path d="M3.10195 3.10195L3 3.20391V12V20.7961L3.10195 20.898L3.20391 21H8.23828H13.2727L13.3746 20.891L13.4766 20.782V20.1703V19.5586H15.6738H17.8711V20.1703V20.782L17.973 20.891L18.075 21H18.8801C19.9488 20.9965 19.9102 21.0316 19.9102 20.1457V19.5691L20.0789 19.5445C20.2617 19.5199 20.3848 19.432 20.441 19.2879C20.4586 19.2387 20.4727 17.973 20.4727 16.1625V13.125H20.5746C20.7152 13.125 20.8383 13.0758 20.9262 12.9809C20.9965 12.9035 21 12.8648 21 12.102C21 11.3531 20.9965 11.3004 20.9297 11.216C20.8875 11.1633 20.7961 11.107 20.7258 11.0859C20.6414 11.0648 19.4566 11.0508 17.3191 11.0508H14.0391V7.18711C14.0391 4.86328 14.025 3.28477 14.0074 3.23555C13.9863 3.18633 13.9371 3.1125 13.8949 3.07383L13.8141 3H8.50898H3.20391L3.10195 3.10195ZM8.13281 10.0664V16.3945H5.93555H3.73828V10.0664V3.73828H5.93555H8.13281V10.0664ZM13.2656 7.39453V11.0473L11.8348 11.0578C10.2914 11.0684 10.302 11.0684 10.2 11.2582C10.1648 11.3215 10.1543 11.543 10.1543 12.102C10.1543 12.777 10.1613 12.8719 10.2176 12.9563C10.2984 13.0723 10.4426 13.125 10.6852 13.125H10.875V16.1625C10.875 17.973 10.8891 19.2387 10.9066 19.2879C10.9629 19.432 11.0859 19.5199 11.2688 19.5445L11.4375 19.5691V19.9137V20.2617H10.1719H8.90625V12V3.73828H11.0859H13.2656V7.39453ZM20.2617 12.0879V12.3516H15.5859H10.9102V12.0879V11.8242H15.5859H20.2617V12.0879ZM19.6992 14.3027V15.4805H15.6738H11.6484V14.3027V13.125H15.6738H19.6992V14.3027ZM19.6992 17.5195V18.7852H15.6738H11.6484V17.5195V16.2539H15.6738H19.6992V17.5195ZM8.13281 18.7148V20.2617H5.93555H3.73828V18.7148V17.168H5.93555H8.13281V18.7148ZM12.7031 19.9102V20.2617H12.457H12.2109V19.9102V19.5586H12.457H12.7031V19.9102ZM19.1367 19.9102V20.2617H18.8906H18.6445V19.9102V19.5586H18.8906H19.1367V19.9102Z"/>
</mask>
<path d="M3.10195 3.10195L3 3.20391V12V20.7961L3.10195 20.898L3.20391 21H8.23828H13.2727L13.3746 20.891L13.4766 20.782V20.1703V19.5586H15.6738H17.8711V20.1703V20.782L17.973 20.891L18.075 21H18.8801C19.9488 20.9965 19.9102 21.0316 19.9102 20.1457V19.5691L20.0789 19.5445C20.2617 19.5199 20.3848 19.432 20.441 19.2879C20.4586 19.2387 20.4727 17.973 20.4727 16.1625V13.125H20.5746C20.7152 13.125 20.8383 13.0758 20.9262 12.9809C20.9965 12.9035 21 12.8648 21 12.102C21 11.3531 20.9965 11.3004 20.9297 11.216C20.8875 11.1633 20.7961 11.107 20.7258 11.0859C20.6414 11.0648 19.4566 11.0508 17.3191 11.0508H14.0391V7.18711C14.0391 4.86328 14.025 3.28477 14.0074 3.23555C13.9863 3.18633 13.9371 3.1125 13.8949 3.07383L13.8141 3H8.50898H3.20391L3.10195 3.10195ZM8.13281 10.0664V16.3945H5.93555H3.73828V10.0664V3.73828H5.93555H8.13281V10.0664ZM13.2656 7.39453V11.0473L11.8348 11.0578C10.2914 11.0684 10.302 11.0684 10.2 11.2582C10.1648 11.3215 10.1543 11.543 10.1543 12.102C10.1543 12.777 10.1613 12.8719 10.2176 12.9563C10.2984 13.0723 10.4426 13.125 10.6852 13.125H10.875V16.1625C10.875 17.973 10.8891 19.2387 10.9066 19.2879C10.9629 19.432 11.0859 19.5199 11.2688 19.5445L11.4375 19.5691V19.9137V20.2617H10.1719H8.90625V12V3.73828H11.0859H13.2656V7.39453ZM20.2617 12.0879V12.3516H15.5859H10.9102V12.0879V11.8242H15.5859H20.2617V12.0879ZM19.6992 14.3027V15.4805H15.6738H11.6484V14.3027V13.125H15.6738H19.6992V14.3027ZM19.6992 17.5195V18.7852H15.6738H11.6484V17.5195V16.2539H15.6738H19.6992V17.5195ZM8.13281 18.7148V20.2617H5.93555H3.73828V18.7148V17.168H5.93555H8.13281V18.7148ZM12.7031 19.9102V20.2617H12.457H12.2109V19.9102V19.5586H12.457H12.7031V19.9102ZM19.1367 19.9102V20.2617H18.8906H18.6445V19.9102V19.5586H18.8906H19.1367V19.9102Z" fill="#333333"/>
<path d="M3.10195 3.10195L3 3.20391V12V20.7961L3.10195 20.898L3.20391 21H8.23828H13.2727L13.3746 20.891L13.4766 20.782V20.1703V19.5586H15.6738H17.8711V20.1703V20.782L17.973 20.891L18.075 21H18.8801C19.9488 20.9965 19.9102 21.0316 19.9102 20.1457V19.5691L20.0789 19.5445C20.2617 19.5199 20.3848 19.432 20.441 19.2879C20.4586 19.2387 20.4727 17.973 20.4727 16.1625V13.125H20.5746C20.7152 13.125 20.8383 13.0758 20.9262 12.9809C20.9965 12.9035 21 12.8648 21 12.102C21 11.3531 20.9965 11.3004 20.9297 11.216C20.8875 11.1633 20.7961 11.107 20.7258 11.0859C20.6414 11.0648 19.4566 11.0508 17.3191 11.0508H14.0391V7.18711C14.0391 4.86328 14.025 3.28477 14.0074 3.23555C13.9863 3.18633 13.9371 3.1125 13.8949 3.07383L13.8141 3H8.50898H3.20391L3.10195 3.10195ZM8.13281 10.0664V16.3945H5.93555H3.73828V10.0664V3.73828H5.93555H8.13281V10.0664ZM13.2656 7.39453V11.0473L11.8348 11.0578C10.2914 11.0684 10.302 11.0684 10.2 11.2582C10.1648 11.3215 10.1543 11.543 10.1543 12.102C10.1543 12.777 10.1613 12.8719 10.2176 12.9563C10.2984 13.0723 10.4426 13.125 10.6852 13.125H10.875V16.1625C10.875 17.973 10.8891 19.2387 10.9066 19.2879C10.9629 19.432 11.0859 19.5199 11.2688 19.5445L11.4375 19.5691V19.9137V20.2617H10.1719H8.90625V12V3.73828H11.0859H13.2656V7.39453ZM20.2617 12.0879V12.3516H15.5859H10.9102V12.0879V11.8242H15.5859H20.2617V12.0879ZM19.6992 14.3027V15.4805H15.6738H11.6484V14.3027V13.125H15.6738H19.6992V14.3027ZM19.6992 17.5195V18.7852H15.6738H11.6484V17.5195V16.2539H15.6738H19.6992V17.5195ZM8.13281 18.7148V20.2617H5.93555H3.73828V18.7148V17.168H5.93555H8.13281V18.7148ZM12.7031 19.9102V20.2617H12.457H12.2109V19.9102V19.5586H12.457H12.7031V19.9102ZM19.1367 19.9102V20.2617H18.8906H18.6445V19.9102V19.5586H18.8906H19.1367V19.9102Z" stroke="#333333" stroke-width="0.2" mask="url(#path-1-outside-1_2493_64288)"/>
<path d="M6.04688 12.173H5.99687V12.123V11.5078V10.8926V10.8426H6.04688H6.36914H6.69141H6.74141V10.8926V11.5078V12.123V12.173H6.69141H6.36914H6.04688Z" fill="#333333" stroke="#333333" stroke-width="0.1"/>
<path d="M8.50781 12.173H8.45781V12.123V11.5078V10.8926V10.8426H8.50781H8.81543H9.12305H9.17305V10.8926V11.5078V12.123V12.173H9.12305H8.81543H8.50781Z" fill="#333333" stroke="#333333" stroke-width="0.1"/>
<path d="M13.0781 15.718H13.0281V15.668V15.3457V15.0234V14.9734H13.0781H13.5615H14.0449H14.0949V15.0234V15.3457V15.668V15.718H14.0449H13.5615H13.0781Z" fill="#333333" stroke="#333333" stroke-width="0.1"/>
<path d="M13.0781 18.2961H13.0281V18.2461V17.9385V17.6309V17.5809H13.0781H13.5615H14.0449H14.0949V17.6309V17.9385V18.2461V18.2961H14.0449H13.5615H13.0781Z" fill="#333333" stroke="#333333" stroke-width="0.1"/>
<path d="M4.96289 19.3801H4.91289V19.3301V19.0078V18.6855V18.6355H4.96289H5.44629H5.92969H5.97969V18.6855V19.0078V19.3301V19.3801H5.92969H5.44629H4.96289Z" fill="#333333" stroke="#333333" stroke-width="0.1"/>
</svg>
