<svg width="60" height="60" viewBox="0 0 60 60" fill="none" xmlns="http://www.w3.org/2000/svg">
<g clip-path="url(#clip0_4174_31203)">
<path d="M30 59.0625C46.0508 59.0625 59.0625 46.0508 59.0625 30C59.0625 13.9492 46.0508 0.9375 30 0.9375C13.9492 0.9375 0.9375 13.9492 0.9375 30C0.9375 46.0508 13.9492 59.0625 30 59.0625Z" fill="#E1F2EE"/>
<path d="M53.3223 47.3201C50.6118 43.6913 47.0922 40.7447 43.0434 38.7145C38.9945 36.6843 34.5279 35.6264 29.9985 35.625C25.4692 35.6236 21.0019 36.6786 16.9518 38.7063C12.9016 40.734 9.38024 43.6784 6.66748 47.3055C9.36645 50.951 12.8821 53.9134 16.9325 55.9551C20.9828 57.9969 25.4553 59.0611 29.9912 59.0625C34.5271 59.064 39.0002 58.0025 43.0519 55.9633C47.1035 53.9242 50.621 50.964 53.3223 47.3201Z" fill="#9AD0C4"/>
<path d="M30 31.875C36.2132 31.875 41.25 26.8382 41.25 20.625C41.25 14.4118 36.2132 9.375 30 9.375C23.7868 9.375 18.75 14.4118 18.75 20.625C18.75 26.8382 23.7868 31.875 30 31.875Z" fill="#9AD0C4"/>
</g>
<defs>
<clipPath id="clip0_4174_31203">
<rect width="60" height="60" fill="white"/>
</clipPath>
</defs>
</svg>
