<svg width="24" height="24" viewBox="0 0 24 24" fill="none" xmlns="http://www.w3.org/2000/svg">
<mask id="path-1-outside-1_2493_64276" maskUnits="userSpaceOnUse" x="3" y="1.87891" width="17" height="22" fill="black">
<rect fill="white" x="3" y="1.87891" width="17" height="22"/>
<path d="M12.4028 2.06427C11.9849 2.20792 11.6149 2.5257 11.4234 2.90442C11.3798 2.98713 10.84 4.39755 10.2262 6.03868C9.61246 7.67981 9.05526 9.11634 8.99431 9.23823C8.75924 9.70401 8.33699 10.061 7.81897 10.2307C7.57519 10.3091 7.40107 10.3222 6.11254 10.3439C4.53235 10.3744 4.55412 10.37 4.27552 10.6617C4.00998 10.9359 4.00127 10.9969 4.00127 12.3942C4.00127 13.957 3.93597 13.8308 4.7413 13.8308C5.05473 13.8308 5.30721 13.8395 5.30721 13.8525C5.30721 13.8656 5.03296 15.6634 4.69342 17.8487C4.0361 22.1148 4.02739 22.2236 4.21457 22.5022C4.3887 22.7547 4.58459 22.8592 4.91543 22.8766C5.30721 22.8984 5.60758 22.746 5.76429 22.4456C5.79911 22.3847 6.25619 20.4562 6.78728 18.1578C7.314 15.8637 7.75802 13.9483 7.77108 13.9048C7.79285 13.8395 7.8625 13.8308 8.42841 13.8308H9.05961L9.03349 13.9701C9.02043 14.0484 8.74183 15.8463 8.41535 17.9663C7.77979 22.1104 7.76673 22.2236 7.95827 22.5022C8.13675 22.7634 8.32828 22.8592 8.67653 22.8766C8.93337 22.8853 9.01608 22.8722 9.15973 22.7895C9.52539 22.5762 9.48186 22.7242 10.5092 18.2492C11.0272 15.9986 11.4669 14.0833 11.493 13.9918L11.5365 13.8308H12.1852H12.8338L12.8773 13.9918C12.9034 14.0833 13.3431 15.9986 13.8611 18.2449C14.3791 20.4911 14.8275 22.3847 14.8623 22.4456C15.019 22.746 15.3194 22.8984 15.7112 22.8766C16.042 22.8592 16.2379 22.7547 16.412 22.5022C16.6036 22.2236 16.5905 22.1104 15.955 17.9663C15.6285 15.8463 15.3499 14.0484 15.3368 13.9701C15.3107 13.8351 15.3151 13.8308 15.4674 13.8308C15.6067 13.8308 15.6241 13.8438 15.6633 13.9918C15.6894 14.0833 16.1291 15.9986 16.6471 18.2449C17.1651 20.4911 17.6135 22.3847 17.6483 22.4456C17.805 22.746 18.1054 22.8984 18.4972 22.8766C18.828 22.8592 19.0239 22.7547 19.1981 22.5022C19.3896 22.2193 19.3765 22.1191 18.7192 17.827C18.1054 13.8482 18.1011 13.8351 18.1881 13.7481C18.236 13.7002 18.2839 13.5957 18.3013 13.5174C18.3144 13.439 18.5886 11.2494 18.9151 8.65056C19.3548 5.13758 19.4984 3.8447 19.4897 3.59657C19.4549 2.97842 19.0936 2.43428 18.5146 2.14262L18.2578 2.01203L15.4282 2.00332C12.9426 1.99462 12.5769 2.00332 12.4028 2.06427ZM18.1402 2.79124C18.4885 2.9436 18.7584 3.34844 18.7584 3.72281C18.7584 3.80117 18.6191 4.96345 18.4537 6.30422C18.2447 7.95405 18.1185 8.82468 18.0619 8.9901C17.9531 9.30352 17.7136 9.64742 17.4829 9.83896C17.3262 9.96955 16.8909 10.2177 16.8212 10.2177C16.8125 10.2177 16.8735 10.1263 16.9605 10.0087C17.1826 9.72143 17.4002 9.24258 17.4699 8.88998C17.5482 8.4982 17.9574 5.18111 17.9313 5.15064C17.9182 5.14193 17.7528 5.12017 17.5613 5.10275L17.213 5.07228L16.9997 6.78306C16.8865 7.72769 16.769 8.59396 16.7472 8.71585C16.5775 9.56907 15.8592 10.2046 14.9494 10.3091C14.4357 10.3657 14.2964 10.4136 14.0875 10.6051C13.8393 10.8271 13.7523 11.0404 13.7523 11.4366V11.763H9.92153H6.09077V11.6063C6.09077 11.5193 6.11254 11.3843 6.13866 11.306C6.21702 11.0927 6.37808 11.0448 7.04411 11.0448C7.73626 11.0448 7.96697 11.0012 8.43276 10.7792C8.86807 10.5703 9.34256 10.1393 9.58199 9.74319C9.6734 9.58648 10.2306 8.163 10.9053 6.36081C11.8587 3.81423 12.0981 3.21785 12.22 3.07419C12.3898 2.8783 12.5508 2.78253 12.8077 2.7303C12.9078 2.71288 14.1092 2.69547 15.4718 2.69982C17.7876 2.70853 17.9661 2.71288 18.1402 2.79124ZM17.9052 10.6835C17.8921 10.801 17.8181 11.393 17.7398 12.0025L17.6048 13.1125L16.7211 13.1256L15.8418 13.1343V12.2854C15.8418 11.3147 15.8723 11.1754 16.103 11.0927C16.1813 11.0665 16.3293 11.0448 16.4251 11.0448C16.7908 11.0448 17.496 10.7923 17.7572 10.5746C17.9139 10.4397 17.9356 10.4571 17.9052 10.6835ZM5.40298 12.0895L5.38992 13.1343H5.04602H4.69777V12.2898C4.69777 11.7761 4.71518 11.393 4.74566 11.306C4.8066 11.1405 4.98073 11.0491 5.24191 11.0448H5.41604L5.40298 12.0895ZM15.154 12.0895L15.1409 13.1343H14.797H14.4488V12.2898C14.4488 11.7761 14.4662 11.393 14.4967 11.306C14.5576 11.1405 14.7317 11.0491 14.9929 11.0448H15.1671L15.154 12.0895ZM13.5085 12.4987C13.6652 12.564 13.7523 12.7338 13.7523 12.9863V13.1343H9.92153H6.09077V12.9863C6.09077 12.7425 6.17784 12.564 6.32584 12.4987C6.53044 12.4117 13.2952 12.4117 13.5085 12.4987ZM6.99187 13.9483C6.91787 14.3053 5.12873 22.019 5.10697 22.08C5.06344 22.1931 4.85449 22.1453 4.83707 22.019C4.82837 21.9624 5.09826 20.0949 5.44216 17.8705L6.06466 13.8308H6.53915H7.01799L6.99187 13.9483ZM10.7356 13.9483C10.6616 14.3053 8.87243 22.019 8.85066 22.08C8.80713 22.1931 8.59818 22.1453 8.58077 22.019C8.57206 21.9624 8.84195 20.0949 9.18585 17.8705L9.80835 13.8308H10.2828H10.7617L10.7356 13.9483ZM15.1845 17.8705C15.5284 20.0949 15.7983 21.9624 15.7895 22.019C15.7721 22.1453 15.5632 22.1931 15.5197 22.08C15.4979 22.019 13.7088 14.3053 13.6348 13.9483L13.613 13.8308H14.0875H14.562L15.1845 17.8705ZM17.9705 17.8705C18.3144 20.0949 18.5843 21.9624 18.5756 22.019C18.5581 22.1453 18.3492 22.1931 18.3057 22.08C18.2839 22.019 16.4948 14.3053 16.4208 13.9483L16.399 13.8308H16.8735H17.348L17.9705 17.8705Z"/>
</mask>
<path d="M12.4028 2.06427C11.9849 2.20792 11.6149 2.5257 11.4234 2.90442C11.3798 2.98713 10.84 4.39755 10.2262 6.03868C9.61246 7.67981 9.05526 9.11634 8.99431 9.23823C8.75924 9.70401 8.33699 10.061 7.81897 10.2307C7.57519 10.3091 7.40107 10.3222 6.11254 10.3439C4.53235 10.3744 4.55412 10.37 4.27552 10.6617C4.00998 10.9359 4.00127 10.9969 4.00127 12.3942C4.00127 13.957 3.93597 13.8308 4.7413 13.8308C5.05473 13.8308 5.30721 13.8395 5.30721 13.8525C5.30721 13.8656 5.03296 15.6634 4.69342 17.8487C4.0361 22.1148 4.02739 22.2236 4.21457 22.5022C4.3887 22.7547 4.58459 22.8592 4.91543 22.8766C5.30721 22.8984 5.60758 22.746 5.76429 22.4456C5.79911 22.3847 6.25619 20.4562 6.78728 18.1578C7.314 15.8637 7.75802 13.9483 7.77108 13.9048C7.79285 13.8395 7.8625 13.8308 8.42841 13.8308H9.05961L9.03349 13.9701C9.02043 14.0484 8.74183 15.8463 8.41535 17.9663C7.77979 22.1104 7.76673 22.2236 7.95827 22.5022C8.13675 22.7634 8.32828 22.8592 8.67653 22.8766C8.93337 22.8853 9.01608 22.8722 9.15973 22.7895C9.52539 22.5762 9.48186 22.7242 10.5092 18.2492C11.0272 15.9986 11.4669 14.0833 11.493 13.9918L11.5365 13.8308H12.1852H12.8338L12.8773 13.9918C12.9034 14.0833 13.3431 15.9986 13.8611 18.2449C14.3791 20.4911 14.8275 22.3847 14.8623 22.4456C15.019 22.746 15.3194 22.8984 15.7112 22.8766C16.042 22.8592 16.2379 22.7547 16.412 22.5022C16.6036 22.2236 16.5905 22.1104 15.955 17.9663C15.6285 15.8463 15.3499 14.0484 15.3368 13.9701C15.3107 13.8351 15.3151 13.8308 15.4674 13.8308C15.6067 13.8308 15.6241 13.8438 15.6633 13.9918C15.6894 14.0833 16.1291 15.9986 16.6471 18.2449C17.1651 20.4911 17.6135 22.3847 17.6483 22.4456C17.805 22.746 18.1054 22.8984 18.4972 22.8766C18.828 22.8592 19.0239 22.7547 19.1981 22.5022C19.3896 22.2193 19.3765 22.1191 18.7192 17.827C18.1054 13.8482 18.1011 13.8351 18.1881 13.7481C18.236 13.7002 18.2839 13.5957 18.3013 13.5174C18.3144 13.439 18.5886 11.2494 18.9151 8.65056C19.3548 5.13758 19.4984 3.8447 19.4897 3.59657C19.4549 2.97842 19.0936 2.43428 18.5146 2.14262L18.2578 2.01203L15.4282 2.00332C12.9426 1.99462 12.5769 2.00332 12.4028 2.06427ZM18.1402 2.79124C18.4885 2.9436 18.7584 3.34844 18.7584 3.72281C18.7584 3.80117 18.6191 4.96345 18.4537 6.30422C18.2447 7.95405 18.1185 8.82468 18.0619 8.9901C17.9531 9.30352 17.7136 9.64742 17.4829 9.83896C17.3262 9.96955 16.8909 10.2177 16.8212 10.2177C16.8125 10.2177 16.8735 10.1263 16.9605 10.0087C17.1826 9.72143 17.4002 9.24258 17.4699 8.88998C17.5482 8.4982 17.9574 5.18111 17.9313 5.15064C17.9182 5.14193 17.7528 5.12017 17.5613 5.10275L17.213 5.07228L16.9997 6.78306C16.8865 7.72769 16.769 8.59396 16.7472 8.71585C16.5775 9.56907 15.8592 10.2046 14.9494 10.3091C14.4357 10.3657 14.2964 10.4136 14.0875 10.6051C13.8393 10.8271 13.7523 11.0404 13.7523 11.4366V11.763H9.92153H6.09077V11.6063C6.09077 11.5193 6.11254 11.3843 6.13866 11.306C6.21702 11.0927 6.37808 11.0448 7.04411 11.0448C7.73626 11.0448 7.96697 11.0012 8.43276 10.7792C8.86807 10.5703 9.34256 10.1393 9.58199 9.74319C9.6734 9.58648 10.2306 8.163 10.9053 6.36081C11.8587 3.81423 12.0981 3.21785 12.22 3.07419C12.3898 2.8783 12.5508 2.78253 12.8077 2.7303C12.9078 2.71288 14.1092 2.69547 15.4718 2.69982C17.7876 2.70853 17.9661 2.71288 18.1402 2.79124ZM17.9052 10.6835C17.8921 10.801 17.8181 11.393 17.7398 12.0025L17.6048 13.1125L16.7211 13.1256L15.8418 13.1343V12.2854C15.8418 11.3147 15.8723 11.1754 16.103 11.0927C16.1813 11.0665 16.3293 11.0448 16.4251 11.0448C16.7908 11.0448 17.496 10.7923 17.7572 10.5746C17.9139 10.4397 17.9356 10.4571 17.9052 10.6835ZM5.40298 12.0895L5.38992 13.1343H5.04602H4.69777V12.2898C4.69777 11.7761 4.71518 11.393 4.74566 11.306C4.8066 11.1405 4.98073 11.0491 5.24191 11.0448H5.41604L5.40298 12.0895ZM15.154 12.0895L15.1409 13.1343H14.797H14.4488V12.2898C14.4488 11.7761 14.4662 11.393 14.4967 11.306C14.5576 11.1405 14.7317 11.0491 14.9929 11.0448H15.1671L15.154 12.0895ZM13.5085 12.4987C13.6652 12.564 13.7523 12.7338 13.7523 12.9863V13.1343H9.92153H6.09077V12.9863C6.09077 12.7425 6.17784 12.564 6.32584 12.4987C6.53044 12.4117 13.2952 12.4117 13.5085 12.4987ZM6.99187 13.9483C6.91787 14.3053 5.12873 22.019 5.10697 22.08C5.06344 22.1931 4.85449 22.1453 4.83707 22.019C4.82837 21.9624 5.09826 20.0949 5.44216 17.8705L6.06466 13.8308H6.53915H7.01799L6.99187 13.9483ZM10.7356 13.9483C10.6616 14.3053 8.87243 22.019 8.85066 22.08C8.80713 22.1931 8.59818 22.1453 8.58077 22.019C8.57206 21.9624 8.84195 20.0949 9.18585 17.8705L9.80835 13.8308H10.2828H10.7617L10.7356 13.9483ZM15.1845 17.8705C15.5284 20.0949 15.7983 21.9624 15.7895 22.019C15.7721 22.1453 15.5632 22.1931 15.5197 22.08C15.4979 22.019 13.7088 14.3053 13.6348 13.9483L13.613 13.8308H14.0875H14.562L15.1845 17.8705ZM17.9705 17.8705C18.3144 20.0949 18.5843 21.9624 18.5756 22.019C18.5581 22.1453 18.3492 22.1931 18.3057 22.08C18.2839 22.019 16.4948 14.3053 16.4208 13.9483L16.399 13.8308H16.8735H17.348L17.9705 17.8705Z" fill="#333333"/>
<path d="M12.4028 2.06427C11.9849 2.20792 11.6149 2.5257 11.4234 2.90442C11.3798 2.98713 10.84 4.39755 10.2262 6.03868C9.61246 7.67981 9.05526 9.11634 8.99431 9.23823C8.75924 9.70401 8.33699 10.061 7.81897 10.2307C7.57519 10.3091 7.40107 10.3222 6.11254 10.3439C4.53235 10.3744 4.55412 10.37 4.27552 10.6617C4.00998 10.9359 4.00127 10.9969 4.00127 12.3942C4.00127 13.957 3.93597 13.8308 4.7413 13.8308C5.05473 13.8308 5.30721 13.8395 5.30721 13.8525C5.30721 13.8656 5.03296 15.6634 4.69342 17.8487C4.0361 22.1148 4.02739 22.2236 4.21457 22.5022C4.3887 22.7547 4.58459 22.8592 4.91543 22.8766C5.30721 22.8984 5.60758 22.746 5.76429 22.4456C5.79911 22.3847 6.25619 20.4562 6.78728 18.1578C7.314 15.8637 7.75802 13.9483 7.77108 13.9048C7.79285 13.8395 7.8625 13.8308 8.42841 13.8308H9.05961L9.03349 13.9701C9.02043 14.0484 8.74183 15.8463 8.41535 17.9663C7.77979 22.1104 7.76673 22.2236 7.95827 22.5022C8.13675 22.7634 8.32828 22.8592 8.67653 22.8766C8.93337 22.8853 9.01608 22.8722 9.15973 22.7895C9.52539 22.5762 9.48186 22.7242 10.5092 18.2492C11.0272 15.9986 11.4669 14.0833 11.493 13.9918L11.5365 13.8308H12.1852H12.8338L12.8773 13.9918C12.9034 14.0833 13.3431 15.9986 13.8611 18.2449C14.3791 20.4911 14.8275 22.3847 14.8623 22.4456C15.019 22.746 15.3194 22.8984 15.7112 22.8766C16.042 22.8592 16.2379 22.7547 16.412 22.5022C16.6036 22.2236 16.5905 22.1104 15.955 17.9663C15.6285 15.8463 15.3499 14.0484 15.3368 13.9701C15.3107 13.8351 15.3151 13.8308 15.4674 13.8308C15.6067 13.8308 15.6241 13.8438 15.6633 13.9918C15.6894 14.0833 16.1291 15.9986 16.6471 18.2449C17.1651 20.4911 17.6135 22.3847 17.6483 22.4456C17.805 22.746 18.1054 22.8984 18.4972 22.8766C18.828 22.8592 19.0239 22.7547 19.1981 22.5022C19.3896 22.2193 19.3765 22.1191 18.7192 17.827C18.1054 13.8482 18.1011 13.8351 18.1881 13.7481C18.236 13.7002 18.2839 13.5957 18.3013 13.5174C18.3144 13.439 18.5886 11.2494 18.9151 8.65056C19.3548 5.13758 19.4984 3.8447 19.4897 3.59657C19.4549 2.97842 19.0936 2.43428 18.5146 2.14262L18.2578 2.01203L15.4282 2.00332C12.9426 1.99462 12.5769 2.00332 12.4028 2.06427ZM18.1402 2.79124C18.4885 2.9436 18.7584 3.34844 18.7584 3.72281C18.7584 3.80117 18.6191 4.96345 18.4537 6.30422C18.2447 7.95405 18.1185 8.82468 18.0619 8.9901C17.9531 9.30352 17.7136 9.64742 17.4829 9.83896C17.3262 9.96955 16.8909 10.2177 16.8212 10.2177C16.8125 10.2177 16.8735 10.1263 16.9605 10.0087C17.1826 9.72143 17.4002 9.24258 17.4699 8.88998C17.5482 8.4982 17.9574 5.18111 17.9313 5.15064C17.9182 5.14193 17.7528 5.12017 17.5613 5.10275L17.213 5.07228L16.9997 6.78306C16.8865 7.72769 16.769 8.59396 16.7472 8.71585C16.5775 9.56907 15.8592 10.2046 14.9494 10.3091C14.4357 10.3657 14.2964 10.4136 14.0875 10.6051C13.8393 10.8271 13.7523 11.0404 13.7523 11.4366V11.763H9.92153H6.09077V11.6063C6.09077 11.5193 6.11254 11.3843 6.13866 11.306C6.21702 11.0927 6.37808 11.0448 7.04411 11.0448C7.73626 11.0448 7.96697 11.0012 8.43276 10.7792C8.86807 10.5703 9.34256 10.1393 9.58199 9.74319C9.6734 9.58648 10.2306 8.163 10.9053 6.36081C11.8587 3.81423 12.0981 3.21785 12.22 3.07419C12.3898 2.8783 12.5508 2.78253 12.8077 2.7303C12.9078 2.71288 14.1092 2.69547 15.4718 2.69982C17.7876 2.70853 17.9661 2.71288 18.1402 2.79124ZM17.9052 10.6835C17.8921 10.801 17.8181 11.393 17.7398 12.0025L17.6048 13.1125L16.7211 13.1256L15.8418 13.1343V12.2854C15.8418 11.3147 15.8723 11.1754 16.103 11.0927C16.1813 11.0665 16.3293 11.0448 16.4251 11.0448C16.7908 11.0448 17.496 10.7923 17.7572 10.5746C17.9139 10.4397 17.9356 10.4571 17.9052 10.6835ZM5.40298 12.0895L5.38992 13.1343H5.04602H4.69777V12.2898C4.69777 11.7761 4.71518 11.393 4.74566 11.306C4.8066 11.1405 4.98073 11.0491 5.24191 11.0448H5.41604L5.40298 12.0895ZM15.154 12.0895L15.1409 13.1343H14.797H14.4488V12.2898C14.4488 11.7761 14.4662 11.393 14.4967 11.306C14.5576 11.1405 14.7317 11.0491 14.9929 11.0448H15.1671L15.154 12.0895ZM13.5085 12.4987C13.6652 12.564 13.7523 12.7338 13.7523 12.9863V13.1343H9.92153H6.09077V12.9863C6.09077 12.7425 6.17784 12.564 6.32584 12.4987C6.53044 12.4117 13.2952 12.4117 13.5085 12.4987ZM6.99187 13.9483C6.91787 14.3053 5.12873 22.019 5.10697 22.08C5.06344 22.1931 4.85449 22.1453 4.83707 22.019C4.82837 21.9624 5.09826 20.0949 5.44216 17.8705L6.06466 13.8308H6.53915H7.01799L6.99187 13.9483ZM10.7356 13.9483C10.6616 14.3053 8.87243 22.019 8.85066 22.08C8.80713 22.1931 8.59818 22.1453 8.58077 22.019C8.57206 21.9624 8.84195 20.0949 9.18585 17.8705L9.80835 13.8308H10.2828H10.7617L10.7356 13.9483ZM15.1845 17.8705C15.5284 20.0949 15.7983 21.9624 15.7895 22.019C15.7721 22.1453 15.5632 22.1931 15.5197 22.08C15.4979 22.019 13.7088 14.3053 13.6348 13.9483L13.613 13.8308H14.0875H14.562L15.1845 17.8705ZM17.9705 17.8705C18.3144 20.0949 18.5843 21.9624 18.5756 22.019C18.5581 22.1453 18.3492 22.1931 18.3057 22.08C18.2839 22.019 16.4948 14.3053 16.4208 13.9483L16.399 13.8308H16.8735H17.348L17.9705 17.8705Z" stroke="#333333" stroke-width="0.2" mask="url(#path-1-outside-1_2493_64276)"/>
</svg>
