<svg width="24" height="24" viewBox="0 0 24 24" fill="none" xmlns="http://www.w3.org/2000/svg">
<path d="M20.7632 19.9877L20.7678 19.9877C21.6101 19.9755 21.6224 19.9753 21.7 19.8773C21.7737 19.7832 21.7777 19.64 21.7777 14.6572V9.53116L20.7632 19.9877ZM20.7632 19.9877L20.7639 20.0377L19.9048 20.05L19.8853 20.0503L19.8708 20.0373L19.7569 19.9357M20.7632 19.9877L20.7639 20.0377L20.7759 20.0375C21.1896 20.0316 21.4051 20.0284 21.5258 20.0144C21.5871 20.0072 21.6302 19.9967 21.6641 19.978C21.6991 19.9586 21.7198 19.9328 21.7392 19.9083L21.7394 19.9081C21.7516 19.8925 21.7629 19.8748 21.7722 19.8454C21.7809 19.8179 21.7875 19.7812 21.793 19.7278C21.804 19.6207 21.8114 19.4362 21.8165 19.1013C21.8267 18.4304 21.8277 17.1483 21.8277 14.6572V9.57822M21.8277 9.57822L22.0508 9.5647L22.0511 9.56468L22.0616 9.56398C22.1605 9.55733 22.2444 9.55171 22.3095 9.53009C22.3447 9.5184 22.3763 9.50155 22.4035 9.47617C22.4306 9.45079 22.451 9.419 22.4664 9.38052C22.4965 9.30567 22.5099 9.20024 22.5165 9.05395C22.5232 8.90664 22.5232 8.71119 22.5232 8.45267V8.45113V7.59612V7.58012L22.5139 7.56709L21.6098 6.29889L21.6097 6.29876C21.36 5.95083 21.1236 5.62738 20.9439 5.38672C20.854 5.26643 20.7782 5.16662 20.722 5.09473C20.6938 5.05882 20.6704 5.02957 20.6524 5.00811C20.6453 4.99966 20.6389 4.9922 20.6332 4.98591C20.6317 4.98423 20.6303 4.98264 20.6289 4.98114C20.6231 4.97495 20.6158 4.96728 20.6085 4.96199L20.6073 4.96115L20.6073 4.96116C20.5938 4.95193 20.5767 4.94723 20.562 4.94409C20.5456 4.94057 20.5245 4.93753 20.4982 4.93479C20.4455 4.9293 20.3675 4.92457 20.2547 4.92044C20.029 4.91216 19.6603 4.90615 19.0683 4.9018C17.8843 4.89311 15.8048 4.89106 12.1844 4.89106H12.1843C8.96681 4.89311 6.88538 4.89618 5.60014 4.90385C4.95757 4.90769 4.51372 4.91267 4.22631 4.91927C4.08269 4.92256 3.97764 4.92627 3.9062 4.93047C3.87058 4.93257 3.84258 4.93482 3.82204 4.93732C3.81184 4.93856 3.80264 4.93995 3.79488 4.94161C3.78928 4.94281 3.77798 4.94534 3.7679 4.95145M21.8277 9.57822L17.6131 17.349M21.8277 9.57822L19.7569 19.9357M3.7679 4.95145C3.75999 4.95619 3.75182 4.96329 3.74553 4.96897C3.73796 4.9758 3.72884 4.98457 3.71842 4.99495C3.69752 5.01576 3.67007 5.04433 3.63703 5.07959C3.57088 5.15018 3.48122 5.24869 3.3745 5.36796C3.16098 5.60656 2.87848 5.92898 2.57763 6.27895L2.57754 6.27906L1.49343 7.54726L1.48152 7.56119L1.48144 7.57952L1.47734 8.44272L1.47734 8.44295L1.47734 8.44439C1.47734 8.70602 1.47734 8.90355 1.48404 9.0522C1.49069 9.19981 1.50406 9.30587 1.5341 9.38097C1.54955 9.41958 1.56991 9.45145 1.59709 9.47683C1.62429 9.50223 1.65603 9.51901 1.69121 9.53058C1.75537 9.55169 1.83792 9.55722 1.93506 9.56371C1.93982 9.56403 1.94462 9.56435 1.94945 9.56468L1.94978 9.5647L2.17281 9.57822V14.6572C2.17281 17.1483 2.17383 18.4304 2.18407 19.1013C2.18918 19.4362 2.1966 19.6207 2.20759 19.7278C2.21309 19.7812 2.2197 19.8179 2.22838 19.8454C2.23766 19.8748 2.24899 19.8925 2.26117 19.9081L2.26134 19.9083C2.28073 19.9328 2.30145 19.9586 2.33643 19.978C2.37037 19.9967 2.41345 20.0072 2.47476 20.0144C2.5955 20.0284 2.81092 20.0316 3.22468 20.0375L3.23665 20.0377L3.23666 20.0377L4.09577 20.05L4.11525 20.0503L4.12979 20.0373L4.24363 19.9356L4.36155 19.8381L4.37962 19.8231L4.37967 19.7997L4.39195 14.6614V14.6613L4.40005 9.57297H4.49331H4.5866L4.59468 13.4259L4.59468 13.4259L4.60695 17.3287L4.60701 17.3482L4.62021 17.3625L4.7184 17.4689L4.7193 17.4698C4.74274 17.4952 4.76582 17.5202 4.79721 17.5392C4.82997 17.559 4.86819 17.5704 4.92072 17.5776C5.02177 17.5913 5.19401 17.5913 5.52299 17.5913H5.53242H5.53271C5.88381 17.5893 6.08087 17.5855 6.20104 17.5584C6.26331 17.5444 6.30945 17.5233 6.34684 17.4901C6.38324 17.4579 6.40766 17.4173 6.43153 17.3726C6.43812 17.3604 6.44128 17.3452 6.44328 17.334C6.44573 17.3203 6.4479 17.303 6.44989 17.2823C6.45388 17.241 6.45742 17.1831 6.4606 17.1075C6.46696 16.9562 6.47195 16.7312 6.47579 16.4195C6.48346 15.7958 6.48653 14.8228 6.48653 13.3931V9.57297H12.0003H17.514V13.3931C17.514 14.8228 17.5171 15.7958 17.5248 16.4195C17.5286 16.7312 17.5336 16.9562 17.54 17.1075C17.5431 17.1831 17.5467 17.241 17.5507 17.2823C17.5527 17.303 17.5548 17.3203 17.5573 17.334C17.5593 17.3454 17.5625 17.3608 17.5693 17.3731M3.7679 4.95145C3.76769 4.95158 3.76747 4.95171 3.76725 4.95185L3.79375 4.99425L3.76856 4.95106C3.76834 4.95119 3.76812 4.95132 3.7679 4.95145ZM17.5693 17.3731C17.5694 17.3732 17.5695 17.3734 17.5695 17.3736L17.6131 17.349M17.5693 17.3731C17.5692 17.3729 17.5691 17.3728 17.569 17.3726L17.6131 17.349M17.5693 17.3731C17.5931 17.4175 17.6174 17.458 17.6537 17.4901C17.6911 17.5233 17.7372 17.5444 17.7995 17.5584C17.9197 17.5855 18.1167 17.5893 18.4678 17.5913L18.4681 17.5913L18.4776 17.5913C18.8066 17.5913 18.9788 17.5913 19.0798 17.5776C19.1324 17.5704 19.1706 17.559 19.2033 17.5392C19.2347 17.5203 19.2578 17.4952 19.2812 17.4699L19.2822 17.4689L19.3803 17.3625L19.3935 17.3482L19.3936 17.3287L19.4059 13.4259V13.4259L19.414 9.57297M17.6131 17.349C17.7072 17.525 17.7604 17.5372 18.4681 17.5413C19.1431 17.5413 19.1472 17.5413 19.2454 17.4349L19.3436 17.3286L19.3559 13.4258L19.3641 9.52297M19.414 9.57297H19.3641V9.52297M19.414 9.57297L19.4141 9.52308L19.3641 9.52297M19.414 9.57297H19.5072H19.6005M19.3641 9.52297H19.5072H19.6504M19.6504 9.52297L19.6004 9.52305L19.6005 9.57297M19.6504 9.52297V9.57297H19.6005M19.6504 9.52297L19.7569 19.9357M19.6005 9.57297L19.6086 14.6613V14.6614L19.6209 19.7997L19.6209 19.8231L19.639 19.8381L19.7569 19.9357M2.22281 9.53116V14.6572C2.22281 19.64 2.2269 19.7832 2.30054 19.8773C2.37813 19.9753 2.3905 19.9755 3.23274 19.9877L2.22281 9.53116ZM20.7512 6.56574L20.7511 6.56561L20.1524 5.72744H12.1639H4.17673L3.47168 6.54867L3.47154 6.54883C3.27329 6.77774 3.09348 6.98922 2.96329 7.14494C2.8997 7.22099 2.84807 7.2836 2.81195 7.32838C2.83788 7.3288 2.86896 7.32921 2.90504 7.32961C3.02993 7.33101 3.21417 7.33233 3.45146 7.33358C3.926 7.33607 4.61233 7.33824 5.4594 7.34003C7.15354 7.34361 9.49048 7.34566 12.0616 7.34566H21.312L20.7512 6.56574ZM2.31372 8.7366H12.0003H21.6868V8.45932V8.18204H12.0003H2.31372V8.45932V8.7366ZM3.56375 14.3913V9.57297H3.28647H3.00919V14.3913V19.2095H3.28647H3.56375V14.3913ZM5.53651 16.7549H5.65015V13.164V9.57297H5.53651H5.42287V13.164V16.7549H5.53651ZM18.464 16.7549H18.5777V13.164V9.57297H18.464H18.3504V13.164V16.7549H18.464ZM20.7141 19.2095H20.9914V14.3913V9.57297H20.7141H20.4368V14.3913V19.2095H20.7141Z" fill="#333333" stroke="#333333" stroke-width="0.1"/>
</svg>
