<svg width="24" height="24" viewBox="0 0 24 24" fill="none" xmlns="http://www.w3.org/2000/svg">
<path d="M18.5386 4.25127L18.5391 4.25118C19.211 4.12197 19.8506 4.70029 19.769 5.37515C19.7248 5.74696 19.5213 6.03888 19.18 6.2151C19.0578 6.27998 18.8958 6.3088 18.7331 6.30562C18.5699 6.30243 18.4006 6.26697 18.2626 6.19802C18.0372 6.08709 17.8673 5.90576 17.7643 5.66688C17.7214 5.56921 17.703 5.41575 17.7039 5.2682C17.7048 5.12035 17.7252 4.96649 17.7678 4.86765L17.7678 4.86765L17.7679 4.86736C17.9012 4.56384 18.2101 4.31772 18.5386 4.25127ZM19.0913 5.37604L19.0913 5.37604L19.0915 5.3754C19.1136 5.30445 19.1145 5.24082 19.097 5.18212C19.0795 5.12305 19.0422 5.06527 18.9819 5.00824C18.6885 4.73355 18.2398 5.05303 18.4044 5.42265L18.4045 5.42297C18.5436 5.7413 18.9917 5.7122 19.0913 5.37604Z" fill="#333333" stroke="#333333" stroke-width="0.1"/>
<path d="M18.8578 12.0754L18.8575 12.0994L18.847 13.2948L18.8369 14.442L18.3507 14.4548L18.3504 14.4548C17.9073 14.4689 17.7733 14.4864 17.5961 14.5529L17.5954 14.5531L17.5954 14.5532C17.2058 14.7061 16.9217 14.9943 16.7621 15.3967C16.6949 15.561 16.6811 15.7002 16.6671 16.1381L16.6671 16.1384L16.6543 16.625L16.1044 16.6347L16.1044 16.6347C15.8162 16.6399 15.6626 16.6434 15.5734 16.6563C15.5278 16.6629 15.4939 16.6725 15.4658 16.6891C15.4374 16.7058 15.419 16.7274 15.4022 16.7478L18.8578 12.0754ZM18.8578 12.0754L18.8765 12.0606M18.8578 12.0754L18.8765 12.0606M18.8765 12.0606L18.9604 11.9942C19.0861 11.8898 19.2598 11.8967 19.3918 12.0006C19.3919 12.0006 19.392 12.0007 19.3921 12.0008L19.483 12.0707L19.5025 12.0857V12.1103V13.4183C19.5025 14.0347 19.5017 14.365 19.4924 14.5542C19.4877 14.6488 19.4809 14.711 19.4701 14.7572C19.4589 14.8053 19.4436 14.8352 19.4248 14.865C19.3947 14.915 19.3636 14.9581 19.3232 14.9929C19.2819 15.0283 19.2335 15.053 19.1714 15.0702C19.051 15.1036 18.8722 15.1103 18.5806 15.1103C18.2567 15.1103 18.056 15.1219 17.9098 15.1589C17.7675 15.1949 17.6758 15.2552 17.5716 15.3594C17.4675 15.4635 17.4072 15.5552 17.3712 15.6975C17.3342 15.8437 17.3226 16.0444 17.3226 16.3683C17.3226 16.5807 17.3214 16.7461 17.3028 16.8722C17.284 16.9993 17.2465 17.096 17.1662 17.163C17.0877 17.2286 16.9764 17.2586 16.8283 17.2739C16.6793 17.2892 16.4833 17.2902 16.2283 17.2902H15.5181H15.4935M18.8765 12.0606L15.4935 17.2902M15.4935 17.2902L15.4785 17.2707M15.4935 17.2902L15.4785 17.2707M15.4785 17.2707L15.4083 17.1795L15.4785 17.2707Z" fill="#333333" stroke="#333333" stroke-width="0.1"/>
<path d="M10.0598 15.9013C10.0473 15.7551 10.0488 15.6334 10.0661 15.5352C10.0834 15.4369 10.1172 15.3583 10.1727 15.3028C10.2309 15.2446 10.3187 15.2204 10.4003 15.2214C10.4819 15.2224 10.569 15.2487 10.6267 15.3063C10.644 15.3237 10.6596 15.3426 10.6721 15.3671C10.6844 15.3914 10.6926 15.4188 10.6982 15.452C10.7091 15.5167 10.7116 15.6117 10.7116 15.7636C10.7116 15.8653 10.7088 15.9489 10.7008 16.0169C10.6929 16.0845 10.6795 16.1405 10.6562 16.1847C10.6319 16.2307 10.5976 16.2626 10.552 16.2819C10.5085 16.3003 10.4575 16.3059 10.4014 16.3059C10.2956 16.3059 10.2099 16.2811 10.1508 16.2083C10.0948 16.1394 10.0704 16.0363 10.0598 15.9013Z" fill="#333333" stroke="#333333" stroke-width="0.1"/>
<path d="M10.9988 15.762C10.9988 15.6343 11.0013 15.549 11.0128 15.4854C11.0249 15.4184 11.0471 15.3746 11.0838 15.3297C11.1144 15.2914 11.1459 15.2619 11.1876 15.2434C11.2287 15.2251 11.2747 15.2197 11.3301 15.2197C11.3882 15.2197 11.4409 15.2269 11.4864 15.2473C11.5333 15.2683 11.5696 15.3019 11.5961 15.3489C11.6464 15.4383 11.6614 15.5767 11.6614 15.7725C11.6614 15.9103 11.6589 15.998 11.6469 16.0602C11.6338 16.1276 11.6093 16.1667 11.5704 16.2077C11.5049 16.2774 11.4114 16.3098 11.3219 16.3077C11.2327 16.3057 11.1419 16.2692 11.0835 16.1939C11.047 16.1491 11.0249 16.1054 11.0128 16.0385C11.0013 15.9749 10.9988 15.8896 10.9988 15.762Z" fill="#333333" stroke="#333333" stroke-width="0.1"/>
<path d="M12.6035 15.8898L12.6035 15.8898C12.5947 16.0293 12.5733 16.1351 12.5201 16.2056C12.463 16.281 12.3781 16.3059 12.2723 16.3059C12.2134 16.3059 12.1604 16.301 12.1154 16.2841C12.0681 16.2663 12.0317 16.2358 12.0059 16.1898C11.9812 16.1458 11.9673 16.0897 11.9591 16.0215C11.9509 15.9529 11.948 15.8678 11.948 15.7636C11.948 15.6117 11.9506 15.5167 11.9615 15.452C11.9671 15.4188 11.9753 15.3914 11.9876 15.3671C12.0001 15.3426 12.0156 15.3237 12.033 15.3063C12.0907 15.2487 12.1778 15.2224 12.2594 15.2214C12.3409 15.2204 12.4288 15.2446 12.487 15.3028C12.5407 15.3566 12.5736 15.4335 12.5913 15.5295C12.6091 15.6257 12.6124 15.7454 12.6035 15.8898Z" fill="#333333" stroke="#333333" stroke-width="0.1"/>
<path d="M13.428 15.3122L13.428 15.3122L13.4283 15.3125C13.4477 15.331 13.4657 15.35 13.4802 15.3736C13.495 15.3977 13.5046 15.4243 13.511 15.4569C13.5231 15.519 13.5247 15.6108 13.5247 15.7636C13.5247 15.8653 13.5216 15.9491 13.513 16.0174C13.5044 16.0853 13.4898 16.1416 13.4645 16.1861C13.4381 16.2324 13.4013 16.2637 13.3534 16.2824C13.3076 16.3003 13.2537 16.3059 13.1934 16.3059C13.1353 16.3059 13.0826 16.2987 13.0371 16.2784C12.9903 16.2575 12.954 16.224 12.9275 16.1772C12.8771 16.0883 12.8621 15.9507 12.8621 15.7566C12.8621 15.6162 12.8636 15.53 12.8769 15.4694C12.8839 15.4374 12.8944 15.4111 12.9102 15.3868C12.9253 15.3634 12.944 15.3437 12.9648 15.3238C13.0928 15.1924 13.2958 15.1883 13.428 15.3122Z" fill="#333333" stroke="#333333" stroke-width="0.1"/>
<path d="M13.9016 15.3187L13.9016 15.3187L13.9021 15.3182C14.0173 15.1945 14.2233 15.1936 14.3535 15.2994L14.3536 15.2995C14.3736 15.3158 14.3931 15.3331 14.4088 15.3558C14.4251 15.3792 14.4354 15.4056 14.4421 15.4385C14.4548 15.5004 14.4563 15.5953 14.4563 15.7566C14.4563 15.8617 14.4535 15.9476 14.4453 16.0169C14.4372 16.0859 14.4235 16.1426 14.3992 16.1871C14.3739 16.2335 14.3381 16.2648 14.2911 16.2832C14.2464 16.3008 14.1938 16.3059 14.1356 16.3059C14.0765 16.3059 14.0235 16.3008 13.9785 16.2837C13.9315 16.2658 13.8951 16.2355 13.8693 16.19C13.8445 16.1465 13.8306 16.0913 13.8224 16.0246C13.8142 15.9576 13.8113 15.8749 13.8113 15.7742C13.8113 15.6242 13.8138 15.5322 13.8258 15.4683C13.832 15.4351 13.8411 15.408 13.8543 15.3832C13.8675 15.3586 13.8837 15.3385 13.9016 15.3187Z" fill="#333333" stroke="#333333" stroke-width="0.1"/>
<path d="M14.8074 16.1903L14.8074 16.1903C14.8657 16.2637 14.9586 16.3016 15.0492 16.3071C15.1399 16.3126 15.2369 16.2861 15.3038 16.2192C15.3212 16.2018 15.3367 16.1829 15.3492 16.1586C15.3615 16.1345 15.3697 16.1073 15.3753 16.0745C15.3863 16.0106 15.3888 15.9174 15.3888 15.7689C15.3888 15.6126 15.3873 15.5191 15.3752 15.4562C15.3688 15.4232 15.3592 15.3964 15.3444 15.3721C15.3299 15.3483 15.3118 15.3293 15.2924 15.3108L15.292 15.3104L15.292 15.3104C15.1713 15.198 14.9749 15.1946 14.8472 15.2972C14.8262 15.3134 14.8069 15.3309 14.7911 15.3538C14.7749 15.3772 14.7644 15.4035 14.757 15.4355C14.7429 15.4962 14.7385 15.5863 14.7333 15.7319L14.8074 16.1903ZM14.8074 16.1903L14.8068 16.1894M14.8074 16.1903L14.8068 16.1894M14.8068 16.1894C14.7699 16.141 14.7468 16.0999 14.7365 16.0303M14.8068 16.1894L14.7365 16.0303M14.7365 16.0303C14.7268 15.9659 14.7281 15.8766 14.7333 15.732L14.7365 16.0303Z" fill="#333333" stroke="#333333" stroke-width="0.1"/>
<path d="M15.7649 15.3187L15.7649 15.3187L15.7655 15.318C15.892 15.1831 16.1039 15.1898 16.2345 15.3238C16.2552 15.3437 16.274 15.3634 16.2891 15.3868C16.3048 15.4111 16.3154 15.4374 16.3224 15.4694C16.3357 15.53 16.3372 15.6162 16.3372 15.7566C16.3372 15.9507 16.3222 16.0884 16.2712 16.1774C16.2444 16.2243 16.2078 16.2577 16.1605 16.2785C16.1145 16.2987 16.0613 16.3059 16.0024 16.3059C15.9426 16.3059 15.8891 16.301 15.8438 16.2844C15.7963 16.2669 15.7595 16.2371 15.7332 16.1917C15.7081 16.1482 15.694 16.0929 15.6858 16.0261C15.6775 15.9589 15.6746 15.8758 15.6746 15.7742C15.6746 15.6242 15.6771 15.5322 15.6891 15.4683C15.6953 15.4351 15.7043 15.408 15.7176 15.3832C15.7308 15.3586 15.747 15.3385 15.7649 15.3187Z" fill="#333333" stroke="#333333" stroke-width="0.1"/>
<path d="M7.85028 15.4744L7.85028 15.4744L7.85093 15.4744C8.03128 15.4788 8.17591 15.4879 8.29036 15.5117C8.40542 15.5357 8.49512 15.5757 8.56083 15.6458C8.62631 15.7156 8.66238 15.8094 8.6827 15.9294C8.70297 16.0491 8.7084 16.2002 8.7084 16.3894C8.7084 16.6391 8.70344 16.7918 8.67471 16.9025C8.64454 17.0188 8.58864 17.0873 8.49946 17.171C8.47684 17.1928 8.45447 17.2137 8.42488 17.2296C8.39463 17.2459 8.36016 17.2553 8.31407 17.2613C8.22561 17.2727 8.07906 17.2727 7.80538 17.2727L7.79697 17.2727L7.78857 17.2727C7.51489 17.2727 7.36834 17.2727 7.27988 17.2613C7.23379 17.2553 7.19932 17.2459 7.16907 17.2296C7.13957 17.2137 7.11724 17.1929 7.09468 17.1712C7.0053 17.0891 6.94943 17.0205 6.91925 16.9048C6.89051 16.7945 6.88555 16.6426 6.88555 16.3964C6.88555 16.0947 6.89627 15.9039 6.94906 15.7753C7.00538 15.6381 7.10692 15.5759 7.25929 15.5197C7.31344 15.4997 7.38496 15.4878 7.47918 15.4811C7.574 15.4744 7.69518 15.4727 7.85028 15.4744ZM7.79697 16.6277H8.04584V16.3788V16.1299H7.79697H7.54811V16.3788V16.6277H7.79697Z" fill="#333333" stroke="#333333" stroke-width="0.1"/>
<path d="M18.08 15.5049L18.08 15.5049C17.9077 15.5597 17.7625 15.718 17.7128 15.9054L17.7128 15.9056C17.7007 15.9519 17.6927 16.0387 17.6883 16.1398L18.08 15.5049ZM18.08 15.5049L18.0811 15.5046M18.08 15.5049L18.0811 15.5046M18.0811 15.5046C18.1012 15.4986 18.133 15.4944 18.1691 15.491C18.2067 15.4875 18.2532 15.4846 18.3053 15.4824C18.4097 15.4779 18.5381 15.4762 18.6655 15.4779L18.6658 15.4779C18.9186 15.4832 19.0748 15.4925 19.1834 15.5299C19.2993 15.5697 19.359 15.6403 19.4247 15.748L19.4248 15.7481C19.4933 15.861 19.5024 15.9581 19.5024 16.3894C19.5024 16.6688 19.4957 16.8424 19.4622 16.9607C19.445 17.0217 19.4203 17.0697 19.385 17.1107C19.3501 17.1512 19.307 17.1826 19.2566 17.2128L19.2309 17.1699L18.0811 15.5046ZM18.0952 15.5525C17.9405 15.6018 17.8069 15.7459 17.7612 15.9182L18.0952 15.5525ZM18.3421 16.6277H18.5909H18.8398V16.3788V16.1299H18.5909H18.3421V16.3788V16.6277Z" fill="#333333" stroke="#333333" stroke-width="0.1"/>
<mask id="path-12-outside-1_2493_64282" maskUnits="userSpaceOnUse" x="1.99805" y="2.65625" width="20" height="19" fill="black">
<rect fill="white" x="1.99805" y="2.65625" width="20" height="19"/>
<path d="M4.70201 3.05588C4.31173 3.15081 3.99177 3.33716 3.66127 3.66767C3.33428 3.99114 3.15496 4.29704 3.04948 4.7049C2.97916 4.97563 2.98267 5.55929 3.04948 5.83003C3.22528 6.5051 3.67885 7.04657 4.31525 7.34544C4.55785 7.45795 4.7864 7.51069 5.18722 7.55288L5.38764 7.57398V14.0364V20.4989L5.46851 20.5727C5.58102 20.6782 5.7533 20.6747 5.8623 20.5622L5.9502 20.4778V19.6304V18.7866H6.30181H6.65341V19.648C6.65341 20.4637 6.65692 20.513 6.72373 20.5798C6.79757 20.6536 6.96634 20.6712 7.07533 20.6149C7.19136 20.5516 7.21597 20.3829 7.21597 19.5742V18.7866H7.55H7.8805L7.89105 19.6515C7.9016 20.513 7.9016 20.5165 7.98598 20.5833C8.0985 20.6747 8.2743 20.6712 8.36923 20.5692C8.44307 20.4884 8.44658 20.4602 8.44658 19.6375V18.7866H8.79819H9.14979V19.6269C9.14979 20.4216 9.15331 20.4708 9.22363 20.5587C9.32559 20.6888 9.53655 20.6888 9.63852 20.5587C9.70884 20.4708 9.71235 20.4216 9.71235 19.6269V18.7866H10.064H10.4156V19.648C10.4156 20.4848 10.4191 20.5095 10.4929 20.5798C10.5914 20.6677 10.7672 20.6712 10.8762 20.5833C10.9605 20.5165 10.9605 20.513 10.9711 19.6515L10.9816 18.7866H11.3121H11.6462V19.5742C11.6462 20.3829 11.6708 20.5516 11.7868 20.6149C11.8958 20.6712 12.0646 20.6536 12.1384 20.5798C12.2052 20.513 12.2087 20.4637 12.2087 19.648V18.7866H12.5603H12.9119V19.6304V20.4778L12.9998 20.5622C13.1124 20.6782 13.2917 20.6817 13.3972 20.5692C13.471 20.4884 13.4745 20.4602 13.4745 19.6375V18.7866H13.8261H14.1777V19.641C14.1777 20.4919 14.1777 20.4989 14.2586 20.5727C14.3711 20.6782 14.5434 20.6747 14.6524 20.5622L14.7403 20.4778V19.6304V18.7866H15.0919H15.4435V19.648C15.4435 20.4637 15.447 20.513 15.5138 20.5798C15.6052 20.6712 15.7951 20.6712 15.9041 20.5833C15.9885 20.5165 15.9885 20.513 15.999 19.6515L16.0096 18.7866H16.3401H16.6706L16.6811 19.6515C16.6917 20.513 16.6917 20.5165 16.7761 20.5833C16.8851 20.6712 17.0749 20.6712 17.1663 20.5798C17.2331 20.513 17.2367 20.4637 17.2367 19.648V18.7866H17.5883H17.9399V19.6269C17.9399 20.4216 17.9434 20.4708 18.0137 20.5587C18.1157 20.6888 18.3266 20.6888 18.4286 20.5587C18.4989 20.4708 18.5024 20.4216 18.5024 19.6269V18.7866H18.854H19.2056V19.641C19.2056 20.4919 19.2056 20.4989 19.2865 20.5727C19.399 20.6782 19.5713 20.6747 19.6803 20.5622L19.7682 20.4778V19.6304V18.7866H20.1198H20.4714V19.648C20.4714 20.4637 20.4749 20.513 20.5417 20.5798C20.6367 20.6747 20.8336 20.6747 20.9285 20.5798C20.9988 20.5095 20.9988 20.4637 20.9988 12.7109C20.9988 4.06498 21.0164 4.74709 20.7632 4.23023C20.5839 3.86456 20.1374 3.41803 19.7682 3.23871C19.2584 2.98556 19.5994 2.99962 14.0476 2.99962H9.04782L8.9775 3.09104C8.88609 3.20707 8.88257 3.35474 8.97047 3.46022L9.03728 3.54461L13.1229 3.56219L17.205 3.57977L17.0925 3.68525C16.9554 3.81534 16.7093 4.19156 16.6143 4.42361C16.4948 4.7049 16.4526 5.00376 16.4737 5.40107C16.5018 5.98473 16.6917 6.44182 17.0714 6.8321L17.2437 7.0079L11.1117 7.00086L4.98329 6.99032L4.75475 6.91296C4.01639 6.65981 3.5593 6.03044 3.5593 5.26746C3.5593 4.81038 3.69643 4.45526 4.00935 4.11772C4.21328 3.89972 4.38908 3.78018 4.69498 3.65712C4.87078 3.58328 4.9411 3.57977 6.48815 3.56219L10.102 3.54461L10.1688 3.46022C10.2567 3.35474 10.2532 3.20707 10.1618 3.09104L10.0915 2.99962L6.50222 3.00314C5.24348 3.00314 4.87078 3.0172 4.70201 3.05588ZM19.174 3.61844C19.6733 3.76612 20.0635 4.09662 20.2886 4.57129C20.4046 4.81389 20.4187 4.8807 20.4292 5.18308C20.4503 5.70697 20.3026 6.10779 19.9616 6.46291C19.4025 7.03603 18.4954 7.14854 17.8379 6.73013C17.0222 6.20624 16.7831 5.15143 17.2999 4.34978C17.7008 3.72744 18.4954 3.41803 19.174 3.61844ZM20.4714 12.5105V18.2592H13.2108H5.9502V12.9148V7.57046H6.44245H6.93469V11.1252C6.93469 14.6588 6.93469 14.6834 7.00853 14.81C7.12807 15.028 7.16675 15.0385 7.86644 15.0596C8.5591 15.0842 8.67161 15.1123 8.87554 15.3303C9.07595 15.5413 9.11463 15.6925 9.11463 16.3043C9.11463 16.8106 9.12166 16.8739 9.19198 16.9969C9.33262 17.2501 9.20253 17.2395 12.0259 17.2395H14.561L14.6313 17.1481C14.7227 17.0321 14.7262 16.8844 14.6383 16.7789L14.5715 16.6946L12.1244 16.684L9.67719 16.677V16.2093C9.67719 15.5132 9.56468 15.1827 9.22011 14.8697C8.9107 14.5885 8.58371 14.497 7.91215 14.497H7.49726V11.0373V7.57749L7.57461 7.5564C7.62032 7.54585 8.0563 7.5353 8.54503 7.5353H9.43107V7.66891C9.43107 7.79197 9.3924 7.83768 8.76303 8.46705C8.29188 8.9382 8.08443 9.17026 8.06334 9.24761C8.00005 9.47263 8.0563 9.55702 8.76303 10.2602L9.43107 10.9283V11.8706C9.43107 12.6582 9.44162 12.8304 9.48733 12.9183C9.58578 13.1082 9.68071 13.1258 10.7039 13.1258H11.6251L12.3142 13.8114L13.0034 14.497H13.1932H13.3831L14.0722 13.8114L14.7614 13.1258H15.7002C16.4666 13.1258 16.66 13.1152 16.7444 13.0731C16.9554 12.9641 16.9554 12.9535 16.9554 11.8952V10.9283L17.6234 10.2602C17.9891 9.89456 18.3055 9.54999 18.3301 9.49725C18.3548 9.44099 18.3583 9.34606 18.3442 9.2687C18.3231 9.15619 18.2176 9.02961 17.6375 8.44947C17.0362 7.8412 16.9554 7.74978 16.9554 7.64781V7.5353H17.9223H18.8857L18.8962 9.34957L18.9068 11.1638L18.9912 11.2306C19.0966 11.3186 19.2443 11.315 19.3603 11.2236L19.4518 11.1533V9.29683V7.44388L19.6733 7.34895C19.9018 7.24699 20.3448 6.93758 20.4116 6.82858C20.4362 6.7899 20.4573 6.76178 20.4609 6.76178C20.4679 6.76178 20.4714 9.34957 20.4714 12.5105ZM10.7672 7.9291V8.31938L10.3452 8.75185C9.92683 9.1808 9.92332 9.1808 9.92332 9.34957C9.92332 9.51483 9.92683 9.51834 10.3452 9.94378L10.7672 10.3692V10.9564V11.5436L10.8691 11.6561L10.9711 11.7721L11.5829 11.7827L12.1912 11.7932L12.6166 12.2151C13.0174 12.6089 13.0491 12.6335 13.1827 12.6335C13.3585 12.6335 13.4886 12.5386 13.914 12.1097L14.2305 11.7897H14.793C15.2677 11.7897 15.3696 11.7792 15.4435 11.7299C15.6123 11.6139 15.6158 11.5893 15.6193 10.9845V10.4079L16.0377 9.98246C16.6284 9.3777 16.6284 9.33199 16.0236 8.73075L15.6193 8.32641V7.93261V7.5353H16.006H16.3928V7.70759C16.3928 7.80252 16.4104 7.92558 16.428 7.98184C16.4491 8.03458 16.7514 8.36508 17.096 8.71317L17.7289 9.34606L17.1101 9.96136C16.769 10.2989 16.4702 10.6259 16.442 10.6892C16.4034 10.7771 16.3928 11.0056 16.3928 11.6842V12.5632H15.4927C14.9055 12.5632 14.568 12.5773 14.5188 12.6019C14.4766 12.623 14.1601 12.9183 13.8156 13.2594L13.1932 13.8817L12.5428 13.2313L11.8923 12.5808L10.943 12.5703L9.99364 12.5597V11.6631C9.99364 11.0759 9.97957 10.7384 9.95496 10.6892C9.93386 10.647 9.63852 10.3305 9.29746 9.98949L8.67513 9.36364L9.29746 8.7413C9.63852 8.39673 9.93386 8.06974 9.95496 8.017C9.97606 7.96074 9.99364 7.83065 9.99364 7.72517V7.5353H10.3804H10.7672V7.9291ZM15.0567 7.96426C15.0567 8.20335 15.0708 8.45298 15.0919 8.51979C15.1165 8.60417 15.236 8.75185 15.4751 8.99094L15.8267 9.34254L15.4646 9.71172C15.2009 9.98597 15.0989 10.1161 15.0813 10.204C15.0673 10.2673 15.0567 10.5239 15.0567 10.7736V11.2271H14.5363C13.9281 11.2271 13.9843 11.2025 13.5167 11.6631L13.1932 11.9831L12.8487 11.642C12.6623 11.4557 12.4724 11.2869 12.4302 11.2658C12.3845 11.2412 12.149 11.2271 11.8431 11.2271H11.3297V10.7173C11.3297 10.3411 11.3157 10.1794 11.2805 10.109C11.2524 10.0563 11.0766 9.86291 10.8937 9.68008L10.5562 9.34606L10.9324 8.96984L11.3121 8.59011L11.3227 8.06271L11.3332 7.5353H13.1967H15.0567V7.96426Z"/>
</mask>
<path d="M4.70201 3.05588C4.31173 3.15081 3.99177 3.33716 3.66127 3.66767C3.33428 3.99114 3.15496 4.29704 3.04948 4.7049C2.97916 4.97563 2.98267 5.55929 3.04948 5.83003C3.22528 6.5051 3.67885 7.04657 4.31525 7.34544C4.55785 7.45795 4.7864 7.51069 5.18722 7.55288L5.38764 7.57398V14.0364V20.4989L5.46851 20.5727C5.58102 20.6782 5.7533 20.6747 5.8623 20.5622L5.9502 20.4778V19.6304V18.7866H6.30181H6.65341V19.648C6.65341 20.4637 6.65692 20.513 6.72373 20.5798C6.79757 20.6536 6.96634 20.6712 7.07533 20.6149C7.19136 20.5516 7.21597 20.3829 7.21597 19.5742V18.7866H7.55H7.8805L7.89105 19.6515C7.9016 20.513 7.9016 20.5165 7.98598 20.5833C8.0985 20.6747 8.2743 20.6712 8.36923 20.5692C8.44307 20.4884 8.44658 20.4602 8.44658 19.6375V18.7866H8.79819H9.14979V19.6269C9.14979 20.4216 9.15331 20.4708 9.22363 20.5587C9.32559 20.6888 9.53655 20.6888 9.63852 20.5587C9.70884 20.4708 9.71235 20.4216 9.71235 19.6269V18.7866H10.064H10.4156V19.648C10.4156 20.4848 10.4191 20.5095 10.4929 20.5798C10.5914 20.6677 10.7672 20.6712 10.8762 20.5833C10.9605 20.5165 10.9605 20.513 10.9711 19.6515L10.9816 18.7866H11.3121H11.6462V19.5742C11.6462 20.3829 11.6708 20.5516 11.7868 20.6149C11.8958 20.6712 12.0646 20.6536 12.1384 20.5798C12.2052 20.513 12.2087 20.4637 12.2087 19.648V18.7866H12.5603H12.9119V19.6304V20.4778L12.9998 20.5622C13.1124 20.6782 13.2917 20.6817 13.3972 20.5692C13.471 20.4884 13.4745 20.4602 13.4745 19.6375V18.7866H13.8261H14.1777V19.641C14.1777 20.4919 14.1777 20.4989 14.2586 20.5727C14.3711 20.6782 14.5434 20.6747 14.6524 20.5622L14.7403 20.4778V19.6304V18.7866H15.0919H15.4435V19.648C15.4435 20.4637 15.447 20.513 15.5138 20.5798C15.6052 20.6712 15.7951 20.6712 15.9041 20.5833C15.9885 20.5165 15.9885 20.513 15.999 19.6515L16.0096 18.7866H16.3401H16.6706L16.6811 19.6515C16.6917 20.513 16.6917 20.5165 16.7761 20.5833C16.8851 20.6712 17.0749 20.6712 17.1663 20.5798C17.2331 20.513 17.2367 20.4637 17.2367 19.648V18.7866H17.5883H17.9399V19.6269C17.9399 20.4216 17.9434 20.4708 18.0137 20.5587C18.1157 20.6888 18.3266 20.6888 18.4286 20.5587C18.4989 20.4708 18.5024 20.4216 18.5024 19.6269V18.7866H18.854H19.2056V19.641C19.2056 20.4919 19.2056 20.4989 19.2865 20.5727C19.399 20.6782 19.5713 20.6747 19.6803 20.5622L19.7682 20.4778V19.6304V18.7866H20.1198H20.4714V19.648C20.4714 20.4637 20.4749 20.513 20.5417 20.5798C20.6367 20.6747 20.8336 20.6747 20.9285 20.5798C20.9988 20.5095 20.9988 20.4637 20.9988 12.7109C20.9988 4.06498 21.0164 4.74709 20.7632 4.23023C20.5839 3.86456 20.1374 3.41803 19.7682 3.23871C19.2584 2.98556 19.5994 2.99962 14.0476 2.99962H9.04782L8.9775 3.09104C8.88609 3.20707 8.88257 3.35474 8.97047 3.46022L9.03728 3.54461L13.1229 3.56219L17.205 3.57977L17.0925 3.68525C16.9554 3.81534 16.7093 4.19156 16.6143 4.42361C16.4948 4.7049 16.4526 5.00376 16.4737 5.40107C16.5018 5.98473 16.6917 6.44182 17.0714 6.8321L17.2437 7.0079L11.1117 7.00086L4.98329 6.99032L4.75475 6.91296C4.01639 6.65981 3.5593 6.03044 3.5593 5.26746C3.5593 4.81038 3.69643 4.45526 4.00935 4.11772C4.21328 3.89972 4.38908 3.78018 4.69498 3.65712C4.87078 3.58328 4.9411 3.57977 6.48815 3.56219L10.102 3.54461L10.1688 3.46022C10.2567 3.35474 10.2532 3.20707 10.1618 3.09104L10.0915 2.99962L6.50222 3.00314C5.24348 3.00314 4.87078 3.0172 4.70201 3.05588ZM19.174 3.61844C19.6733 3.76612 20.0635 4.09662 20.2886 4.57129C20.4046 4.81389 20.4187 4.8807 20.4292 5.18308C20.4503 5.70697 20.3026 6.10779 19.9616 6.46291C19.4025 7.03603 18.4954 7.14854 17.8379 6.73013C17.0222 6.20624 16.7831 5.15143 17.2999 4.34978C17.7008 3.72744 18.4954 3.41803 19.174 3.61844ZM20.4714 12.5105V18.2592H13.2108H5.9502V12.9148V7.57046H6.44245H6.93469V11.1252C6.93469 14.6588 6.93469 14.6834 7.00853 14.81C7.12807 15.028 7.16675 15.0385 7.86644 15.0596C8.5591 15.0842 8.67161 15.1123 8.87554 15.3303C9.07595 15.5413 9.11463 15.6925 9.11463 16.3043C9.11463 16.8106 9.12166 16.8739 9.19198 16.9969C9.33262 17.2501 9.20253 17.2395 12.0259 17.2395H14.561L14.6313 17.1481C14.7227 17.0321 14.7262 16.8844 14.6383 16.7789L14.5715 16.6946L12.1244 16.684L9.67719 16.677V16.2093C9.67719 15.5132 9.56468 15.1827 9.22011 14.8697C8.9107 14.5885 8.58371 14.497 7.91215 14.497H7.49726V11.0373V7.57749L7.57461 7.5564C7.62032 7.54585 8.0563 7.5353 8.54503 7.5353H9.43107V7.66891C9.43107 7.79197 9.3924 7.83768 8.76303 8.46705C8.29188 8.9382 8.08443 9.17026 8.06334 9.24761C8.00005 9.47263 8.0563 9.55702 8.76303 10.2602L9.43107 10.9283V11.8706C9.43107 12.6582 9.44162 12.8304 9.48733 12.9183C9.58578 13.1082 9.68071 13.1258 10.7039 13.1258H11.6251L12.3142 13.8114L13.0034 14.497H13.1932H13.3831L14.0722 13.8114L14.7614 13.1258H15.7002C16.4666 13.1258 16.66 13.1152 16.7444 13.0731C16.9554 12.9641 16.9554 12.9535 16.9554 11.8952V10.9283L17.6234 10.2602C17.9891 9.89456 18.3055 9.54999 18.3301 9.49725C18.3548 9.44099 18.3583 9.34606 18.3442 9.2687C18.3231 9.15619 18.2176 9.02961 17.6375 8.44947C17.0362 7.8412 16.9554 7.74978 16.9554 7.64781V7.5353H17.9223H18.8857L18.8962 9.34957L18.9068 11.1638L18.9912 11.2306C19.0966 11.3186 19.2443 11.315 19.3603 11.2236L19.4518 11.1533V9.29683V7.44388L19.6733 7.34895C19.9018 7.24699 20.3448 6.93758 20.4116 6.82858C20.4362 6.7899 20.4573 6.76178 20.4609 6.76178C20.4679 6.76178 20.4714 9.34957 20.4714 12.5105ZM10.7672 7.9291V8.31938L10.3452 8.75185C9.92683 9.1808 9.92332 9.1808 9.92332 9.34957C9.92332 9.51483 9.92683 9.51834 10.3452 9.94378L10.7672 10.3692V10.9564V11.5436L10.8691 11.6561L10.9711 11.7721L11.5829 11.7827L12.1912 11.7932L12.6166 12.2151C13.0174 12.6089 13.0491 12.6335 13.1827 12.6335C13.3585 12.6335 13.4886 12.5386 13.914 12.1097L14.2305 11.7897H14.793C15.2677 11.7897 15.3696 11.7792 15.4435 11.7299C15.6123 11.6139 15.6158 11.5893 15.6193 10.9845V10.4079L16.0377 9.98246C16.6284 9.3777 16.6284 9.33199 16.0236 8.73075L15.6193 8.32641V7.93261V7.5353H16.006H16.3928V7.70759C16.3928 7.80252 16.4104 7.92558 16.428 7.98184C16.4491 8.03458 16.7514 8.36508 17.096 8.71317L17.7289 9.34606L17.1101 9.96136C16.769 10.2989 16.4702 10.6259 16.442 10.6892C16.4034 10.7771 16.3928 11.0056 16.3928 11.6842V12.5632H15.4927C14.9055 12.5632 14.568 12.5773 14.5188 12.6019C14.4766 12.623 14.1601 12.9183 13.8156 13.2594L13.1932 13.8817L12.5428 13.2313L11.8923 12.5808L10.943 12.5703L9.99364 12.5597V11.6631C9.99364 11.0759 9.97957 10.7384 9.95496 10.6892C9.93386 10.647 9.63852 10.3305 9.29746 9.98949L8.67513 9.36364L9.29746 8.7413C9.63852 8.39673 9.93386 8.06974 9.95496 8.017C9.97606 7.96074 9.99364 7.83065 9.99364 7.72517V7.5353H10.3804H10.7672V7.9291ZM15.0567 7.96426C15.0567 8.20335 15.0708 8.45298 15.0919 8.51979C15.1165 8.60417 15.236 8.75185 15.4751 8.99094L15.8267 9.34254L15.4646 9.71172C15.2009 9.98597 15.0989 10.1161 15.0813 10.204C15.0673 10.2673 15.0567 10.5239 15.0567 10.7736V11.2271H14.5363C13.9281 11.2271 13.9843 11.2025 13.5167 11.6631L13.1932 11.9831L12.8487 11.642C12.6623 11.4557 12.4724 11.2869 12.4302 11.2658C12.3845 11.2412 12.149 11.2271 11.8431 11.2271H11.3297V10.7173C11.3297 10.3411 11.3157 10.1794 11.2805 10.109C11.2524 10.0563 11.0766 9.86291 10.8937 9.68008L10.5562 9.34606L10.9324 8.96984L11.3121 8.59011L11.3227 8.06271L11.3332 7.5353H13.1967H15.0567V7.96426Z" fill="#333333"/>
<path d="M4.70201 3.05588C4.31173 3.15081 3.99177 3.33716 3.66127 3.66767C3.33428 3.99114 3.15496 4.29704 3.04948 4.7049C2.97916 4.97563 2.98267 5.55929 3.04948 5.83003C3.22528 6.5051 3.67885 7.04657 4.31525 7.34544C4.55785 7.45795 4.7864 7.51069 5.18722 7.55288L5.38764 7.57398V14.0364V20.4989L5.46851 20.5727C5.58102 20.6782 5.7533 20.6747 5.8623 20.5622L5.9502 20.4778V19.6304V18.7866H6.30181H6.65341V19.648C6.65341 20.4637 6.65692 20.513 6.72373 20.5798C6.79757 20.6536 6.96634 20.6712 7.07533 20.6149C7.19136 20.5516 7.21597 20.3829 7.21597 19.5742V18.7866H7.55H7.8805L7.89105 19.6515C7.9016 20.513 7.9016 20.5165 7.98598 20.5833C8.0985 20.6747 8.2743 20.6712 8.36923 20.5692C8.44307 20.4884 8.44658 20.4602 8.44658 19.6375V18.7866H8.79819H9.14979V19.6269C9.14979 20.4216 9.15331 20.4708 9.22363 20.5587C9.32559 20.6888 9.53655 20.6888 9.63852 20.5587C9.70884 20.4708 9.71235 20.4216 9.71235 19.6269V18.7866H10.064H10.4156V19.648C10.4156 20.4848 10.4191 20.5095 10.4929 20.5798C10.5914 20.6677 10.7672 20.6712 10.8762 20.5833C10.9605 20.5165 10.9605 20.513 10.9711 19.6515L10.9816 18.7866H11.3121H11.6462V19.5742C11.6462 20.3829 11.6708 20.5516 11.7868 20.6149C11.8958 20.6712 12.0646 20.6536 12.1384 20.5798C12.2052 20.513 12.2087 20.4637 12.2087 19.648V18.7866H12.5603H12.9119V19.6304V20.4778L12.9998 20.5622C13.1124 20.6782 13.2917 20.6817 13.3972 20.5692C13.471 20.4884 13.4745 20.4602 13.4745 19.6375V18.7866H13.8261H14.1777V19.641C14.1777 20.4919 14.1777 20.4989 14.2586 20.5727C14.3711 20.6782 14.5434 20.6747 14.6524 20.5622L14.7403 20.4778V19.6304V18.7866H15.0919H15.4435V19.648C15.4435 20.4637 15.447 20.513 15.5138 20.5798C15.6052 20.6712 15.7951 20.6712 15.9041 20.5833C15.9885 20.5165 15.9885 20.513 15.999 19.6515L16.0096 18.7866H16.3401H16.6706L16.6811 19.6515C16.6917 20.513 16.6917 20.5165 16.7761 20.5833C16.8851 20.6712 17.0749 20.6712 17.1663 20.5798C17.2331 20.513 17.2367 20.4637 17.2367 19.648V18.7866H17.5883H17.9399V19.6269C17.9399 20.4216 17.9434 20.4708 18.0137 20.5587C18.1157 20.6888 18.3266 20.6888 18.4286 20.5587C18.4989 20.4708 18.5024 20.4216 18.5024 19.6269V18.7866H18.854H19.2056V19.641C19.2056 20.4919 19.2056 20.4989 19.2865 20.5727C19.399 20.6782 19.5713 20.6747 19.6803 20.5622L19.7682 20.4778V19.6304V18.7866H20.1198H20.4714V19.648C20.4714 20.4637 20.4749 20.513 20.5417 20.5798C20.6367 20.6747 20.8336 20.6747 20.9285 20.5798C20.9988 20.5095 20.9988 20.4637 20.9988 12.7109C20.9988 4.06498 21.0164 4.74709 20.7632 4.23023C20.5839 3.86456 20.1374 3.41803 19.7682 3.23871C19.2584 2.98556 19.5994 2.99962 14.0476 2.99962H9.04782L8.9775 3.09104C8.88609 3.20707 8.88257 3.35474 8.97047 3.46022L9.03728 3.54461L13.1229 3.56219L17.205 3.57977L17.0925 3.68525C16.9554 3.81534 16.7093 4.19156 16.6143 4.42361C16.4948 4.7049 16.4526 5.00376 16.4737 5.40107C16.5018 5.98473 16.6917 6.44182 17.0714 6.8321L17.2437 7.0079L11.1117 7.00086L4.98329 6.99032L4.75475 6.91296C4.01639 6.65981 3.5593 6.03044 3.5593 5.26746C3.5593 4.81038 3.69643 4.45526 4.00935 4.11772C4.21328 3.89972 4.38908 3.78018 4.69498 3.65712C4.87078 3.58328 4.9411 3.57977 6.48815 3.56219L10.102 3.54461L10.1688 3.46022C10.2567 3.35474 10.2532 3.20707 10.1618 3.09104L10.0915 2.99962L6.50222 3.00314C5.24348 3.00314 4.87078 3.0172 4.70201 3.05588ZM19.174 3.61844C19.6733 3.76612 20.0635 4.09662 20.2886 4.57129C20.4046 4.81389 20.4187 4.8807 20.4292 5.18308C20.4503 5.70697 20.3026 6.10779 19.9616 6.46291C19.4025 7.03603 18.4954 7.14854 17.8379 6.73013C17.0222 6.20624 16.7831 5.15143 17.2999 4.34978C17.7008 3.72744 18.4954 3.41803 19.174 3.61844ZM20.4714 12.5105V18.2592H13.2108H5.9502V12.9148V7.57046H6.44245H6.93469V11.1252C6.93469 14.6588 6.93469 14.6834 7.00853 14.81C7.12807 15.028 7.16675 15.0385 7.86644 15.0596C8.5591 15.0842 8.67161 15.1123 8.87554 15.3303C9.07595 15.5413 9.11463 15.6925 9.11463 16.3043C9.11463 16.8106 9.12166 16.8739 9.19198 16.9969C9.33262 17.2501 9.20253 17.2395 12.0259 17.2395H14.561L14.6313 17.1481C14.7227 17.0321 14.7262 16.8844 14.6383 16.7789L14.5715 16.6946L12.1244 16.684L9.67719 16.677V16.2093C9.67719 15.5132 9.56468 15.1827 9.22011 14.8697C8.9107 14.5885 8.58371 14.497 7.91215 14.497H7.49726V11.0373V7.57749L7.57461 7.5564C7.62032 7.54585 8.0563 7.5353 8.54503 7.5353H9.43107V7.66891C9.43107 7.79197 9.3924 7.83768 8.76303 8.46705C8.29188 8.9382 8.08443 9.17026 8.06334 9.24761C8.00005 9.47263 8.0563 9.55702 8.76303 10.2602L9.43107 10.9283V11.8706C9.43107 12.6582 9.44162 12.8304 9.48733 12.9183C9.58578 13.1082 9.68071 13.1258 10.7039 13.1258H11.6251L12.3142 13.8114L13.0034 14.497H13.1932H13.3831L14.0722 13.8114L14.7614 13.1258H15.7002C16.4666 13.1258 16.66 13.1152 16.7444 13.0731C16.9554 12.9641 16.9554 12.9535 16.9554 11.8952V10.9283L17.6234 10.2602C17.9891 9.89456 18.3055 9.54999 18.3301 9.49725C18.3548 9.44099 18.3583 9.34606 18.3442 9.2687C18.3231 9.15619 18.2176 9.02961 17.6375 8.44947C17.0362 7.8412 16.9554 7.74978 16.9554 7.64781V7.5353H17.9223H18.8857L18.8962 9.34957L18.9068 11.1638L18.9912 11.2306C19.0966 11.3186 19.2443 11.315 19.3603 11.2236L19.4518 11.1533V9.29683V7.44388L19.6733 7.34895C19.9018 7.24699 20.3448 6.93758 20.4116 6.82858C20.4362 6.7899 20.4573 6.76178 20.4609 6.76178C20.4679 6.76178 20.4714 9.34957 20.4714 12.5105ZM10.7672 7.9291V8.31938L10.3452 8.75185C9.92683 9.1808 9.92332 9.1808 9.92332 9.34957C9.92332 9.51483 9.92683 9.51834 10.3452 9.94378L10.7672 10.3692V10.9564V11.5436L10.8691 11.6561L10.9711 11.7721L11.5829 11.7827L12.1912 11.7932L12.6166 12.2151C13.0174 12.6089 13.0491 12.6335 13.1827 12.6335C13.3585 12.6335 13.4886 12.5386 13.914 12.1097L14.2305 11.7897H14.793C15.2677 11.7897 15.3696 11.7792 15.4435 11.7299C15.6123 11.6139 15.6158 11.5893 15.6193 10.9845V10.4079L16.0377 9.98246C16.6284 9.3777 16.6284 9.33199 16.0236 8.73075L15.6193 8.32641V7.93261V7.5353H16.006H16.3928V7.70759C16.3928 7.80252 16.4104 7.92558 16.428 7.98184C16.4491 8.03458 16.7514 8.36508 17.096 8.71317L17.7289 9.34606L17.1101 9.96136C16.769 10.2989 16.4702 10.6259 16.442 10.6892C16.4034 10.7771 16.3928 11.0056 16.3928 11.6842V12.5632H15.4927C14.9055 12.5632 14.568 12.5773 14.5188 12.6019C14.4766 12.623 14.1601 12.9183 13.8156 13.2594L13.1932 13.8817L12.5428 13.2313L11.8923 12.5808L10.943 12.5703L9.99364 12.5597V11.6631C9.99364 11.0759 9.97957 10.7384 9.95496 10.6892C9.93386 10.647 9.63852 10.3305 9.29746 9.98949L8.67513 9.36364L9.29746 8.7413C9.63852 8.39673 9.93386 8.06974 9.95496 8.017C9.97606 7.96074 9.99364 7.83065 9.99364 7.72517V7.5353H10.3804H10.7672V7.9291ZM15.0567 7.96426C15.0567 8.20335 15.0708 8.45298 15.0919 8.51979C15.1165 8.60417 15.236 8.75185 15.4751 8.99094L15.8267 9.34254L15.4646 9.71172C15.2009 9.98597 15.0989 10.1161 15.0813 10.204C15.0673 10.2673 15.0567 10.5239 15.0567 10.7736V11.2271H14.5363C13.9281 11.2271 13.9843 11.2025 13.5167 11.6631L13.1932 11.9831L12.8487 11.642C12.6623 11.4557 12.4724 11.2869 12.4302 11.2658C12.3845 11.2412 12.149 11.2271 11.8431 11.2271H11.3297V10.7173C11.3297 10.3411 11.3157 10.1794 11.2805 10.109C11.2524 10.0563 11.0766 9.86291 10.8937 9.68008L10.5562 9.34606L10.9324 8.96984L11.3121 8.59011L11.3227 8.06271L11.3332 7.5353H13.1967H15.0567V7.96426Z" stroke="#333333" stroke-width="0.2" mask="url(#path-12-outside-1_2493_64282)"/>
<path d="M12.9825 11.0305H13.0033H13.1931H13.383H13.4037L13.4184 11.0158L14.1109 10.3233C14.1109 10.3233 14.1109 10.3233 14.1109 10.3232C14.3029 10.133 14.4818 9.94889 14.6158 9.80555C14.6829 9.7339 14.7389 9.67219 14.7799 9.62488C14.8004 9.60126 14.8175 9.58088 14.8303 9.56446C14.842 9.54953 14.8535 9.53392 14.8593 9.52136L14.8605 9.51895L14.8604 9.51892C14.883 9.46294 14.9005 9.40855 14.8954 9.34701C14.8903 9.28538 14.8633 9.2235 14.8121 9.14924C14.7113 9.00294 14.5013 8.78802 14.1145 8.40294L14.1144 8.40293C13.7776 8.06785 13.5904 7.88412 13.4733 7.78493C13.4149 7.73537 13.3708 7.70419 13.332 7.68604C13.2911 7.66691 13.2579 7.66309 13.224 7.66408M12.9825 11.0305L11.5608 9.16589C11.5734 9.14919 11.5901 9.1286 11.6102 9.10496C11.6504 9.05758 11.7055 8.99612 11.7705 8.92569C11.9004 8.78472 12.071 8.60644 12.2437 8.43019C12.4164 8.25395 12.5916 8.0794 12.7308 7.94592C12.8004 7.87922 12.8613 7.82246 12.9086 7.78077C12.9322 7.75997 12.9528 7.74252 12.9697 7.72935C12.9843 7.71789 13.0007 7.70593 13.0149 7.69989M12.9825 11.0305L12.9678 11.0157M12.9825 11.0305L12.9678 11.0157M13.224 7.66408C13.1893 7.66413 13.1491 7.66795 13.1125 7.67397C13.077 7.67981 13.0404 7.68845 13.0149 7.69989M13.224 7.66408C13.2243 7.66408 13.2245 7.66408 13.2248 7.66408V7.71408L13.2232 7.6641C13.2235 7.66409 13.2237 7.66408 13.224 7.66408ZM13.0149 7.69989C13.0147 7.69999 13.0145 7.7001 13.0142 7.7002L13.0349 7.74572L13.0161 7.6994C13.0157 7.69956 13.0153 7.69972 13.0149 7.69989ZM12.9678 11.0157L12.2576 10.302C12.2576 10.302 12.2576 10.302 12.2576 10.302C11.8866 9.92922 11.6837 9.72049 11.5851 9.57737C11.5351 9.50469 11.5082 9.44391 11.5021 9.38317C11.4961 9.3225 11.5115 9.26837 11.5324 9.21218L12.9678 11.0157ZM12.7187 8.90621L12.2618 9.36309L12.7292 9.83053L13.1931 10.2945L13.6571 9.83053L14.1245 9.36309L13.6676 8.90621C13.5324 8.77096 13.4078 8.64811 13.3157 8.55915C13.2697 8.51463 13.232 8.47881 13.2053 8.45422C13.2009 8.45017 13.1968 8.44647 13.1931 8.44311C13.1894 8.44647 13.1854 8.45017 13.181 8.45422C13.1543 8.47881 13.1166 8.51463 13.0705 8.55915C12.9785 8.64811 12.8539 8.77096 12.7187 8.90621Z" fill="#333333" stroke="#333333" stroke-width="0.1"/>
</svg>
