<svg width="24" height="24" viewBox="0 0 24 24" fill="none" xmlns="http://www.w3.org/2000/svg">
<path d="M18.954 9.9468C19.0004 9.69777 19.0236 9.44754 19.0236 9.19973C19.0236 7.40773 17.8871 5.84098 16.2184 5.26906C15.5977 3.32691 13.8045 2 11.736 2C9.6675 2 7.87367 3.32691 7.25355 5.26906C5.58426 5.84035 4.44836 7.40773 4.44836 9.19973C4.44836 9.44754 4.47156 9.69777 4.51734 9.9468C3.54809 10.8379 3 12.0775 3 13.405C3 16.0033 5.11363 18.117 7.71191 18.117C8.22828 18.117 8.73242 18.0339 9.21703 17.8704C9.78039 18.2695 10.431 18.5277 11.1109 18.6266V22H11.4234H12.0484H12.3609V18.6266C13.0409 18.5277 13.6915 18.2695 14.2548 17.8704C14.7389 18.034 15.2436 18.117 15.76 18.117C18.3582 18.117 20.4719 16.0034 20.4719 13.4051C20.472 12.0775 19.9232 10.8379 18.954 9.9468ZM15.76 16.867C15.2876 16.867 14.8293 16.773 14.3959 16.5874L14.0407 16.4348L13.7452 16.685C13.2643 17.0928 12.6704 17.343 12.0484 17.4065V15.7707L14.4917 12.979L14.0211 12.5676L12.0485 14.8223V12.52L14.0187 10.2678L13.5481 9.85645L12.0485 11.5703V8.04125H11.4235V11.5709L9.92324 9.85641L9.45266 10.2678L11.4235 12.52V14.8223L9.45082 12.5677L8.98023 12.979L11.4235 15.7707V17.4065C10.8009 17.343 10.2077 17.0928 9.72609 16.685L9.43129 16.4348L9.07547 16.5874C8.64274 16.7729 8.18375 16.8669 7.71195 16.8669C5.80277 16.8669 4.25004 15.3142 4.25004 13.405C4.25004 12.3302 4.74078 11.3335 5.59586 10.6706L5.93035 10.4106L5.81379 10.0041C5.73688 9.7368 5.69844 9.46582 5.69844 9.19969C5.69844 7.85812 6.60848 6.69723 7.91156 6.3768L8.28266 6.28523L8.37055 5.91352C8.7416 4.34496 10.1253 3.25 11.736 3.25C13.3467 3.25 14.7304 4.34496 15.1009 5.91359L15.1888 6.28531L15.5598 6.37687C16.8629 6.6973 17.7736 7.8582 17.7736 9.19977C17.7736 9.4659 17.7345 9.73688 17.6576 10.0042L17.5411 10.4107L17.8755 10.6707C18.7313 11.3336 19.222 12.3302 19.222 13.4051C19.222 15.3142 17.6686 16.867 15.76 16.867Z" fill="#8FCBB4"/>
</svg>
