<svg width="382" height="237" viewBox="0 0 382 237" fill="none" xmlns="http://www.w3.org/2000/svg">
<rect width="382" height="237" rx="5" fill="#E1F2EE"/>
<path d="M41.3 34.84C42.0867 34.9867 42.7333 35.38 43.24 36.02C43.7467 36.66 44 37.3933 44 38.22C44 38.9667 43.8133 39.6267 43.44 40.2C43.08 40.76 42.5533 41.2 41.86 41.52C41.1667 41.84 40.3467 42 39.4 42H33.38V28.04H39.14C40.0867 28.04 40.9 28.1933 41.58 28.5C42.2733 28.8067 42.7933 29.2333 43.14 29.78C43.5 30.3267 43.68 30.9467 43.68 31.64C43.68 32.4533 43.46 33.1333 43.02 33.68C42.5933 34.2267 42.02 34.6133 41.3 34.84ZM36.18 33.8H38.74C39.4067 33.8 39.92 33.6533 40.28 33.36C40.64 33.0533 40.82 32.62 40.82 32.06C40.82 31.5 40.64 31.0667 40.28 30.76C39.92 30.4533 39.4067 30.3 38.74 30.3H36.18V33.8ZM39 39.72C39.68 39.72 40.2067 39.56 40.58 39.24C40.9667 38.92 41.16 38.4667 41.16 37.88C41.16 37.28 40.96 36.8133 40.56 36.48C40.16 36.1333 39.62 35.96 38.94 35.96H36.18V39.72H39ZM56.6916 30.92V42H53.8716V40.6C53.5116 41.08 53.0382 41.46 52.4516 41.74C51.8782 42.0067 51.2516 42.14 50.5716 42.14C49.7049 42.14 48.9382 41.96 48.2716 41.6C47.6049 41.2267 47.0782 40.6867 46.6916 39.98C46.3182 39.26 46.1316 38.4067 46.1316 37.42V30.92H48.9316V37.02C48.9316 37.9 49.1516 38.58 49.5916 39.06C50.0316 39.5267 50.6316 39.76 51.3916 39.76C52.1649 39.76 52.7716 39.5267 53.2116 39.06C53.6516 38.58 53.8716 37.9 53.8716 37.02V30.92H56.6916ZM70.0542 30.92L63.1942 47.24H60.2142L62.6142 41.72L58.1742 30.92H61.3142L64.1742 38.66L67.0742 30.92H70.0542ZM86.9292 30.92L80.0692 47.24H77.0892L79.4892 41.72L75.0492 30.92H78.1892L81.0492 38.66L83.9492 30.92H86.9292ZM93.3586 42.18C92.2919 42.18 91.3319 41.9467 90.4786 41.48C89.6253 41 88.9519 40.3267 88.4586 39.46C87.9786 38.5933 87.7386 37.5933 87.7386 36.46C87.7386 35.3267 87.9853 34.3267 88.4786 33.46C88.9853 32.5933 89.6719 31.9267 90.5386 31.46C91.4053 30.98 92.3719 30.74 93.4386 30.74C94.5053 30.74 95.4719 30.98 96.3386 31.46C97.2053 31.9267 97.8853 32.5933 98.3786 33.46C98.8853 34.3267 99.1386 35.3267 99.1386 36.46C99.1386 37.5933 98.8786 38.5933 98.3586 39.46C97.8519 40.3267 97.1586 41 96.2786 41.48C95.4119 41.9467 94.4386 42.18 93.3586 42.18ZM93.3586 39.74C93.8653 39.74 94.3386 39.62 94.7786 39.38C95.2319 39.1267 95.5919 38.7533 95.8586 38.26C96.1253 37.7667 96.2586 37.1667 96.2586 36.46C96.2586 35.4067 95.9786 34.6 95.4186 34.04C94.8719 33.4667 94.1986 33.18 93.3986 33.18C92.5986 33.18 91.9253 33.4667 91.3786 34.04C90.8453 34.6 90.5786 35.4067 90.5786 36.46C90.5786 37.5133 90.8386 38.3267 91.3586 38.9C91.8919 39.46 92.5586 39.74 93.3586 39.74ZM111.653 30.92V42H108.833V40.6C108.473 41.08 107.999 41.46 107.413 41.74C106.839 42.0067 106.213 42.14 105.533 42.14C104.666 42.14 103.899 41.96 103.233 41.6C102.566 41.2267 102.039 40.6867 101.653 39.98C101.279 39.26 101.093 38.4067 101.093 37.42V30.92H103.893V37.02C103.893 37.9 104.113 38.58 104.553 39.06C104.993 39.5267 105.593 39.76 106.353 39.76C107.126 39.76 107.733 39.5267 108.173 39.06C108.613 38.58 108.833 37.9 108.833 37.02V30.92H111.653ZM117.215 32.64C117.575 32.0533 118.042 31.5933 118.615 31.26C119.202 30.9267 119.868 30.76 120.615 30.76V33.7H119.875C118.995 33.7 118.328 33.9067 117.875 34.32C117.435 34.7333 117.215 35.4533 117.215 36.48V42H114.415V30.92H117.215V32.64ZM132.347 33.22H130.407V42H127.567V33.22H126.307V30.92H127.567V30.36C127.567 29 127.953 28 128.727 27.36C129.5 26.72 130.667 26.42 132.227 26.46V28.82C131.547 28.8067 131.073 28.92 130.807 29.16C130.54 29.4 130.407 29.8333 130.407 30.46V30.92H132.347V33.22ZM144.621 30.92V42H141.801V40.6C141.441 41.08 140.968 41.46 140.381 41.74C139.808 42.0067 139.181 42.14 138.501 42.14C137.635 42.14 136.868 41.96 136.201 41.6C135.535 41.2267 135.008 40.6867 134.621 39.98C134.248 39.26 134.061 38.4067 134.061 37.42V30.92H136.861V37.02C136.861 37.9 137.081 38.58 137.521 39.06C137.961 39.5267 138.561 39.76 139.321 39.76C140.095 39.76 140.701 39.5267 141.141 39.06C141.581 38.58 141.801 37.9 141.801 37.02V30.92H144.621ZM150.184 32.64C150.544 32.0533 151.011 31.5933 151.584 31.26C152.171 30.9267 152.837 30.76 153.584 30.76V33.7H152.844C151.964 33.7 151.297 33.9067 150.844 34.32C150.404 34.7333 150.184 35.4533 150.184 36.48V42H147.384V30.92H150.184V32.64ZM161.61 30.76C162.93 30.76 163.997 31.18 164.81 32.02C165.623 32.8467 166.03 34.0067 166.03 35.5V42H163.23V35.88C163.23 35 163.01 34.3267 162.57 33.86C162.13 33.38 161.53 33.14 160.77 33.14C159.997 33.14 159.383 33.38 158.93 33.86C158.49 34.3267 158.27 35 158.27 35.88V42H155.47V30.92H158.27V32.3C158.643 31.82 159.117 31.4467 159.69 31.18C160.277 30.9 160.917 30.76 161.61 30.76ZM170.113 29.6C169.619 29.6 169.206 29.4467 168.873 29.14C168.553 28.82 168.393 28.4267 168.393 27.96C168.393 27.4933 168.553 27.1067 168.873 26.8C169.206 26.48 169.619 26.32 170.113 26.32C170.606 26.32 171.013 26.48 171.333 26.8C171.666 27.1067 171.833 27.4933 171.833 27.96C171.833 28.4267 171.666 28.82 171.333 29.14C171.013 29.4467 170.606 29.6 170.113 29.6ZM171.493 30.92V42H168.693V30.92H171.493ZM177.519 33.22V38.58C177.519 38.9533 177.606 39.2267 177.779 39.4C177.966 39.56 178.272 39.64 178.699 39.64H179.999V42H178.239C175.879 42 174.699 40.8533 174.699 38.56V33.22H173.379V30.92H174.699V28.18H177.519V30.92H179.999V33.22H177.519ZM192.473 30.92V42H189.653V40.6C189.293 41.08 188.819 41.46 188.233 41.74C187.659 42.0067 187.033 42.14 186.353 42.14C185.486 42.14 184.719 41.96 184.053 41.6C183.386 41.2267 182.859 40.6867 182.473 39.98C182.099 39.26 181.913 38.4067 181.913 37.42V30.92H184.713V37.02C184.713 37.9 184.933 38.58 185.373 39.06C185.813 39.5267 186.413 39.76 187.173 39.76C187.946 39.76 188.553 39.5267 188.993 39.06C189.433 38.58 189.653 37.9 189.653 37.02V30.92H192.473ZM198.035 32.64C198.395 32.0533 198.862 31.5933 199.435 31.26C200.022 30.9267 200.689 30.76 201.435 30.76V33.7H200.695C199.815 33.7 199.149 33.9067 198.695 34.32C198.255 34.7333 198.035 35.4533 198.035 36.48V42H195.235V30.92H198.035V32.64ZM213.621 36.22C213.621 36.62 213.595 36.98 213.541 37.3H205.441C205.508 38.1 205.788 38.7267 206.281 39.18C206.775 39.6333 207.381 39.86 208.101 39.86C209.141 39.86 209.881 39.4133 210.321 38.52H213.341C213.021 39.5867 212.408 40.4667 211.501 41.16C210.595 41.84 209.481 42.18 208.161 42.18C207.095 42.18 206.135 41.9467 205.281 41.48C204.441 41 203.781 40.3267 203.301 39.46C202.835 38.5933 202.601 37.5933 202.601 36.46C202.601 35.3133 202.835 34.3067 203.301 33.44C203.768 32.5733 204.421 31.9067 205.261 31.44C206.101 30.9733 207.068 30.74 208.161 30.74C209.215 30.74 210.155 30.9667 210.981 31.42C211.821 31.8733 212.468 32.52 212.921 33.36C213.388 34.1867 213.621 35.14 213.621 36.22ZM210.721 35.42C210.708 34.7 210.448 34.1267 209.941 33.7C209.435 33.26 208.815 33.04 208.081 33.04C207.388 33.04 206.801 33.2533 206.321 33.68C205.855 34.0933 205.568 34.6733 205.461 35.42H210.721ZM223.231 32.64C223.591 32.0533 224.057 31.5933 224.631 31.26C225.217 30.9267 225.884 30.76 226.631 30.76V33.7H225.891C225.011 33.7 224.344 33.9067 223.891 34.32C223.451 34.7333 223.231 35.4533 223.231 36.48V42H220.431V30.92H223.231V32.64ZM238.817 36.22C238.817 36.62 238.79 36.98 238.737 37.3H230.637C230.703 38.1 230.983 38.7267 231.477 39.18C231.97 39.6333 232.577 39.86 233.297 39.86C234.337 39.86 235.077 39.4133 235.517 38.52H238.537C238.217 39.5867 237.603 40.4667 236.697 41.16C235.79 41.84 234.677 42.18 233.357 42.18C232.29 42.18 231.33 41.9467 230.477 41.48C229.637 41 228.977 40.3267 228.497 39.46C228.03 38.5933 227.797 37.5933 227.797 36.46C227.797 35.3133 228.03 34.3067 228.497 33.44C228.963 32.5733 229.617 31.9067 230.457 31.44C231.297 30.9733 232.263 30.74 233.357 30.74C234.41 30.74 235.35 30.9667 236.177 31.42C237.017 31.8733 237.663 32.52 238.117 33.36C238.583 34.1867 238.817 35.14 238.817 36.22ZM235.917 35.42C235.903 34.7 235.643 34.1267 235.137 33.7C234.63 33.26 234.01 33.04 233.277 33.04C232.583 33.04 231.997 33.2533 231.517 33.68C231.05 34.0933 230.763 34.6733 230.657 35.42H235.917ZM245.1 42.18C244.194 42.18 243.38 42.02 242.66 41.7C241.94 41.3667 241.367 40.92 240.94 40.36C240.527 39.8 240.3 39.18 240.26 38.5H243.08C243.134 38.9267 243.34 39.28 243.7 39.56C244.074 39.84 244.534 39.98 245.08 39.98C245.614 39.98 246.027 39.8733 246.32 39.66C246.627 39.4467 246.78 39.1733 246.78 38.84C246.78 38.48 246.594 38.2133 246.22 38.04C245.86 37.8533 245.28 37.6533 244.48 37.44C243.654 37.24 242.974 37.0333 242.44 36.82C241.92 36.6067 241.467 36.28 241.08 35.84C240.707 35.4 240.52 34.8067 240.52 34.06C240.52 33.4467 240.694 32.8867 241.04 32.38C241.4 31.8733 241.907 31.4733 242.56 31.18C243.227 30.8867 244.007 30.74 244.9 30.74C246.22 30.74 247.274 31.0733 248.06 31.74C248.847 32.3933 249.28 33.28 249.36 34.4H246.68C246.64 33.96 246.454 33.6133 246.12 33.36C245.8 33.0933 245.367 32.96 244.82 32.96C244.314 32.96 243.92 33.0533 243.64 33.24C243.374 33.4267 243.24 33.6867 243.24 34.02C243.24 34.3933 243.427 34.68 243.8 34.88C244.174 35.0667 244.754 35.26 245.54 35.46C246.34 35.66 247 35.8667 247.52 36.08C248.04 36.2933 248.487 36.6267 248.86 37.08C249.247 37.52 249.447 38.1067 249.46 38.84C249.46 39.48 249.28 40.0533 248.92 40.56C248.574 41.0667 248.067 41.4667 247.4 41.76C246.747 42.04 245.98 42.18 245.1 42.18ZM254.559 32.52C254.919 32.0133 255.412 31.5933 256.039 31.26C256.679 30.9133 257.406 30.74 258.219 30.74C259.166 30.74 260.019 30.9733 260.779 31.44C261.552 31.9067 262.159 32.5733 262.599 33.44C263.052 34.2933 263.279 35.2867 263.279 36.42C263.279 37.5533 263.052 38.56 262.599 39.44C262.159 40.3067 261.552 40.98 260.779 41.46C260.019 41.94 259.166 42.18 258.219 42.18C257.406 42.18 256.686 42.0133 256.059 41.68C255.446 41.3467 254.946 40.9267 254.559 40.42V47.28H251.759V30.92H254.559V32.52ZM260.419 36.42C260.419 35.7533 260.279 35.18 259.999 34.7C259.732 34.2067 259.372 33.8333 258.919 33.58C258.479 33.3267 257.999 33.2 257.479 33.2C256.972 33.2 256.492 33.3333 256.039 33.6C255.599 33.8533 255.239 34.2267 254.959 34.72C254.692 35.2133 254.559 35.7933 254.559 36.46C254.559 37.1267 254.692 37.7067 254.959 38.2C255.239 38.6933 255.599 39.0733 256.039 39.34C256.492 39.5933 256.972 39.72 257.479 39.72C257.999 39.72 258.479 39.5867 258.919 39.32C259.372 39.0533 259.732 38.6733 259.999 38.18C260.279 37.6867 260.419 37.1 260.419 36.42ZM270.234 42.18C269.167 42.18 268.207 41.9467 267.354 41.48C266.5 41 265.827 40.3267 265.334 39.46C264.854 38.5933 264.614 37.5933 264.614 36.46C264.614 35.3267 264.86 34.3267 265.354 33.46C265.86 32.5933 266.547 31.9267 267.414 31.46C268.28 30.98 269.247 30.74 270.314 30.74C271.38 30.74 272.347 30.98 273.214 31.46C274.08 31.9267 274.76 32.5933 275.254 33.46C275.76 34.3267 276.014 35.3267 276.014 36.46C276.014 37.5933 275.754 38.5933 275.234 39.46C274.727 40.3267 274.034 41 273.154 41.48C272.287 41.9467 271.314 42.18 270.234 42.18ZM270.234 39.74C270.74 39.74 271.214 39.62 271.654 39.38C272.107 39.1267 272.467 38.7533 272.734 38.26C273 37.7667 273.134 37.1667 273.134 36.46C273.134 35.4067 272.854 34.6 272.294 34.04C271.747 33.4667 271.074 33.18 270.274 33.18C269.474 33.18 268.8 33.4667 268.254 34.04C267.72 34.6 267.454 35.4067 267.454 36.46C267.454 37.5133 267.714 38.3267 268.234 38.9C268.767 39.46 269.434 39.74 270.234 39.74ZM284.208 30.76C285.528 30.76 286.594 31.18 287.408 32.02C288.221 32.8467 288.628 34.0067 288.628 35.5V42H285.828V35.88C285.828 35 285.608 34.3267 285.168 33.86C284.728 33.38 284.128 33.14 283.368 33.14C282.594 33.14 281.981 33.38 281.528 33.86C281.088 34.3267 280.868 35 280.868 35.88V42H278.068V30.92H280.868V32.3C281.241 31.82 281.714 31.4467 282.288 31.18C282.874 30.9 283.514 30.76 284.208 30.76ZM295.53 42.18C294.623 42.18 293.81 42.02 293.09 41.7C292.37 41.3667 291.797 40.92 291.37 40.36C290.957 39.8 290.73 39.18 290.69 38.5H293.51C293.563 38.9267 293.77 39.28 294.13 39.56C294.503 39.84 294.963 39.98 295.51 39.98C296.043 39.98 296.457 39.8733 296.75 39.66C297.057 39.4467 297.21 39.1733 297.21 38.84C297.21 38.48 297.023 38.2133 296.65 38.04C296.29 37.8533 295.71 37.6533 294.91 37.44C294.083 37.24 293.403 37.0333 292.87 36.82C292.35 36.6067 291.897 36.28 291.51 35.84C291.137 35.4 290.95 34.8067 290.95 34.06C290.95 33.4467 291.123 32.8867 291.47 32.38C291.83 31.8733 292.337 31.4733 292.99 31.18C293.657 30.8867 294.437 30.74 295.33 30.74C296.65 30.74 297.703 31.0733 298.49 31.74C299.277 32.3933 299.71 33.28 299.79 34.4H297.11C297.07 33.96 296.883 33.6133 296.55 33.36C296.23 33.0933 295.797 32.96 295.25 32.96C294.743 32.96 294.35 33.0533 294.07 33.24C293.803 33.4267 293.67 33.6867 293.67 34.02C293.67 34.3933 293.857 34.68 294.23 34.88C294.603 35.0667 295.183 35.26 295.97 35.46C296.77 35.66 297.43 35.8667 297.95 36.08C298.47 36.2933 298.917 36.6267 299.29 37.08C299.677 37.52 299.877 38.1067 299.89 38.84C299.89 39.48 299.71 40.0533 299.35 40.56C299.003 41.0667 298.497 41.4667 297.83 41.76C297.177 42.04 296.41 42.18 295.53 42.18ZM303.609 29.6C303.115 29.6 302.702 29.4467 302.369 29.14C302.049 28.82 301.889 28.4267 301.889 27.96C301.889 27.4933 302.049 27.1067 302.369 26.8C302.702 26.48 303.115 26.32 303.609 26.32C304.102 26.32 304.509 26.48 304.829 26.8C305.162 27.1067 305.329 27.4933 305.329 27.96C305.329 28.4267 305.162 28.82 304.829 29.14C304.509 29.4467 304.102 29.6 303.609 29.6ZM304.989 30.92V42H302.189V30.92H304.989ZM312.375 39.42L315.175 30.92H318.155L314.055 42H310.655L306.575 30.92H309.575L312.375 39.42ZM330.028 36.22C330.028 36.62 330.001 36.98 329.948 37.3H321.848C321.914 38.1 322.194 38.7267 322.688 39.18C323.181 39.6333 323.788 39.86 324.508 39.86C325.548 39.86 326.288 39.4133 326.728 38.52H329.748C329.428 39.5867 328.814 40.4667 327.908 41.16C327.001 41.84 325.888 42.18 324.568 42.18C323.501 42.18 322.541 41.9467 321.688 41.48C320.848 41 320.188 40.3267 319.708 39.46C319.241 38.5933 319.008 37.5933 319.008 36.46C319.008 35.3133 319.241 34.3067 319.708 33.44C320.174 32.5733 320.828 31.9067 321.668 31.44C322.508 30.9733 323.474 30.74 324.568 30.74C325.621 30.74 326.561 30.9667 327.388 31.42C328.228 31.8733 328.874 32.52 329.328 33.36C329.794 34.1867 330.028 35.14 330.028 36.22ZM327.128 35.42C327.114 34.7 326.854 34.1267 326.348 33.7C325.841 33.26 325.221 33.04 324.488 33.04C323.794 33.04 323.208 33.2533 322.728 33.68C322.261 34.0933 321.974 34.6733 321.868 35.42H327.128ZM334.871 27.2V42H332.071V27.2H334.871ZM348.238 30.92L341.378 47.24H338.398L340.798 41.72L336.358 30.92H339.498L342.358 38.66L345.258 30.92H348.238Z" fill="#333333"/>
<path d="M74.26 172L69.18 165.78V172H66.38V158.04H69.18V164.3L74.26 158.04H77.64L71.88 164.96L77.8 172H74.26ZM89.3617 162.24C89.0417 161.653 88.6017 161.207 88.0417 160.9C87.4817 160.593 86.8284 160.44 86.0817 160.44C85.2551 160.44 84.5217 160.627 83.8817 161C83.2417 161.373 82.7417 161.907 82.3817 162.6C82.0217 163.293 81.8417 164.093 81.8417 165C81.8417 165.933 82.0217 166.747 82.3817 167.44C82.7551 168.133 83.2684 168.667 83.9217 169.04C84.5751 169.413 85.3351 169.6 86.2017 169.6C87.2684 169.6 88.1417 169.32 88.8217 168.76C89.5017 168.187 89.9484 167.393 90.1617 166.38H85.3617V164.24H92.9217V166.68C92.7351 167.653 92.3351 168.553 91.7217 169.38C91.1084 170.207 90.3151 170.873 89.3417 171.38C88.3817 171.873 87.3017 172.12 86.1017 172.12C84.7551 172.12 83.5351 171.82 82.4417 171.22C81.3617 170.607 80.5084 169.76 79.8817 168.68C79.2684 167.6 78.9617 166.373 78.9617 165C78.9617 163.627 79.2684 162.4 79.8817 161.32C80.5084 160.227 81.3617 159.38 82.4417 158.78C83.5351 158.167 84.7484 157.86 86.0817 157.86C87.6551 157.86 89.0217 158.247 90.1817 159.02C91.3417 159.78 92.1417 160.853 92.5817 162.24H89.3617ZM104.679 172.18C103.612 172.18 102.652 171.947 101.799 171.48C100.946 171 100.272 170.327 99.7789 169.46C99.2989 168.593 99.0589 167.593 99.0589 166.46C99.0589 165.327 99.3056 164.327 99.7989 163.46C100.306 162.593 100.992 161.927 101.859 161.46C102.726 160.98 103.692 160.74 104.759 160.74C105.826 160.74 106.792 160.98 107.659 161.46C108.526 161.927 109.206 162.593 109.699 163.46C110.206 164.327 110.459 165.327 110.459 166.46C110.459 167.593 110.199 168.593 109.679 169.46C109.172 170.327 108.479 171 107.599 171.48C106.732 171.947 105.759 172.18 104.679 172.18ZM104.679 169.74C105.186 169.74 105.659 169.62 106.099 169.38C106.552 169.127 106.912 168.753 107.179 168.26C107.446 167.767 107.579 167.167 107.579 166.46C107.579 165.407 107.299 164.6 106.739 164.04C106.192 163.467 105.519 163.18 104.719 163.18C103.919 163.18 103.246 163.467 102.699 164.04C102.166 164.6 101.899 165.407 101.899 166.46C101.899 167.513 102.159 168.327 102.679 168.9C103.212 169.46 103.879 169.74 104.679 169.74ZM117.593 163.22H115.653V172H112.813V163.22H111.553V160.92H112.813V160.36C112.813 159 113.199 158 113.973 157.36C114.746 156.72 115.913 156.42 117.473 156.46V158.82C116.793 158.807 116.319 158.92 116.053 159.16C115.786 159.4 115.653 159.833 115.653 160.46V160.92H117.593V163.22ZM139.533 160.92L136.293 172H133.273L131.253 164.26L129.233 172H126.193L122.933 160.92H125.773L127.733 169.36L129.853 160.92H132.813L134.893 169.34L136.853 160.92H139.533ZM145.968 172.18C144.901 172.18 143.941 171.947 143.088 171.48C142.235 171 141.561 170.327 141.068 169.46C140.588 168.593 140.348 167.593 140.348 166.46C140.348 165.327 140.595 164.327 141.088 163.46C141.595 162.593 142.281 161.927 143.148 161.46C144.015 160.98 144.981 160.74 146.048 160.74C147.115 160.74 148.081 160.98 148.948 161.46C149.815 161.927 150.495 162.593 150.988 163.46C151.495 164.327 151.748 165.327 151.748 166.46C151.748 167.593 151.488 168.593 150.968 169.46C150.461 170.327 149.768 171 148.888 171.48C148.021 171.947 147.048 172.18 145.968 172.18ZM145.968 169.74C146.475 169.74 146.948 169.62 147.388 169.38C147.841 169.127 148.201 168.753 148.468 168.26C148.735 167.767 148.868 167.167 148.868 166.46C148.868 165.407 148.588 164.6 148.028 164.04C147.481 163.467 146.808 163.18 146.008 163.18C145.208 163.18 144.535 163.467 143.988 164.04C143.455 164.6 143.188 165.407 143.188 166.46C143.188 167.513 143.448 168.327 143.968 168.9C144.501 169.46 145.168 169.74 145.968 169.74ZM158.722 172.18C157.655 172.18 156.695 171.947 155.842 171.48C154.989 171 154.315 170.327 153.822 169.46C153.342 168.593 153.102 167.593 153.102 166.46C153.102 165.327 153.349 164.327 153.842 163.46C154.349 162.593 155.035 161.927 155.902 161.46C156.769 160.98 157.735 160.74 158.802 160.74C159.869 160.74 160.835 160.98 161.702 161.46C162.569 161.927 163.249 162.593 163.742 163.46C164.249 164.327 164.502 165.327 164.502 166.46C164.502 167.593 164.242 168.593 163.722 169.46C163.215 170.327 162.522 171 161.642 171.48C160.775 171.947 159.802 172.18 158.722 172.18ZM158.722 169.74C159.229 169.74 159.702 169.62 160.142 169.38C160.595 169.127 160.955 168.753 161.222 168.26C161.489 167.767 161.622 167.167 161.622 166.46C161.622 165.407 161.342 164.6 160.782 164.04C160.235 163.467 159.562 163.18 158.762 163.18C157.962 163.18 157.289 163.467 156.742 164.04C156.209 164.6 155.942 165.407 155.942 166.46C155.942 167.513 156.202 168.327 156.722 168.9C157.255 169.46 157.922 169.74 158.722 169.74ZM165.836 166.42C165.836 165.3 166.056 164.307 166.496 163.44C166.949 162.573 167.562 161.907 168.336 161.44C169.109 160.973 169.969 160.74 170.916 160.74C171.636 160.74 172.322 160.9 172.976 161.22C173.629 161.527 174.149 161.94 174.536 162.46V157.2H177.376V172H174.536V170.36C174.189 170.907 173.702 171.347 173.076 171.68C172.449 172.013 171.722 172.18 170.896 172.18C169.962 172.18 169.109 171.94 168.336 171.46C167.562 170.98 166.949 170.307 166.496 169.44C166.056 168.56 165.836 167.553 165.836 166.42ZM174.556 166.46C174.556 165.78 174.422 165.2 174.156 164.72C173.889 164.227 173.529 163.853 173.076 163.6C172.622 163.333 172.136 163.2 171.616 163.2C171.096 163.2 170.616 163.327 170.176 163.58C169.736 163.833 169.376 164.207 169.096 164.7C168.829 165.18 168.696 165.753 168.696 166.42C168.696 167.087 168.829 167.673 169.096 168.18C169.376 168.673 169.736 169.053 170.176 169.32C170.629 169.587 171.109 169.72 171.616 169.72C172.136 169.72 172.622 169.593 173.076 169.34C173.529 169.073 173.889 168.7 174.156 168.22C174.422 167.727 174.556 167.14 174.556 166.46ZM189.116 172.18C188.209 172.18 187.396 172.02 186.676 171.7C185.956 171.367 185.383 170.92 184.956 170.36C184.543 169.8 184.316 169.18 184.276 168.5H187.096C187.149 168.927 187.356 169.28 187.716 169.56C188.089 169.84 188.549 169.98 189.096 169.98C189.629 169.98 190.043 169.873 190.336 169.66C190.643 169.447 190.796 169.173 190.796 168.84C190.796 168.48 190.609 168.213 190.236 168.04C189.876 167.853 189.296 167.653 188.496 167.44C187.669 167.24 186.989 167.033 186.456 166.82C185.936 166.607 185.483 166.28 185.096 165.84C184.723 165.4 184.536 164.807 184.536 164.06C184.536 163.447 184.709 162.887 185.056 162.38C185.416 161.873 185.923 161.473 186.576 161.18C187.243 160.887 188.023 160.74 188.916 160.74C190.236 160.74 191.289 161.073 192.076 161.74C192.863 162.393 193.296 163.28 193.376 164.4H190.696C190.656 163.96 190.469 163.613 190.136 163.36C189.816 163.093 189.383 162.96 188.836 162.96C188.329 162.96 187.936 163.053 187.656 163.24C187.389 163.427 187.256 163.687 187.256 164.02C187.256 164.393 187.443 164.68 187.816 164.88C188.189 165.067 188.769 165.26 189.556 165.46C190.356 165.66 191.016 165.867 191.536 166.08C192.056 166.293 192.503 166.627 192.876 167.08C193.263 167.52 193.463 168.107 193.476 168.84C193.476 169.48 193.296 170.053 192.936 170.56C192.589 171.067 192.083 171.467 191.416 171.76C190.763 172.04 189.996 172.18 189.116 172.18ZM195.055 166.42C195.055 165.3 195.275 164.307 195.715 163.44C196.168 162.573 196.775 161.907 197.535 161.44C198.308 160.973 199.168 160.74 200.115 160.74C200.941 160.74 201.661 160.907 202.275 161.24C202.901 161.573 203.401 161.993 203.775 162.5V160.92H206.595V172H203.775V170.38C203.415 170.9 202.915 171.333 202.275 171.68C201.648 172.013 200.921 172.18 200.095 172.18C199.161 172.18 198.308 171.94 197.535 171.46C196.775 170.98 196.168 170.307 195.715 169.44C195.275 168.56 195.055 167.553 195.055 166.42ZM203.775 166.46C203.775 165.78 203.641 165.2 203.375 164.72C203.108 164.227 202.748 163.853 202.295 163.6C201.841 163.333 201.355 163.2 200.835 163.2C200.315 163.2 199.835 163.327 199.395 163.58C198.955 163.833 198.595 164.207 198.315 164.7C198.048 165.18 197.915 165.753 197.915 166.42C197.915 167.087 198.048 167.673 198.315 168.18C198.595 168.673 198.955 169.053 199.395 169.32C199.848 169.587 200.328 169.72 200.835 169.72C201.355 169.72 201.841 169.593 202.295 169.34C202.748 169.073 203.108 168.7 203.375 168.22C203.641 167.727 203.775 167.14 203.775 166.46ZM213.949 169.42L216.749 160.92H219.729L215.629 172H212.229L208.149 160.92H211.149L213.949 169.42ZM231.602 166.22C231.602 166.62 231.575 166.98 231.522 167.3H223.422C223.489 168.1 223.769 168.727 224.262 169.18C224.755 169.633 225.362 169.86 226.082 169.86C227.122 169.86 227.862 169.413 228.302 168.52H231.322C231.002 169.587 230.389 170.467 229.482 171.16C228.575 171.84 227.462 172.18 226.142 172.18C225.075 172.18 224.115 171.947 223.262 171.48C222.422 171 221.762 170.327 221.282 169.46C220.815 168.593 220.582 167.593 220.582 166.46C220.582 165.313 220.815 164.307 221.282 163.44C221.749 162.573 222.402 161.907 223.242 161.44C224.082 160.973 225.049 160.74 226.142 160.74C227.195 160.74 228.135 160.967 228.962 161.42C229.802 161.873 230.449 162.52 230.902 163.36C231.369 164.187 231.602 165.14 231.602 166.22ZM228.702 165.42C228.689 164.7 228.429 164.127 227.922 163.7C227.415 163.26 226.795 163.04 226.062 163.04C225.369 163.04 224.782 163.253 224.302 163.68C223.835 164.093 223.549 164.673 223.442 165.42H228.702ZM232.926 166.42C232.926 165.3 233.146 164.307 233.586 163.44C234.039 162.573 234.652 161.907 235.426 161.44C236.199 160.973 237.059 160.74 238.006 160.74C238.726 160.74 239.412 160.9 240.066 161.22C240.719 161.527 241.239 161.94 241.626 162.46V157.2H244.466V172H241.626V170.36C241.279 170.907 240.792 171.347 240.166 171.68C239.539 172.013 238.812 172.18 237.986 172.18C237.052 172.18 236.199 171.94 235.426 171.46C234.652 170.98 234.039 170.307 233.586 169.44C233.146 168.56 232.926 167.553 232.926 166.42ZM241.646 166.46C241.646 165.78 241.512 165.2 241.246 164.72C240.979 164.227 240.619 163.853 240.166 163.6C239.712 163.333 239.226 163.2 238.706 163.2C238.186 163.2 237.706 163.327 237.266 163.58C236.826 163.833 236.466 164.207 236.186 164.7C235.919 165.18 235.786 165.753 235.786 166.42C235.786 167.087 235.919 167.673 236.186 168.18C236.466 168.673 236.826 169.053 237.266 169.32C237.719 169.587 238.199 169.72 238.706 169.72C239.226 169.72 239.712 169.593 240.166 169.34C240.619 169.073 240.979 168.7 241.246 168.22C241.512 167.727 241.646 167.14 241.646 166.46ZM255.226 163.22V168.58C255.226 168.953 255.313 169.227 255.486 169.4C255.673 169.56 255.979 169.64 256.406 169.64H257.706V172H255.946C253.586 172 252.406 170.853 252.406 168.56V163.22H251.086V160.92H252.406V158.18H255.226V160.92H257.706V163.22H255.226ZM264.64 172.18C263.573 172.18 262.613 171.947 261.76 171.48C260.907 171 260.233 170.327 259.74 169.46C259.26 168.593 259.02 167.593 259.02 166.46C259.02 165.327 259.267 164.327 259.76 163.46C260.267 162.593 260.953 161.927 261.82 161.46C262.687 160.98 263.653 160.74 264.72 160.74C265.787 160.74 266.753 160.98 267.62 161.46C268.487 161.927 269.167 162.593 269.66 163.46C270.167 164.327 270.42 165.327 270.42 166.46C270.42 167.593 270.16 168.593 269.64 169.46C269.133 170.327 268.44 171 267.56 171.48C266.693 171.947 265.72 172.18 264.64 172.18ZM264.64 169.74C265.147 169.74 265.62 169.62 266.06 169.38C266.513 169.127 266.873 168.753 267.14 168.26C267.407 167.767 267.54 167.167 267.54 166.46C267.54 165.407 267.26 164.6 266.7 164.04C266.153 163.467 265.48 163.18 264.68 163.18C263.88 163.18 263.207 163.467 262.66 164.04C262.127 164.6 261.86 165.407 261.86 166.46C261.86 167.513 262.12 168.327 262.64 168.9C263.173 169.46 263.84 169.74 264.64 169.74ZM271.754 166.42C271.754 165.3 271.974 164.307 272.414 163.44C272.867 162.573 273.48 161.907 274.254 161.44C275.027 160.973 275.887 160.74 276.834 160.74C277.554 160.74 278.24 160.9 278.894 161.22C279.547 161.527 280.067 161.94 280.454 162.46V157.2H283.294V172H280.454V170.36C280.107 170.907 279.62 171.347 278.994 171.68C278.367 172.013 277.64 172.18 276.814 172.18C275.88 172.18 275.027 171.94 274.254 171.46C273.48 170.98 272.867 170.307 272.414 169.44C271.974 168.56 271.754 167.553 271.754 166.42ZM280.474 166.46C280.474 165.78 280.34 165.2 280.074 164.72C279.807 164.227 279.447 163.853 278.994 163.6C278.54 163.333 278.054 163.2 277.534 163.2C277.014 163.2 276.534 163.327 276.094 163.58C275.654 163.833 275.294 164.207 275.014 164.7C274.747 165.18 274.614 165.753 274.614 166.42C274.614 167.087 274.747 167.673 275.014 168.18C275.294 168.673 275.654 169.053 276.094 169.32C276.547 169.587 277.027 169.72 277.534 169.72C278.054 169.72 278.54 169.593 278.994 169.34C279.447 169.073 279.807 168.7 280.074 168.22C280.34 167.727 280.474 167.14 280.474 166.46ZM285.308 166.42C285.308 165.3 285.528 164.307 285.968 163.44C286.422 162.573 287.028 161.907 287.788 161.44C288.562 160.973 289.422 160.74 290.368 160.74C291.195 160.74 291.915 160.907 292.528 161.24C293.155 161.573 293.655 161.993 294.028 162.5V160.92H296.848V172H294.028V170.38C293.668 170.9 293.168 171.333 292.528 171.68C291.902 172.013 291.175 172.18 290.348 172.18C289.415 172.18 288.562 171.94 287.788 171.46C287.028 170.98 286.422 170.307 285.968 169.44C285.528 168.56 285.308 167.553 285.308 166.42ZM294.028 166.46C294.028 165.78 293.895 165.2 293.628 164.72C293.362 164.227 293.002 163.853 292.548 163.6C292.095 163.333 291.608 163.2 291.088 163.2C290.568 163.2 290.088 163.327 289.648 163.58C289.208 163.833 288.848 164.207 288.568 164.7C288.302 165.18 288.168 165.753 288.168 166.42C288.168 167.087 288.302 167.673 288.568 168.18C288.848 168.673 289.208 169.053 289.648 169.32C290.102 169.587 290.582 169.72 291.088 169.72C291.608 169.72 292.095 169.593 292.548 169.34C293.002 169.073 293.362 168.7 293.628 168.22C293.895 167.727 294.028 167.14 294.028 166.46ZM310.183 160.92L303.323 177.24H300.343L302.743 171.72L298.303 160.92H301.443L304.303 168.66L307.203 160.92H310.183ZM312.933 172.14C312.426 172.14 312.006 171.987 311.673 171.68C311.353 171.36 311.193 170.967 311.193 170.5C311.193 170.033 311.353 169.647 311.673 169.34C312.006 169.02 312.426 168.86 312.933 168.86C313.426 168.86 313.833 169.02 314.153 169.34C314.473 169.647 314.633 170.033 314.633 170.5C314.633 170.967 314.473 171.36 314.153 171.68C313.833 171.987 313.426 172.14 312.933 172.14Z" fill="#333333"/>
<path d="M80.4014 60.985H76.4494L75.7214 63H74.4734L77.7494 53.991H79.1144L82.3774 63H81.1294L80.4014 60.985ZM80.0634 60.023L78.4254 55.447L76.7874 60.023H80.0634ZM88.454 53.38V63H87.271V53.38H88.454ZM91.0812 54.719C90.8559 54.719 90.6652 54.641 90.5092 54.485C90.3532 54.329 90.2752 54.1383 90.2752 53.913C90.2752 53.6877 90.3532 53.497 90.5092 53.341C90.6652 53.185 90.8559 53.107 91.0812 53.107C91.2979 53.107 91.4799 53.185 91.6272 53.341C91.7832 53.497 91.8612 53.6877 91.8612 53.913C91.8612 54.1383 91.7832 54.329 91.6272 54.485C91.4799 54.641 91.2979 54.719 91.0812 54.719ZM91.6532 55.876V63H90.4702V55.876H91.6532ZM95.1125 56.851V61.05C95.1125 61.3967 95.1861 61.6437 95.3335 61.791C95.4808 61.9297 95.7365 61.999 96.1005 61.999H96.9715V63H95.9055C95.2468 63 94.7528 62.8483 94.4235 62.545C94.0941 62.2417 93.9295 61.7433 93.9295 61.05V56.851H93.0065V55.876H93.9295V54.082H95.1125V55.876H96.9715V56.851H95.1125ZM99.8478 56.851V61.05C99.8478 61.3967 99.9215 61.6437 100.069 61.791C100.216 61.9297 100.472 61.999 100.836 61.999H101.707V63H100.641C99.9821 63 99.4881 62.8483 99.1588 62.545C98.8295 62.2417 98.6648 61.7433 98.6648 61.05V56.851H97.7418V55.876H98.6648V54.082H99.8478V55.876H101.707V56.851H99.8478ZM104.323 53.38V63H103.14V53.38H104.323ZM112.839 59.165C112.839 59.3903 112.826 59.6287 112.8 59.88H107.106C107.15 60.582 107.388 61.1323 107.821 61.531C108.263 61.921 108.796 62.116 109.42 62.116C109.932 62.116 110.356 61.999 110.694 61.765C111.041 61.5223 111.284 61.2017 111.422 60.803H112.696C112.506 61.4877 112.124 62.0467 111.552 62.48C110.98 62.9047 110.27 63.117 109.42 63.117C108.744 63.117 108.138 62.9653 107.6 62.662C107.072 62.3587 106.656 61.9297 106.352 61.375C106.049 60.8117 105.897 60.1617 105.897 59.425C105.897 58.6883 106.045 58.0427 106.339 57.488C106.634 56.9333 107.046 56.5087 107.574 56.214C108.112 55.9107 108.727 55.759 109.42 55.759C110.096 55.759 110.694 55.9063 111.214 56.201C111.734 56.4957 112.133 56.903 112.41 57.423C112.696 57.9343 112.839 58.515 112.839 59.165ZM111.617 58.918C111.617 58.4673 111.518 58.0817 111.318 57.761C111.119 57.4317 110.846 57.1847 110.499 57.02C110.161 56.8467 109.784 56.76 109.368 56.76C108.77 56.76 108.259 56.9507 107.834 57.332C107.418 57.7133 107.18 58.242 107.119 58.918H111.617ZM120.805 55.759C121.42 55.759 121.957 55.8933 122.417 56.162C122.885 56.4307 123.231 56.7687 123.457 57.176V55.876H124.653V63.156C124.653 63.806 124.514 64.3823 124.237 64.885C123.959 65.3963 123.561 65.795 123.041 66.081C122.529 66.367 121.931 66.51 121.247 66.51C120.311 66.51 119.531 66.289 118.907 65.847C118.283 65.405 117.914 64.8027 117.802 64.04H118.972C119.102 64.4733 119.37 64.82 119.778 65.08C120.185 65.3487 120.675 65.483 121.247 65.483C121.897 65.483 122.425 65.2793 122.833 64.872C123.249 64.4647 123.457 63.8927 123.457 63.156V61.661C123.223 62.077 122.876 62.4237 122.417 62.701C121.957 62.9783 121.42 63.117 120.805 63.117C120.172 63.117 119.596 62.961 119.076 62.649C118.564 62.337 118.161 61.8993 117.867 61.336C117.572 60.7727 117.425 60.1313 117.425 59.412C117.425 58.684 117.572 58.047 117.867 57.501C118.161 56.9463 118.564 56.5173 119.076 56.214C119.596 55.9107 120.172 55.759 120.805 55.759ZM123.457 59.425C123.457 58.8877 123.348 58.4197 123.132 58.021C122.915 57.6223 122.62 57.319 122.248 57.111C121.884 56.8943 121.481 56.786 121.039 56.786C120.597 56.786 120.194 56.89 119.83 57.098C119.466 57.306 119.175 57.6093 118.959 58.008C118.742 58.4067 118.634 58.8747 118.634 59.412C118.634 59.958 118.742 60.4347 118.959 60.842C119.175 61.2407 119.466 61.5483 119.83 61.765C120.194 61.973 120.597 62.077 121.039 62.077C121.481 62.077 121.884 61.973 122.248 61.765C122.62 61.5483 122.915 61.2407 123.132 60.842C123.348 60.4347 123.457 59.9623 123.457 59.425ZM133.152 59.165C133.152 59.3903 133.139 59.6287 133.113 59.88H127.419C127.462 60.582 127.701 61.1323 128.134 61.531C128.576 61.921 129.109 62.116 129.733 62.116C130.244 62.116 130.669 61.999 131.007 61.765C131.354 61.5223 131.596 61.2017 131.735 60.803H133.009C132.818 61.4877 132.437 62.0467 131.865 62.48C131.293 62.9047 130.582 63.117 129.733 63.117C129.057 63.117 128.45 62.9653 127.913 62.662C127.384 62.3587 126.968 61.9297 126.665 61.375C126.362 60.8117 126.21 60.1617 126.21 59.425C126.21 58.6883 126.357 58.0427 126.652 57.488C126.947 56.9333 127.358 56.5087 127.887 56.214C128.424 55.9107 129.04 55.759 129.733 55.759C130.409 55.759 131.007 55.9063 131.527 56.201C132.047 56.4957 132.446 56.903 132.723 57.423C133.009 57.9343 133.152 58.515 133.152 59.165ZM131.93 58.918C131.93 58.4673 131.83 58.0817 131.631 57.761C131.432 57.4317 131.159 57.1847 130.812 57.02C130.474 56.8467 130.097 56.76 129.681 56.76C129.083 56.76 128.572 56.9507 128.147 57.332C127.731 57.7133 127.493 58.242 127.432 58.918H131.93ZM137.235 63.117C136.689 63.117 136.2 63.026 135.766 62.844C135.333 62.6533 134.991 62.3933 134.739 62.064C134.488 61.726 134.349 61.3403 134.323 60.907H135.545C135.58 61.2623 135.745 61.5527 136.039 61.778C136.343 62.0033 136.737 62.116 137.222 62.116C137.673 62.116 138.028 62.0163 138.288 61.817C138.548 61.6177 138.678 61.3663 138.678 61.063C138.678 60.751 138.54 60.5213 138.262 60.374C137.985 60.218 137.556 60.0663 136.975 59.919C136.447 59.7803 136.013 59.6417 135.675 59.503C135.346 59.3557 135.06 59.1433 134.817 58.866C134.583 58.58 134.466 58.2073 134.466 57.748C134.466 57.384 134.575 57.0503 134.791 56.747C135.008 56.4437 135.316 56.2053 135.714 56.032C136.113 55.85 136.568 55.759 137.079 55.759C137.868 55.759 138.505 55.9583 138.99 56.357C139.476 56.7557 139.736 57.3017 139.77 57.995H138.587C138.561 57.6223 138.41 57.3233 138.132 57.098C137.864 56.8727 137.5 56.76 137.04 56.76C136.616 56.76 136.278 56.851 136.026 57.033C135.775 57.215 135.649 57.4533 135.649 57.748C135.649 57.982 135.723 58.177 135.87 58.333C136.026 58.4803 136.217 58.6017 136.442 58.697C136.676 58.7837 136.997 58.8833 137.404 58.996C137.916 59.1347 138.332 59.2733 138.652 59.412C138.973 59.542 139.246 59.7413 139.471 60.01C139.705 60.2787 139.827 60.6297 139.835 61.063C139.835 61.453 139.727 61.804 139.51 62.116C139.294 62.428 138.986 62.675 138.587 62.857C138.197 63.0303 137.747 63.117 137.235 63.117ZM142.948 56.851V61.05C142.948 61.3967 143.022 61.6437 143.169 61.791C143.317 61.9297 143.572 61.999 143.936 61.999H144.807V63H143.741C143.083 63 142.589 62.8483 142.259 62.545C141.93 62.2417 141.765 61.7433 141.765 61.05V56.851H140.842V55.876H141.765V54.082H142.948V55.876H144.807V56.851H142.948ZM152.559 55.876V63H151.376V61.947C151.15 62.311 150.834 62.597 150.427 62.805C150.028 63.0043 149.586 63.104 149.101 63.104C148.546 63.104 148.048 62.9913 147.606 62.766C147.164 62.532 146.813 62.1853 146.553 61.726C146.301 61.2667 146.176 60.7077 146.176 60.049V55.876H147.346V59.893C147.346 60.595 147.523 61.1367 147.879 61.518C148.234 61.8907 148.719 62.077 149.335 62.077C149.967 62.077 150.466 61.882 150.83 61.492C151.194 61.102 151.376 60.5343 151.376 59.789V55.876H152.559ZM155.739 57.033C155.947 56.6257 156.242 56.3093 156.623 56.084C157.013 55.8587 157.486 55.746 158.04 55.746V56.968H157.728C156.402 56.968 155.739 57.6873 155.739 59.126V63H154.556V55.876H155.739V57.033ZM165.906 59.165C165.906 59.3903 165.893 59.6287 165.867 59.88H160.173C160.216 60.582 160.454 61.1323 160.888 61.531C161.33 61.921 161.863 62.116 162.487 62.116C162.998 62.116 163.423 61.999 163.761 61.765C164.107 61.5223 164.35 61.2017 164.489 60.803H165.763C165.572 61.4877 165.191 62.0467 164.619 62.48C164.047 62.9047 163.336 63.117 162.487 63.117C161.811 63.117 161.204 62.9653 160.667 62.662C160.138 62.3587 159.722 61.9297 159.419 61.375C159.115 60.8117 158.964 60.1617 158.964 59.425C158.964 58.6883 159.111 58.0427 159.406 57.488C159.7 56.9333 160.112 56.5087 160.641 56.214C161.178 55.9107 161.793 55.759 162.487 55.759C163.163 55.759 163.761 55.9063 164.281 56.201C164.801 56.4957 165.199 56.903 165.477 57.423C165.763 57.9343 165.906 58.515 165.906 59.165ZM164.684 58.918C164.684 58.4673 164.584 58.0817 164.385 57.761C164.185 57.4317 163.912 57.1847 163.566 57.02C163.228 56.8467 162.851 56.76 162.435 56.76C161.837 56.76 161.325 56.9507 160.901 57.332C160.485 57.7133 160.246 58.242 160.186 58.918H164.684ZM173.832 56.851H172.337V63H171.154V56.851H170.231V55.876H171.154V55.369C171.154 54.5717 171.358 53.991 171.765 53.627C172.181 53.2543 172.844 53.068 173.754 53.068V54.056C173.234 54.056 172.866 54.16 172.649 54.368C172.441 54.5673 172.337 54.901 172.337 55.369V55.876H173.832V56.851ZM178.318 63.117C177.651 63.117 177.044 62.9653 176.498 62.662C175.961 62.3587 175.536 61.9297 175.224 61.375C174.921 60.8117 174.769 60.1617 174.769 59.425C174.769 58.697 174.925 58.0557 175.237 57.501C175.558 56.9377 175.991 56.5087 176.537 56.214C177.083 55.9107 177.694 55.759 178.37 55.759C179.046 55.759 179.657 55.9107 180.203 56.214C180.749 56.5087 181.178 56.9333 181.49 57.488C181.811 58.0427 181.971 58.6883 181.971 59.425C181.971 60.1617 181.807 60.8117 181.477 61.375C181.157 61.9297 180.719 62.3587 180.164 62.662C179.61 62.9653 178.994 63.117 178.318 63.117ZM178.318 62.077C178.743 62.077 179.142 61.9773 179.514 61.778C179.887 61.5787 180.186 61.2797 180.411 60.881C180.645 60.4823 180.762 59.997 180.762 59.425C180.762 58.853 180.65 58.3677 180.424 57.969C180.199 57.5703 179.904 57.2757 179.54 57.085C179.176 56.8857 178.782 56.786 178.357 56.786C177.924 56.786 177.525 56.8857 177.161 57.085C176.806 57.2757 176.52 57.5703 176.303 57.969C176.087 58.3677 175.978 58.853 175.978 59.425C175.978 60.0057 176.082 60.4953 176.29 60.894C176.507 61.2927 176.793 61.5917 177.148 61.791C177.504 61.9817 177.894 62.077 178.318 62.077ZM184.71 57.033C184.918 56.6257 185.213 56.3093 185.594 56.084C185.984 55.8587 186.456 55.746 187.011 55.746V56.968H186.699C185.373 56.968 184.71 57.6873 184.71 59.126V63H183.527V55.876H184.71V57.033ZM193.285 56.851V61.05C193.285 61.3967 193.359 61.6437 193.506 61.791C193.654 61.9297 193.909 61.999 194.273 61.999H195.144V63H194.078C193.42 63 192.926 62.8483 192.596 62.545C192.267 62.2417 192.102 61.7433 192.102 61.05V56.851H191.179V55.876H192.102V54.082H193.285V55.876H195.144V56.851H193.285ZM200.114 55.746C200.651 55.746 201.136 55.863 201.57 56.097C202.003 56.3223 202.341 56.6647 202.584 57.124C202.835 57.5833 202.961 58.1423 202.961 58.801V63H201.791V58.97C201.791 58.2593 201.613 57.7177 201.258 57.345C200.902 56.9637 200.417 56.773 199.802 56.773C199.178 56.773 198.679 56.968 198.307 57.358C197.943 57.748 197.761 58.3157 197.761 59.061V63H196.578V53.38H197.761V56.89C197.995 56.526 198.315 56.2443 198.723 56.045C199.139 55.8457 199.602 55.746 200.114 55.746ZM211.393 59.165C211.393 59.3903 211.38 59.6287 211.354 59.88H205.66C205.703 60.582 205.942 61.1323 206.375 61.531C206.817 61.921 207.35 62.116 207.974 62.116C208.485 62.116 208.91 61.999 209.248 61.765C209.595 61.5223 209.837 61.2017 209.976 60.803H211.25C211.059 61.4877 210.678 62.0467 210.106 62.48C209.534 62.9047 208.823 63.117 207.974 63.117C207.298 63.117 206.691 62.9653 206.154 62.662C205.625 62.3587 205.209 61.9297 204.906 61.375C204.603 60.8117 204.451 60.1617 204.451 59.425C204.451 58.6883 204.598 58.0427 204.893 57.488C205.188 56.9333 205.599 56.5087 206.128 56.214C206.665 55.9107 207.281 55.759 207.974 55.759C208.65 55.759 209.248 55.9063 209.768 56.201C210.288 56.4957 210.687 56.903 210.964 57.423C211.25 57.9343 211.393 58.515 211.393 59.165ZM210.171 58.918C210.171 58.4673 210.071 58.0817 209.872 57.761C209.673 57.4317 209.4 57.1847 209.053 57.02C208.715 56.8467 208.338 56.76 207.922 56.76C207.324 56.76 206.813 56.9507 206.388 57.332C205.972 57.7133 205.734 58.242 205.673 58.918H210.171ZM217.603 57.189C217.837 56.7817 218.184 56.4437 218.643 56.175C219.111 55.8977 219.653 55.759 220.268 55.759C220.901 55.759 221.473 55.9107 221.984 56.214C222.504 56.5173 222.912 56.9463 223.206 57.501C223.501 58.047 223.648 58.684 223.648 59.412C223.648 60.1313 223.501 60.7727 223.206 61.336C222.912 61.8993 222.504 62.337 221.984 62.649C221.473 62.961 220.901 63.117 220.268 63.117C219.662 63.117 219.124 62.9827 218.656 62.714C218.197 62.4367 217.846 62.0943 217.603 61.687V66.38H216.42V55.876H217.603V57.189ZM222.439 59.412C222.439 58.8747 222.331 58.4067 222.114 58.008C221.898 57.6093 221.603 57.306 221.23 57.098C220.866 56.89 220.463 56.786 220.021 56.786C219.588 56.786 219.185 56.8943 218.812 57.111C218.448 57.319 218.154 57.6267 217.928 58.034C217.712 58.4327 217.603 58.8963 217.603 59.425C217.603 59.9623 217.712 60.4347 217.928 60.842C218.154 61.2407 218.448 61.5483 218.812 61.765C219.185 61.973 219.588 62.077 220.021 62.077C220.463 62.077 220.866 61.973 221.23 61.765C221.603 61.5483 221.898 61.2407 222.114 60.842C222.331 60.4347 222.439 59.958 222.439 59.412ZM226.389 53.38V63H225.206V53.38H226.389ZM227.963 59.412C227.963 58.684 228.11 58.047 228.405 57.501C228.699 56.9463 229.102 56.5173 229.614 56.214C230.134 55.9107 230.71 55.759 231.343 55.759C231.967 55.759 232.508 55.8933 232.968 56.162C233.427 56.4307 233.769 56.7687 233.995 57.176V55.876H235.191V63H233.995V61.674C233.761 62.09 233.41 62.4367 232.942 62.714C232.482 62.9827 231.945 63.117 231.33 63.117C230.697 63.117 230.125 62.961 229.614 62.649C229.102 62.337 228.699 61.8993 228.405 61.336C228.11 60.7727 227.963 60.1313 227.963 59.412ZM233.995 59.425C233.995 58.8877 233.886 58.4197 233.67 58.021C233.453 57.6223 233.158 57.319 232.786 57.111C232.422 56.8943 232.019 56.786 231.577 56.786C231.135 56.786 230.732 56.89 230.368 57.098C230.004 57.306 229.713 57.6093 229.497 58.008C229.28 58.4067 229.172 58.8747 229.172 59.412C229.172 59.958 229.28 60.4347 229.497 60.842C229.713 61.2407 230.004 61.5483 230.368 61.765C230.732 61.973 231.135 62.077 231.577 62.077C232.019 62.077 232.422 61.973 232.786 61.765C233.158 61.5483 233.453 61.2407 233.67 60.842C233.886 60.4347 233.995 59.9623 233.995 59.425ZM240.661 55.746C241.528 55.746 242.23 56.0103 242.767 56.539C243.304 57.059 243.573 57.813 243.573 58.801V63H242.403V58.97C242.403 58.2593 242.225 57.7177 241.87 57.345C241.515 56.9637 241.029 56.773 240.414 56.773C239.79 56.773 239.292 56.968 238.919 57.358C238.555 57.748 238.373 58.3157 238.373 59.061V63H237.19V55.876H238.373V56.89C238.607 56.526 238.923 56.2443 239.322 56.045C239.729 55.8457 240.176 55.746 240.661 55.746ZM252.005 59.165C252.005 59.3903 251.992 59.6287 251.966 59.88H246.272C246.316 60.582 246.554 61.1323 246.987 61.531C247.429 61.921 247.962 62.116 248.586 62.116C249.098 62.116 249.522 61.999 249.86 61.765C250.207 61.5223 250.45 61.2017 250.588 60.803H251.862C251.672 61.4877 251.29 62.0467 250.718 62.48C250.146 62.9047 249.436 63.117 248.586 63.117C247.91 63.117 247.304 62.9653 246.766 62.662C246.238 62.3587 245.822 61.9297 245.518 61.375C245.215 60.8117 245.063 60.1617 245.063 59.425C245.063 58.6883 245.211 58.0427 245.505 57.488C245.8 56.9333 246.212 56.5087 246.74 56.214C247.278 55.9107 247.893 55.759 248.586 55.759C249.262 55.759 249.86 55.9063 250.38 56.201C250.9 56.4957 251.299 56.903 251.576 57.423C251.862 57.9343 252.005 58.515 252.005 59.165ZM250.783 58.918C250.783 58.4673 250.684 58.0817 250.484 57.761C250.285 57.4317 250.012 57.1847 249.665 57.02C249.327 56.8467 248.95 56.76 248.534 56.76C247.936 56.76 247.425 56.9507 247 57.332C246.584 57.7133 246.346 58.242 246.285 58.918H250.783ZM255.01 56.851V61.05C255.01 61.3967 255.084 61.6437 255.231 61.791C255.378 61.9297 255.634 61.999 255.998 61.999H256.869V63H255.803C255.144 63 254.65 62.8483 254.321 62.545C253.992 62.2417 253.827 61.7433 253.827 61.05V56.851H252.904V55.876H253.827V54.082H255.01V55.876H256.869V56.851H255.01ZM270.335 55.746C270.89 55.746 271.384 55.863 271.817 56.097C272.25 56.3223 272.593 56.6647 272.844 57.124C273.095 57.5833 273.221 58.1423 273.221 58.801V63H272.051V58.97C272.051 58.2593 271.873 57.7177 271.518 57.345C271.171 56.9637 270.699 56.773 270.101 56.773C269.486 56.773 268.996 56.9723 268.632 57.371C268.268 57.761 268.086 58.3287 268.086 59.074V63H266.916V58.97C266.916 58.2593 266.738 57.7177 266.383 57.345C266.036 56.9637 265.564 56.773 264.966 56.773C264.351 56.773 263.861 56.9723 263.497 57.371C263.133 57.761 262.951 58.3287 262.951 59.074V63H261.768V55.876H262.951V56.903C263.185 56.5303 263.497 56.2443 263.887 56.045C264.286 55.8457 264.723 55.746 265.2 55.746C265.798 55.746 266.327 55.8803 266.786 56.149C267.245 56.4177 267.588 56.812 267.813 57.332C268.012 56.8293 268.342 56.4393 268.801 56.162C269.26 55.8847 269.772 55.746 270.335 55.746ZM274.72 59.412C274.72 58.684 274.867 58.047 275.162 57.501C275.456 56.9463 275.859 56.5173 276.371 56.214C276.891 55.9107 277.467 55.759 278.1 55.759C278.724 55.759 279.265 55.8933 279.725 56.162C280.184 56.4307 280.526 56.7687 280.752 57.176V55.876H281.948V63H280.752V61.674C280.518 62.09 280.167 62.4367 279.699 62.714C279.239 62.9827 278.702 63.117 278.087 63.117C277.454 63.117 276.882 62.961 276.371 62.649C275.859 62.337 275.456 61.8993 275.162 61.336C274.867 60.7727 274.72 60.1313 274.72 59.412ZM280.752 59.425C280.752 58.8877 280.643 58.4197 280.427 58.021C280.21 57.6223 279.915 57.319 279.543 57.111C279.179 56.8943 278.776 56.786 278.334 56.786C277.892 56.786 277.489 56.89 277.125 57.098C276.761 57.306 276.47 57.6093 276.254 58.008C276.037 58.4067 275.929 58.8747 275.929 59.412C275.929 59.958 276.037 60.4347 276.254 60.842C276.47 61.2407 276.761 61.5483 277.125 61.765C277.489 61.973 277.892 62.077 278.334 62.077C278.776 62.077 279.179 61.973 279.543 61.765C279.915 61.5483 280.21 61.2407 280.427 60.842C280.643 60.4347 280.752 59.9623 280.752 59.425ZM287.925 63L285.13 59.854V63H283.947V53.38H285.13V59.035L287.873 55.876H289.524L286.17 59.425L289.537 63H287.925ZM297.137 59.165C297.137 59.3903 297.124 59.6287 297.098 59.88H291.404C291.448 60.582 291.686 61.1323 292.119 61.531C292.561 61.921 293.094 62.116 293.718 62.116C294.23 62.116 294.654 61.999 294.992 61.765C295.339 61.5223 295.582 61.2017 295.72 60.803H296.994C296.804 61.4877 296.422 62.0467 295.85 62.48C295.278 62.9047 294.568 63.117 293.718 63.117C293.042 63.117 292.436 62.9653 291.898 62.662C291.37 62.3587 290.954 61.9297 290.65 61.375C290.347 60.8117 290.195 60.1617 290.195 59.425C290.195 58.6883 290.343 58.0427 290.637 57.488C290.932 56.9333 291.344 56.5087 291.872 56.214C292.41 55.9107 293.025 55.759 293.718 55.759C294.394 55.759 294.992 55.9063 295.512 56.201C296.032 56.4957 296.431 56.903 296.708 57.423C296.994 57.9343 297.137 58.515 297.137 59.165ZM295.915 58.918C295.915 58.4673 295.816 58.0817 295.616 57.761C295.417 57.4317 295.144 57.1847 294.797 57.02C294.459 56.8467 294.082 56.76 293.666 56.76C293.068 56.76 292.557 56.9507 292.132 57.332C291.716 57.7133 291.478 58.242 291.417 58.918H295.915ZM301.221 63.117C300.675 63.117 300.185 63.026 299.752 62.844C299.318 62.6533 298.976 62.3933 298.725 62.064C298.473 61.726 298.335 61.3403 298.309 60.907H299.531C299.565 61.2623 299.73 61.5527 300.025 61.778C300.328 62.0033 300.722 62.116 301.208 62.116C301.658 62.116 302.014 62.0163 302.274 61.817C302.534 61.6177 302.664 61.3663 302.664 61.063C302.664 60.751 302.525 60.5213 302.248 60.374C301.97 60.218 301.541 60.0663 300.961 59.919C300.432 59.7803 299.999 59.6417 299.661 59.503C299.331 59.3557 299.045 59.1433 298.803 58.866C298.569 58.58 298.452 58.2073 298.452 57.748C298.452 57.384 298.56 57.0503 298.777 56.747C298.993 56.4437 299.301 56.2053 299.7 56.032C300.098 55.85 300.553 55.759 301.065 55.759C301.853 55.759 302.49 55.9583 302.976 56.357C303.461 56.7557 303.721 57.3017 303.756 57.995H302.573C302.547 57.6223 302.395 57.3233 302.118 57.098C301.849 56.8727 301.485 56.76 301.026 56.76C300.601 56.76 300.263 56.851 300.012 57.033C299.76 57.215 299.635 57.4533 299.635 57.748C299.635 57.982 299.708 58.177 299.856 58.333C300.012 58.4803 300.202 58.6017 300.428 58.697C300.662 58.7837 300.982 58.8833 301.39 58.996C301.901 59.1347 302.317 59.2733 302.638 59.412C302.958 59.542 303.231 59.7413 303.457 60.01C303.691 60.2787 303.812 60.6297 303.821 61.063C303.821 61.453 303.712 61.804 303.496 62.116C303.279 62.428 302.971 62.675 302.573 62.857C302.183 63.0303 301.732 63.117 301.221 63.117ZM144.777 77.202C145.019 76.7773 145.375 76.4307 145.843 76.162C146.311 75.8933 146.844 75.759 147.442 75.759C148.083 75.759 148.659 75.9107 149.171 76.214C149.682 76.5173 150.085 76.9463 150.38 77.501C150.674 78.047 150.822 78.684 150.822 79.412C150.822 80.1313 150.674 80.7727 150.38 81.336C150.085 81.8993 149.678 82.337 149.158 82.649C148.646 82.961 148.074 83.117 147.442 83.117C146.826 83.117 146.285 82.9827 145.817 82.714C145.357 82.4453 145.011 82.103 144.777 81.687V83H143.594V73.38H144.777V77.202ZM149.613 79.412C149.613 78.8747 149.504 78.4067 149.288 78.008C149.071 77.6093 148.776 77.306 148.404 77.098C148.04 76.89 147.637 76.786 147.195 76.786C146.761 76.786 146.358 76.8943 145.986 77.111C145.622 77.319 145.327 77.6267 145.102 78.034C144.885 78.4327 144.777 78.8963 144.777 79.425C144.777 79.9623 144.885 80.4347 145.102 80.842C145.327 81.2407 145.622 81.5483 145.986 81.765C146.358 81.973 146.761 82.077 147.195 82.077C147.637 82.077 148.04 81.973 148.404 81.765C148.776 81.5483 149.071 81.2407 149.288 80.842C149.504 80.4347 149.613 79.958 149.613 79.412ZM152.99 74.719C152.765 74.719 152.574 74.641 152.418 74.485C152.262 74.329 152.184 74.1383 152.184 73.913C152.184 73.6877 152.262 73.497 152.418 73.341C152.574 73.185 152.765 73.107 152.99 73.107C153.207 73.107 153.389 73.185 153.536 73.341C153.692 73.497 153.77 73.6877 153.77 73.913C153.77 74.1383 153.692 74.329 153.536 74.485C153.389 74.641 153.207 74.719 152.99 74.719ZM153.562 75.876V83H152.379V75.876H153.562ZM158.516 75.759C159.131 75.759 159.669 75.8933 160.128 76.162C160.596 76.4307 160.943 76.7687 161.168 77.176V75.876H162.364V83.156C162.364 83.806 162.225 84.3823 161.948 84.885C161.671 85.3963 161.272 85.795 160.752 86.081C160.241 86.367 159.643 86.51 158.958 86.51C158.022 86.51 157.242 86.289 156.618 85.847C155.994 85.405 155.626 84.8027 155.513 84.04H156.683C156.813 84.4733 157.082 84.82 157.489 85.08C157.896 85.3487 158.386 85.483 158.958 85.483C159.608 85.483 160.137 85.2793 160.544 84.872C160.96 84.4647 161.168 83.8927 161.168 83.156V81.661C160.934 82.077 160.587 82.4237 160.128 82.701C159.669 82.9783 159.131 83.117 158.516 83.117C157.883 83.117 157.307 82.961 156.787 82.649C156.276 82.337 155.873 81.8993 155.578 81.336C155.283 80.7727 155.136 80.1313 155.136 79.412C155.136 78.684 155.283 78.047 155.578 77.501C155.873 76.9463 156.276 76.5173 156.787 76.214C157.307 75.9107 157.883 75.759 158.516 75.759ZM161.168 79.425C161.168 78.8877 161.06 78.4197 160.843 78.021C160.626 77.6223 160.332 77.319 159.959 77.111C159.595 76.8943 159.192 76.786 158.75 76.786C158.308 76.786 157.905 76.89 157.541 77.098C157.177 77.306 156.887 77.6093 156.67 78.008C156.453 78.4067 156.345 78.8747 156.345 79.412C156.345 79.958 156.453 80.4347 156.67 80.842C156.887 81.2407 157.177 81.5483 157.541 81.765C157.905 81.973 158.308 82.077 158.75 82.077C159.192 82.077 159.595 81.973 159.959 81.765C160.332 81.5483 160.626 81.2407 160.843 80.842C161.06 80.4347 161.168 79.9623 161.168 79.425ZM167.387 79.412C167.387 78.684 167.534 78.047 167.829 77.501C168.124 76.9463 168.527 76.5173 169.038 76.214C169.558 75.9107 170.139 75.759 170.78 75.759C171.335 75.759 171.85 75.889 172.327 76.149C172.804 76.4003 173.168 76.734 173.419 77.15V73.38H174.615V83H173.419V81.661C173.185 82.0857 172.838 82.4367 172.379 82.714C171.92 82.9827 171.382 83.117 170.767 83.117C170.134 83.117 169.558 82.961 169.038 82.649C168.527 82.337 168.124 81.8993 167.829 81.336C167.534 80.7727 167.387 80.1313 167.387 79.412ZM173.419 79.425C173.419 78.8877 173.311 78.4197 173.094 78.021C172.877 77.6223 172.583 77.319 172.21 77.111C171.846 76.8943 171.443 76.786 171.001 76.786C170.559 76.786 170.156 76.89 169.792 77.098C169.428 77.306 169.138 77.6093 168.921 78.008C168.704 78.4067 168.596 78.8747 168.596 79.412C168.596 79.958 168.704 80.4347 168.921 80.842C169.138 81.2407 169.428 81.5483 169.792 81.765C170.156 81.973 170.559 82.077 171.001 82.077C171.443 82.077 171.846 81.973 172.21 81.765C172.583 81.5483 172.877 81.2407 173.094 80.842C173.311 80.4347 173.419 79.9623 173.419 79.425ZM177.225 74.719C177 74.719 176.809 74.641 176.653 74.485C176.497 74.329 176.419 74.1383 176.419 73.913C176.419 73.6877 176.497 73.497 176.653 73.341C176.809 73.185 177 73.107 177.225 73.107C177.442 73.107 177.624 73.185 177.771 73.341C177.927 73.497 178.005 73.6877 178.005 73.913C178.005 74.1383 177.927 74.329 177.771 74.485C177.624 74.641 177.442 74.719 177.225 74.719ZM177.797 75.876V83H176.614V75.876H177.797ZM182.713 76.851H181.218V83H180.035V76.851H179.112V75.876H180.035V75.369C180.035 74.5717 180.238 73.991 180.646 73.627C181.062 73.2543 181.725 73.068 182.634 73.068V74.056C182.115 74.056 181.746 74.16 181.53 74.368C181.322 74.5673 181.218 74.901 181.218 75.369V75.876H182.713V76.851ZM186.991 76.851H185.496V83H184.313V76.851H183.39V75.876H184.313V75.369C184.313 74.5717 184.516 73.991 184.924 73.627C185.34 73.2543 186.003 73.068 186.913 73.068V74.056C186.393 74.056 186.024 74.16 185.808 74.368C185.6 74.5673 185.496 74.901 185.496 75.369V75.876H186.991V76.851ZM194.87 79.165C194.87 79.3903 194.857 79.6287 194.831 79.88H189.137C189.18 80.582 189.419 81.1323 189.852 81.531C190.294 81.921 190.827 82.116 191.451 82.116C191.962 82.116 192.387 81.999 192.725 81.765C193.072 81.5223 193.314 81.2017 193.453 80.803H194.727C194.536 81.4877 194.155 82.0467 193.583 82.48C193.011 82.9047 192.3 83.117 191.451 83.117C190.775 83.117 190.168 82.9653 189.631 82.662C189.102 82.3587 188.686 81.9297 188.383 81.375C188.08 80.8117 187.928 80.1617 187.928 79.425C187.928 78.6883 188.075 78.0427 188.37 77.488C188.665 76.9333 189.076 76.5087 189.605 76.214C190.142 75.9107 190.758 75.759 191.451 75.759C192.127 75.759 192.725 75.9063 193.245 76.201C193.765 76.4957 194.164 76.903 194.441 77.423C194.727 77.9343 194.87 78.515 194.87 79.165ZM193.648 78.918C193.648 78.4673 193.548 78.0817 193.349 77.761C193.15 77.4317 192.877 77.1847 192.53 77.02C192.192 76.8467 191.815 76.76 191.399 76.76C190.801 76.76 190.29 76.9507 189.865 77.332C189.449 77.7133 189.211 78.242 189.15 78.918H193.648ZM197.615 77.033C197.823 76.6257 198.117 76.3093 198.499 76.084C198.889 75.8587 199.361 75.746 199.916 75.746V76.968H199.604C198.278 76.968 197.615 77.6873 197.615 79.126V83H196.432V75.876H197.615V77.033ZM207.781 79.165C207.781 79.3903 207.768 79.6287 207.742 79.88H202.048C202.092 80.582 202.33 81.1323 202.763 81.531C203.205 81.921 203.738 82.116 204.362 82.116C204.874 82.116 205.298 81.999 205.636 81.765C205.983 81.5223 206.226 81.2017 206.364 80.803H207.638C207.448 81.4877 207.066 82.0467 206.494 82.48C205.922 82.9047 205.212 83.117 204.362 83.117C203.686 83.117 203.08 82.9653 202.542 82.662C202.014 82.3587 201.598 81.9297 201.294 81.375C200.991 80.8117 200.839 80.1617 200.839 79.425C200.839 78.6883 200.987 78.0427 201.281 77.488C201.576 76.9333 201.988 76.5087 202.516 76.214C203.054 75.9107 203.669 75.759 204.362 75.759C205.038 75.759 205.636 75.9063 206.156 76.201C206.676 76.4957 207.075 76.903 207.352 77.423C207.638 77.9343 207.781 78.515 207.781 79.165ZM206.559 78.918C206.559 78.4673 206.46 78.0817 206.26 77.761C206.061 77.4317 205.788 77.1847 205.441 77.02C205.103 76.8467 204.726 76.76 204.31 76.76C203.712 76.76 203.201 76.9507 202.776 77.332C202.36 77.7133 202.122 78.242 202.061 78.918H206.559ZM212.814 75.746C213.68 75.746 214.382 76.0103 214.92 76.539C215.457 77.059 215.726 77.813 215.726 78.801V83H214.556V78.97C214.556 78.2593 214.378 77.7177 214.023 77.345C213.667 76.9637 213.182 76.773 212.567 76.773C211.943 76.773 211.444 76.968 211.072 77.358C210.708 77.748 210.526 78.3157 210.526 79.061V83H209.343V75.876H210.526V76.89C210.76 76.526 211.076 76.2443 211.475 76.045C211.882 75.8457 212.328 75.746 212.814 75.746ZM217.216 79.425C217.216 78.6883 217.364 78.047 217.658 77.501C217.953 76.9463 218.36 76.5173 218.88 76.214C219.409 75.9107 220.011 75.759 220.687 75.759C221.563 75.759 222.282 75.9713 222.845 76.396C223.417 76.8207 223.794 77.41 223.976 78.164H222.702C222.581 77.7307 222.343 77.3883 221.987 77.137C221.641 76.8857 221.207 76.76 220.687 76.76C220.011 76.76 219.465 76.994 219.049 77.462C218.633 77.9213 218.425 78.5757 218.425 79.425C218.425 80.283 218.633 80.946 219.049 81.414C219.465 81.882 220.011 82.116 220.687 82.116C221.207 82.116 221.641 81.9947 221.987 81.752C222.334 81.5093 222.572 81.1627 222.702 80.712H223.976C223.786 81.44 223.404 82.025 222.832 82.467C222.26 82.9003 221.545 83.117 220.687 83.117C220.011 83.117 219.409 82.9653 218.88 82.662C218.36 82.3587 217.953 81.9297 217.658 81.375C217.364 80.8203 217.216 80.1703 217.216 79.425ZM232.055 79.165C232.055 79.3903 232.042 79.6287 232.016 79.88H226.322C226.365 80.582 226.603 81.1323 227.037 81.531C227.479 81.921 228.012 82.116 228.636 82.116C229.147 82.116 229.572 81.999 229.91 81.765C230.256 81.5223 230.499 81.2017 230.638 80.803H231.912C231.721 81.4877 231.34 82.0467 230.768 82.48C230.196 82.9047 229.485 83.117 228.636 83.117C227.96 83.117 227.353 82.9653 226.816 82.662C226.287 82.3587 225.871 81.9297 225.568 81.375C225.264 80.8117 225.113 80.1617 225.113 79.425C225.113 78.6883 225.26 78.0427 225.555 77.488C225.849 76.9333 226.261 76.5087 226.79 76.214C227.327 75.9107 227.942 75.759 228.636 75.759C229.312 75.759 229.91 75.9063 230.43 76.201C230.95 76.4957 231.348 76.903 231.626 77.423C231.912 77.9343 232.055 78.515 232.055 79.165ZM230.833 78.918C230.833 78.4673 230.733 78.0817 230.534 77.761C230.334 77.4317 230.061 77.1847 229.715 77.02C229.377 76.8467 229 76.76 228.584 76.76C227.986 76.76 227.474 76.9507 227.05 77.332C226.634 77.7133 226.395 78.242 226.335 78.918H230.833ZM236.138 83.117C235.592 83.117 235.103 83.026 234.669 82.844C234.236 82.6533 233.894 82.3933 233.642 82.064C233.391 81.726 233.252 81.3403 233.226 80.907H234.448C234.483 81.2623 234.648 81.5527 234.942 81.778C235.246 82.0033 235.64 82.116 236.125 82.116C236.576 82.116 236.931 82.0163 237.191 81.817C237.451 81.6177 237.581 81.3663 237.581 81.063C237.581 80.751 237.443 80.5213 237.165 80.374C236.888 80.218 236.459 80.0663 235.878 79.919C235.35 79.7803 234.916 79.6417 234.578 79.503C234.249 79.3557 233.963 79.1433 233.72 78.866C233.486 78.58 233.369 78.2073 233.369 77.748C233.369 77.384 233.478 77.0503 233.694 76.747C233.911 76.4437 234.219 76.2053 234.617 76.032C235.016 75.85 235.471 75.759 235.982 75.759C236.771 75.759 237.408 75.9583 237.893 76.357C238.379 76.7557 238.639 77.3017 238.673 77.995H237.49C237.464 77.6223 237.313 77.3233 237.035 77.098C236.767 76.8727 236.403 76.76 235.943 76.76C235.519 76.76 235.181 76.851 234.929 77.033C234.678 77.215 234.552 77.4533 234.552 77.748C234.552 77.982 234.626 78.177 234.773 78.333C234.929 78.4803 235.12 78.6017 235.345 78.697C235.579 78.7837 235.9 78.8833 236.307 78.996C236.819 79.1347 237.235 79.2733 237.555 79.412C237.876 79.542 238.149 79.7413 238.374 80.01C238.608 80.2787 238.73 80.6297 238.738 81.063C238.738 81.453 238.63 81.804 238.413 82.116C238.197 82.428 237.889 82.675 237.49 82.857C237.1 83.0303 236.65 83.117 236.138 83.117Z" fill="#333333"/>
<rect x="116" y="98" width="43" height="42" rx="5" fill="#9BD1C6"/>
<rect x="169" y="98" width="43" height="42" rx="5" fill="#9BD1C6"/>
<rect x="222" y="98" width="43" height="42" rx="5" fill="#9BD1C6"/>
<path d="M132.636 114.112C132.716 112.512 133.276 111.28 134.316 110.416C135.372 109.536 136.756 109.096 138.468 109.096C139.636 109.096 140.636 109.304 141.468 109.72C142.3 110.12 142.924 110.672 143.34 111.376C143.772 112.064 143.988 112.848 143.988 113.728C143.988 114.736 143.724 115.592 143.196 116.296C142.684 116.984 142.068 117.448 141.348 117.688V117.784C142.276 118.072 142.996 118.584 143.508 119.32C144.036 120.056 144.3 121 144.3 122.152C144.3 123.112 144.076 123.968 143.628 124.72C143.196 125.472 142.548 126.064 141.684 126.496C140.836 126.912 139.812 127.12 138.612 127.12C136.804 127.12 135.332 126.664 134.196 125.752C133.06 124.84 132.46 123.496 132.396 121.72H135.66C135.692 122.504 135.956 123.136 136.452 123.616C136.964 124.08 137.66 124.312 138.54 124.312C139.356 124.312 139.98 124.088 140.412 123.64C140.86 123.176 141.084 122.584 141.084 121.864C141.084 120.904 140.78 120.216 140.172 119.8C139.564 119.384 138.62 119.176 137.34 119.176H136.644V116.416H137.34C139.612 116.416 140.748 115.656 140.748 114.136C140.748 113.448 140.54 112.912 140.124 112.528C139.724 112.144 139.14 111.952 138.372 111.952C137.62 111.952 137.036 112.16 136.62 112.576C136.22 112.976 135.988 113.488 135.924 114.112H132.636Z" fill="#333333"/>
<path d="M184.194 123.592V120.952L192.042 109.72H195.954V120.664H198.066V123.592H195.954V127H192.594V123.592H184.194ZM192.81 113.32L187.89 120.664H192.81V113.32Z" fill="#333333"/>
<path d="M238.636 114.112C238.716 112.512 239.276 111.28 240.316 110.416C241.372 109.536 242.756 109.096 244.468 109.096C245.636 109.096 246.636 109.304 247.468 109.72C248.3 110.12 248.924 110.672 249.34 111.376C249.772 112.064 249.988 112.848 249.988 113.728C249.988 114.736 249.724 115.592 249.196 116.296C248.684 116.984 248.068 117.448 247.348 117.688V117.784C248.276 118.072 248.996 118.584 249.508 119.32C250.036 120.056 250.3 121 250.3 122.152C250.3 123.112 250.076 123.968 249.628 124.72C249.196 125.472 248.548 126.064 247.684 126.496C246.836 126.912 245.812 127.12 244.612 127.12C242.804 127.12 241.332 126.664 240.196 125.752C239.06 124.84 238.46 123.496 238.396 121.72H241.66C241.692 122.504 241.956 123.136 242.452 123.616C242.964 124.08 243.66 124.312 244.54 124.312C245.356 124.312 245.98 124.088 246.412 123.64C246.86 123.176 247.084 122.584 247.084 121.864C247.084 120.904 246.78 120.216 246.172 119.8C245.564 119.384 244.62 119.176 243.34 119.176H242.644V116.416H243.34C245.612 116.416 246.748 115.656 246.748 114.136C246.748 113.448 246.54 112.912 246.124 112.528C245.724 112.144 245.14 111.952 244.372 111.952C243.62 111.952 243.036 112.16 242.62 112.576C242.22 112.976 241.988 113.488 241.924 114.112H238.636Z" fill="#333333"/>
<rect x="114" y="192" width="153" height="26" rx="4" fill="url(#paint0_linear_2493_64396)"/>
<path d="M159.452 207.896H162.272V209H158.084V200.66H159.452V207.896ZM169.476 205.532C169.476 205.78 169.46 206.004 169.428 206.204H164.376C164.416 206.732 164.612 207.156 164.964 207.476C165.316 207.796 165.748 207.956 166.26 207.956C166.996 207.956 167.516 207.648 167.82 207.032H169.296C169.096 207.64 168.732 208.14 168.204 208.532C167.684 208.916 167.036 209.108 166.26 209.108C165.628 209.108 165.06 208.968 164.556 208.688C164.06 208.4 163.668 208 163.38 207.488C163.1 206.968 162.96 206.368 162.96 205.688C162.96 205.008 163.096 204.412 163.368 203.9C163.648 203.38 164.036 202.98 164.532 202.7C165.036 202.42 165.612 202.28 166.26 202.28C166.884 202.28 167.44 202.416 167.928 202.688C168.416 202.96 168.796 203.344 169.068 203.84C169.34 204.328 169.476 204.892 169.476 205.532ZM168.048 205.1C168.04 204.596 167.86 204.192 167.508 203.888C167.156 203.584 166.72 203.432 166.2 203.432C165.728 203.432 165.324 203.584 164.988 203.888C164.652 204.184 164.452 204.588 164.388 205.1H168.048ZM170.366 205.664C170.366 205 170.502 204.412 170.774 203.9C171.054 203.388 171.43 202.992 171.902 202.712C172.382 202.424 172.91 202.28 173.486 202.28C174.006 202.28 174.458 202.384 174.842 202.592C175.234 202.792 175.546 203.044 175.778 203.348V202.388H177.158V209H175.778V208.016C175.546 208.328 175.23 208.588 174.83 208.796C174.43 209.004 173.974 209.108 173.462 209.108C172.894 209.108 172.374 208.964 171.902 208.676C171.43 208.38 171.054 207.972 170.774 207.452C170.502 206.924 170.366 206.328 170.366 205.664ZM175.778 205.688C175.778 205.232 175.682 204.836 175.49 204.5C175.306 204.164 175.062 203.908 174.758 203.732C174.454 203.556 174.126 203.468 173.774 203.468C173.422 203.468 173.094 203.556 172.79 203.732C172.486 203.9 172.238 204.152 172.046 204.488C171.862 204.816 171.77 205.208 171.77 205.664C171.77 206.12 171.862 206.52 172.046 206.864C172.238 207.208 172.486 207.472 172.79 207.656C173.102 207.832 173.43 207.92 173.774 207.92C174.126 207.92 174.454 207.832 174.758 207.656C175.062 207.48 175.306 207.224 175.49 206.888C175.682 206.544 175.778 206.144 175.778 205.688ZM180.323 203.348C180.523 203.012 180.787 202.752 181.115 202.568C181.451 202.376 181.847 202.28 182.303 202.28V203.696H181.955C181.419 203.696 181.011 203.832 180.731 204.104C180.459 204.376 180.323 204.848 180.323 205.52V209H178.955V202.388H180.323V203.348ZM186.896 202.28C187.416 202.28 187.88 202.388 188.288 202.604C188.704 202.82 189.028 203.14 189.26 203.564C189.492 203.988 189.608 204.5 189.608 205.1V209H188.252V205.304C188.252 204.712 188.104 204.26 187.808 203.948C187.512 203.628 187.108 203.468 186.596 203.468C186.084 203.468 185.676 203.628 185.372 203.948C185.076 204.26 184.928 204.712 184.928 205.304V209H183.56V202.388H184.928V203.144C185.152 202.872 185.436 202.66 185.78 202.508C186.132 202.356 186.504 202.28 186.896 202.28ZM203.254 200.66V209H201.886V203.288L199.342 209H198.394L195.838 203.288V209H194.47V200.66H195.946L198.874 207.2L201.79 200.66H203.254ZM207.92 209.108C207.296 209.108 206.732 208.968 206.228 208.688C205.724 208.4 205.328 208 205.04 207.488C204.752 206.968 204.608 206.368 204.608 205.688C204.608 205.016 204.756 204.42 205.052 203.9C205.348 203.38 205.752 202.98 206.264 202.7C206.776 202.42 207.348 202.28 207.98 202.28C208.612 202.28 209.184 202.42 209.696 202.7C210.208 202.98 210.612 203.38 210.908 203.9C211.204 204.42 211.352 205.016 211.352 205.688C211.352 206.36 211.2 206.956 210.896 207.476C210.592 207.996 210.176 208.4 209.648 208.688C209.128 208.968 208.552 209.108 207.92 209.108ZM207.92 207.92C208.272 207.92 208.6 207.836 208.904 207.668C209.216 207.5 209.468 207.248 209.66 206.912C209.852 206.576 209.948 206.168 209.948 205.688C209.948 205.208 209.856 204.804 209.672 204.476C209.488 204.14 209.244 203.888 208.94 203.72C208.636 203.552 208.308 203.468 207.956 203.468C207.604 203.468 207.276 203.552 206.972 203.72C206.676 203.888 206.44 204.14 206.264 204.476C206.088 204.804 206 205.208 206 205.688C206 206.4 206.18 206.952 206.54 207.344C206.908 207.728 207.368 207.92 207.92 207.92ZM214.073 203.348C214.273 203.012 214.537 202.752 214.865 202.568C215.201 202.376 215.597 202.28 216.053 202.28V203.696H215.705C215.169 203.696 214.761 203.832 214.481 204.104C214.209 204.376 214.073 204.848 214.073 205.52V209H212.705V202.388H214.073V203.348ZM223.37 205.532C223.37 205.78 223.354 206.004 223.322 206.204H218.27C218.31 206.732 218.506 207.156 218.858 207.476C219.21 207.796 219.642 207.956 220.154 207.956C220.89 207.956 221.41 207.648 221.714 207.032H223.19C222.99 207.64 222.626 208.14 222.098 208.532C221.578 208.916 220.93 209.108 220.154 209.108C219.522 209.108 218.954 208.968 218.45 208.688C217.954 208.4 217.562 208 217.274 207.488C216.994 206.968 216.854 206.368 216.854 205.688C216.854 205.008 216.99 204.412 217.262 203.9C217.542 203.38 217.93 202.98 218.426 202.7C218.93 202.42 219.506 202.28 220.154 202.28C220.778 202.28 221.334 202.416 221.822 202.688C222.31 202.96 222.69 203.344 222.962 203.84C223.234 204.328 223.37 204.892 223.37 205.532ZM221.942 205.1C221.934 204.596 221.754 204.192 221.402 203.888C221.05 203.584 220.614 203.432 220.094 203.432C219.622 203.432 219.218 203.584 218.882 203.888C218.546 204.184 218.346 204.588 218.282 205.1H221.942Z" fill="#333333"/>
<defs>
<linearGradient id="paint0_linear_2493_64396" x1="114" y1="192" x2="268.036" y2="208.071" gradientUnits="userSpaceOnUse">
<stop stop-color="#8FCBB4"/>
<stop offset="1" stop-color="#9BD1C6"/>
</linearGradient>
</defs>
</svg>
