<svg width="24" height="24" viewBox="0 0 24 24" fill="none" xmlns="http://www.w3.org/2000/svg">
<g clip-path="url(#clip0_2493_63976)">
<path d="M22.286 4.28516H1.71456C1.24118 4.28516 0.857422 4.66891 0.857422 5.1423V18.8566C0.857422 19.33 1.24118 19.7137 1.71456 19.7137H22.286C22.7594 19.7137 23.1431 19.33 23.1431 18.8566V5.1423C23.1431 4.66891 22.7594 4.28516 22.286 4.28516Z" stroke="#333333" stroke-width="1.8" stroke-linecap="round" stroke-linejoin="round"/>
<path d="M14.5709 7.71289H5.1423C4.66891 7.71289 4.28516 8.09665 4.28516 8.57003V15.4272C4.28516 15.9006 4.66891 16.2843 5.1423 16.2843H14.5709C15.0443 16.2843 15.428 15.9006 15.428 15.4272V8.57003C15.428 8.09665 15.0443 7.71289 14.5709 7.71289Z" stroke="#333333" stroke-width="1.8" stroke-linecap="round" stroke-linejoin="round"/>
<path d="M18.8574 8.57031H19.7146M18.8574 11.1417H19.7146" stroke="#333333" stroke-width="1.8" stroke-linecap="round" stroke-linejoin="round"/>
</g>
<defs>
<clipPath id="clip0_2493_63976">
<rect width="24" height="24" fill="white"/>
</clipPath>
</defs>
</svg>
