<svg width="186" height="187" viewBox="0 0 186 187" fill="none" xmlns="http://www.w3.org/2000/svg">
<rect width="186" height="187" rx="33" fill="#F27E7E" fill-opacity="0.16"/>
<rect x="12" y="12" width="162" height="163" rx="33" fill="#F27E7E" fill-opacity="0.16"/>
<rect x="23" y="23" width="140" height="141" rx="33" fill="#F27E7E" fill-opacity="0.16"/>
<rect x="43" y="43" width="101" height="101" rx="33" fill="#F27E7E"/>
<path d="M108.973 104.022C110.342 105.392 110.342 107.605 108.973 108.974C108.291 109.657 107.394 110 106.497 110C105.601 110 104.705 109.657 104.022 108.974L93.5 98.4514L82.9782 108.974C82.2954 109.657 81.399 110 80.5027 110C79.6058 110 78.7095 109.657 78.0266 108.974C76.6578 107.605 76.6578 105.392 78.0266 104.022L88.5491 93.5004L78.0266 82.9783C76.6578 81.6088 76.6578 79.3962 78.0266 78.0267C79.3961 76.6578 81.6087 76.6578 82.9782 78.0267L93.5 88.5494L104.022 78.0267C105.391 76.6578 107.604 76.6578 108.973 78.0267C110.342 79.3962 110.342 81.6088 108.973 82.9783L98.4509 93.5004L108.973 104.022Z" fill="white"/>
</svg>
