<svg width="50" height="42" viewBox="0 0 50 42" fill="none" xmlns="http://www.w3.org/2000/svg">
<path d="M13.2187 5.4504C9.23632 7.3428 5.89992 8.9692 5.79352 9.068C5.64152 9.2124 5.60352 9.3188 5.60352 9.6228V10.0028L7.29072 11.7052L8.97792 13.4L7.29072 15.0948L5.60352 16.7972V17.1772C5.60352 17.4812 5.64152 17.5952 5.78592 17.7396C5.89232 17.8384 6.74352 18.2792 7.68592 18.72L9.39592 19.518L9.40352 25.7576V32.0048L9.57832 32.1644C9.66952 32.2556 13.0211 34.0568 17.0263 36.1696C22.9695 39.2932 24.3679 40 24.6035 40C24.8391 40 26.2375 39.2932 32.1731 36.1696C36.1783 34.0644 39.5299 32.2632 39.6287 32.172L39.8035 32.0048V25.7576L39.8111 19.518L41.4983 18.7276C42.4255 18.2944 43.2767 17.8536 43.3907 17.7472C43.5655 17.5876 43.6035 17.4888 43.6035 17.1772V16.7972L41.9163 15.0948L40.2291 13.4L41.9163 11.7052L43.6035 10.0028V9.6228C43.6035 9.3112 43.5655 9.2124 43.3983 9.0528C43.2767 8.9464 39.9251 7.32 35.9351 5.4276C29.7031 2.4864 28.6391 2 28.3427 2H28.0007L26.2983 3.6872L24.6035 5.3744L22.9087 3.6872L21.2063 2L20.8339 2.0076C20.5071 2.0152 19.5799 2.4332 13.2187 5.4504ZM21.8979 5.0324L23.1823 6.3168L22.8479 6.4916C22.6655 6.5828 19.7775 7.9508 16.4335 9.5392L10.3611 12.4196L9.08432 11.1428C8.38512 10.4436 7.83792 9.8432 7.86832 9.8128C7.92152 9.7596 20.4843 3.7708 20.5755 3.7556C20.5983 3.748 21.1911 4.3256 21.8979 5.0324ZM35.0155 6.7804C38.4583 8.4144 41.3083 9.7824 41.3387 9.8128C41.3691 9.8432 40.8219 10.4436 40.1227 11.1428L38.8459 12.412L32.6975 9.5012C29.3079 7.8976 26.4275 6.522 26.2831 6.4536L26.0247 6.3168L27.3091 5.0324C28.0159 4.3256 28.6315 3.7632 28.6695 3.7784C28.7151 3.7936 31.5651 5.1464 35.0155 6.7804ZM30.8583 10.4132C34.2707 12.032 37.0675 13.3772 37.0675 13.4C37.0675 13.4228 34.2631 14.7756 30.8355 16.3944L24.6035 19.3508L18.3715 16.3944C14.9439 14.768 12.1395 13.4228 12.1395 13.4C12.1395 13.3544 24.4439 7.4948 24.5655 7.4796C24.6111 7.472 27.4383 8.7944 30.8583 10.4132ZM16.7755 17.4204C20.2183 19.0544 23.0683 20.4224 23.0987 20.4528C23.1291 20.4832 22.5819 21.0836 21.8827 21.7828L20.6059 23.052L14.4575 20.1412C11.0679 18.5376 8.18752 17.162 8.04312 17.0936L7.78472 16.9568L9.06912 15.6724C9.77592 14.9656 10.3915 14.4032 10.4295 14.4184C10.4751 14.4336 13.3251 15.7864 16.7755 17.4204ZM40.1379 15.6724L41.4223 16.9568L41.0879 17.124C40.9055 17.2228 38.0251 18.5908 34.6811 20.1792L28.6011 23.0596L27.3243 21.7828C26.6251 21.0836 26.0779 20.4832 26.1083 20.4528C26.1615 20.3996 38.7243 14.4108 38.8155 14.3956C38.8383 14.388 39.4311 14.9656 40.1379 15.6724ZM15.8787 22.6036C19.8155 24.4656 20.5755 24.8 20.8643 24.8C21.1987 24.8 21.2063 24.7924 22.5211 23.4928L23.8435 22.1856V30.0288C23.8435 34.3456 23.8207 37.872 23.7979 37.872C23.7675 37.872 20.8643 36.3596 17.3379 34.5052L10.9311 31.146L10.9235 25.6892V20.2324L11.0831 20.3236C11.1743 20.3692 13.3327 21.3952 15.8787 22.6036ZM38.2835 25.6892L38.2759 31.146L31.8691 34.5128C28.3503 36.3596 25.4471 37.872 25.4167 37.872C25.3863 37.872 25.3635 34.3456 25.3635 30.0288V22.1856L26.6859 23.4928C28.0007 24.7924 28.0007 24.8 28.3427 24.8C28.6391 24.8 29.3991 24.4656 33.4651 22.5276C36.0947 21.2736 38.2531 20.2476 38.2683 20.2476C38.2759 20.24 38.2835 22.6948 38.2835 25.6892Z" fill="#8FCBB4"/>
</svg>
