<svg width="16" height="17" viewBox="0 0 16 17" fill="none" xmlns="http://www.w3.org/2000/svg">
<path fill-rule="evenodd" clip-rule="evenodd" d="M7.33398 9.83399C7.33398 9.46598 7.03532 9.16732 6.66732 9.16732H2.00065C1.63265 9.16732 1.33398 9.46598 1.33398 9.83399V14.5007C1.33398 14.8687 1.63265 15.1673 2.00065 15.1673H6.66732C7.03532 15.1673 7.33398 14.8687 7.33398 14.5007V9.83399ZM14.6673 9.83399C14.6673 9.46598 14.3687 9.16732 14.0007 9.16732H9.33399C8.96598 9.16732 8.66732 9.46598 8.66732 9.83399V14.5007C8.66732 14.8687 8.96598 15.1673 9.33399 15.1673H14.0007C14.3687 15.1673 14.6673 14.8687 14.6673 14.5007V9.83399ZM14.6673 2.50065C14.6673 2.13265 14.3687 1.83398 14.0007 1.83398H9.33399C8.96598 1.83398 8.66732 2.13265 8.66732 2.50065V7.16732C8.66732 7.53532 8.96598 7.83398 9.33399 7.83398H14.0007C14.3687 7.83398 14.6673 7.53532 14.6673 7.16732V2.50065ZM7.33398 2.50065C7.33398 2.13265 7.03532 1.83398 6.66732 1.83398H2.00065C1.63265 1.83398 1.33398 2.13265 1.33398 2.50065V7.16732C1.33398 7.53532 1.63265 7.83398 2.00065 7.83398H6.66732C7.03532 7.83398 7.33398 7.53532 7.33398 7.16732V2.50065Z" fill="white"/>
</svg>
