<svg width="24" height="24" viewBox="0 0 24 24" fill="none" xmlns="http://www.w3.org/2000/svg">
<path fill-rule="evenodd" clip-rule="evenodd" d="M7.54437 19.9519C8.25837 19.9519 8.83937 20.5319 8.83937 21.2459C8.83937 21.9599 8.25837 22.5409 7.54437 22.5409C6.83037 22.5409 6.25037 21.9599 6.25037 21.2459C6.25037 20.5319 6.83037 19.9519 7.54437 19.9519ZM18.8247 19.9519C19.5397 19.9519 20.1207 20.5319 20.1207 21.2459C20.1207 21.9599 19.5397 22.5409 18.8247 22.5409C18.1107 22.5409 17.5307 21.9599 17.5307 21.2459C17.5307 20.5319 18.1107 19.9519 18.8247 19.9519ZM3.26857 3.00949L5.34857 3.36949C5.68357 3.42849 5.93857 3.70649 5.96757 4.04649L6.20257 6.84749L7.07642 6.84786C7.21902 6.84793 7.3601 6.84799 7.49969 6.84805L9.10399 6.84882C9.23188 6.84888 9.35833 6.84894 9.48336 6.84901L11.2548 6.84998C11.366 6.85004 11.476 6.85011 11.5846 6.85018L12.826 6.85097C12.9243 6.85103 13.0214 6.8511 13.1172 6.85117L14.209 6.85197C14.2952 6.85204 14.3803 6.85211 14.4641 6.85217L15.4161 6.85299C15.491 6.85306 15.5647 6.85313 15.6375 6.8532L16.2631 6.85382C16.3295 6.85389 16.3949 6.85396 16.4592 6.85403L17.1838 6.85487C17.2403 6.85494 17.2958 6.85501 17.3505 6.85508L17.9622 6.85594C18.0097 6.85601 18.0562 6.85608 18.1019 6.85615L18.4907 6.8568C18.5315 6.85687 18.5714 6.85695 18.6106 6.85702L19.0437 6.8579C19.0768 6.85797 19.1092 6.85804 19.1409 6.85812L19.4074 6.85878C19.435 6.85886 19.462 6.85893 19.4883 6.85901L19.774 6.85991C19.7954 6.85998 19.8163 6.86006 19.8366 6.86014L20.0043 6.86082C20.0214 6.8609 20.0379 6.86097 20.054 6.86105L20.2237 6.86197C20.236 6.86205 20.2479 6.86213 20.2594 6.86221L20.3519 6.86291C20.3611 6.86299 20.3698 6.86307 20.3782 6.86314L20.4448 6.86385C20.4512 6.86393 20.4574 6.86401 20.4632 6.86409L20.5085 6.86481C20.5128 6.86489 20.5168 6.86497 20.5206 6.86505L20.5493 6.86578C20.5519 6.86586 20.5544 6.86594 20.5566 6.86602L20.5774 6.867L20.581 6.86725C20.5907 6.86815 20.5936 6.86849 20.5936 6.86849C21.1506 6.94949 21.6406 7.24049 21.9746 7.68849C22.3086 8.13549 22.4486 8.68649 22.3686 9.23849L21.4196 15.7965C21.2406 17.0445 20.1566 17.9855 18.8966 17.9855H7.97557C6.65857 17.9855 5.54357 16.9575 5.43657 15.6425L4.52057 4.74849L3.01357 4.48849C2.60457 4.41649 2.33157 4.02949 2.40157 3.62049C2.47357 3.21149 2.86857 2.94549 3.26857 3.00949ZM6.8758 8.34783L6.32857 8.34749L6.93157 15.5195C6.97557 16.0715 7.42657 16.4855 7.97757 16.4855H18.8946C19.4156 16.4855 19.8606 16.0975 19.9346 15.5825L20.8846 9.02349C20.9066 8.86749 20.8676 8.71149 20.7726 8.58549C20.6786 8.45849 20.5406 8.37649 20.3846 8.35449C20.3774 8.35476 20.3601 8.35502 20.3332 8.35524L20.2245 8.35587C20.2017 8.35596 20.1767 8.35605 20.1495 8.35613L19.583 8.35699C19.5352 8.35702 19.4855 8.35705 19.4339 8.35708L18.102 8.35702C18.0276 8.357 17.9519 8.35696 17.8748 8.35693L16.3547 8.35601C16.2637 8.35594 16.1716 8.35587 16.0786 8.3558L15.2184 8.35511C15.1205 8.35503 15.0218 8.35495 14.9224 8.35486L14.0113 8.35406C13.9084 8.35397 13.805 8.35387 13.7012 8.35378L13.0736 8.3532C12.9683 8.35311 12.8627 8.35301 12.7569 8.35291L11.7992 8.35201C11.6924 8.35191 11.5855 8.35181 11.4787 8.35171L10.838 8.35112C10.7314 8.35102 10.6249 8.35092 10.5186 8.35082L9.88341 8.35025C9.77806 8.35015 9.67303 8.35006 9.56836 8.34997L8.63785 8.34917C8.53592 8.34908 8.43455 8.349 8.33378 8.34892L7.15786 8.34802C7.06296 8.34795 6.96892 8.34789 6.8758 8.34783ZM17.2885 10.5438C17.7025 10.5438 18.0385 10.8798 18.0385 11.2938C18.0385 11.7078 17.7025 12.0438 17.2885 12.0438H14.5165C14.1015 12.0438 13.7665 11.7078 13.7665 11.2938C13.7665 10.8798 14.1015 10.5438 14.5165 10.5438H17.2885Z" fill="#333333"/>
</svg>
