<svg width="24" height="24" viewBox="0 0 24 24" fill="none" xmlns="http://www.w3.org/2000/svg">
<path d="M2.08733 4.40266L2.08789 4.40264L22.6924 3.65033L22.6928 3.65031C22.7783 3.64714 22.8631 3.66824 22.9371 3.7112C23.0112 3.75415 23.0716 3.81719 23.1113 3.89303C23.151 3.96887 23.1685 4.05441 23.1616 4.13975C23.1548 4.2251 23.1239 4.30676 23.0726 4.37529L23.0724 4.37561L10.7248 20.8877L10.7246 20.888C10.6726 20.9576 10.6017 21.0108 10.5203 21.0413C10.4389 21.0718 10.3505 21.0782 10.2656 21.0599C10.1807 21.0416 10.1028 20.9992 10.0412 20.9379C9.97966 20.8766 9.93701 20.7989 9.91834 20.7141L8.43028 13.9423L15.7333 8.75478L15.7333 8.75479L15.7366 8.75242C15.8584 8.66471 15.9555 8.54699 16.0184 8.41069C16.0814 8.27437 16.108 8.12411 16.0957 7.97447L16.0925 7.93617L16.0849 7.8985L16.0736 7.84265L16.0644 7.79728L16.0488 7.75367C15.9829 7.56869 15.8564 7.41141 15.6899 7.30738C15.5233 7.20336 15.3265 7.1587 15.1313 7.18065L15.0976 7.18444L15.0644 7.19173L15.0153 7.20253L14.9736 7.21169L14.9335 7.22622L6.51993 10.2731L1.77186 5.16517L1.77155 5.16484C1.71232 5.10121 1.67263 5.02189 1.6572 4.93633C1.64177 4.85078 1.65126 4.76259 1.68453 4.68228C1.71781 4.60196 1.77347 4.53291 1.84488 4.48333C1.91629 4.43376 2.00045 4.40575 2.08733 4.40266ZM6.61401 10.3744L6.61375 10.3741L6.61401 10.3744Z" stroke="#8FCBB4" stroke-width="1.3"/>
</svg>
